<svg width="100" height="101" viewBox="0 0 100 101" fill="none" xmlns="http://www.w3.org/2000/svg">
<path d="M75.6 57.4L91 50.5L75.6 43.7L85.4 30L68.7 31.8L70.4 15L56.8 24.9L50 9.5L43.2 24.9L29.5 15L31.3 31.7L14.5 30L24.4 43.6L9 50.5L24.4 57.3L14.5 71L31.2 69.2L29.5 86L43.1 76.1L50 91.5L56.8 76.1L70.5 85.9L68.7 69.2L85.5 70.9L75.6 57.4Z" fill="#FCFC6B" stroke="#302F30" stroke-width="4"/>
<path d="M28.2835 63.0087C35.1853 74.917 50.4893 79.0198 62.4924 72.2151C74.4956 65.4104 78.4966 49.9997 71.6948 37.9913C64.793 26.083 49.489 21.9802 37.4859 28.7849C25.5828 35.6897 21.4817 51.1004 28.2835 63.0087Z" fill="#FEFEB5"/>
<path d="M31.7994 60.9934C37.5982 70.9913 50.4955 74.4905 60.4934 68.6917C70.4913 62.893 73.9905 49.9957 68.1918 39.9978C62.393 29.9999 49.4957 26.5006 39.4978 32.2994C29.4999 38.0982 26.0006 50.9955 31.7994 60.9934Z" fill="#FCFC6B"/>
</svg>
