<svg width="100" height="101" viewBox="0 0 100 101" fill="none" xmlns="http://www.w3.org/2000/svg">
<path fill-rule="evenodd" clip-rule="evenodd" d="M91 41.5L75.6 48.4L85.5 61.9L68.7 60.2L70.5 76.9L56.8 67.1L50 82.5L43.1 67.1L29.5 77L31.2 60.2L14.5 62L24.4 48.3L9 41.5H50H91Z" fill="#FCFC6B" stroke="#302F30" stroke-width="3"/>
<path fill-rule="evenodd" clip-rule="evenodd" d="M62.4927 63.2151C50.4895 70.0198 35.1856 65.917 28.2837 54.0087C26.0379 50.0769 24.9805 45.7632 25.0003 41.5H75.0003C75.0051 50.1949 70.5532 58.6455 62.4927 63.2151Z" fill="#FEFEB5"/>
<path fill-rule="evenodd" clip-rule="evenodd" d="M29.0001 41.5C28.9872 45.0754 29.8881 48.6948 31.8038 51.9978C37.6026 61.9957 50.4998 65.495 60.4978 59.6962C67.1926 55.8131 70.9735 48.747 70.9998 41.5H29.0001Z" fill="#FCFC6B"/>
<path fill-rule="evenodd" clip-rule="evenodd" d="M5 40C5 39.1716 5.67157 38.5 6.5 38.5H93.5C94.3284 38.5 95 39.1716 95 40C95 40.8284 94.3284 41.5 93.5 41.5H6.5C5.67157 41.5 5 40.8284 5 40Z" fill="#171F28"/>
</svg>
