<svg width="101" height="101" viewBox="0 0 101 101" fill="none" xmlns="http://www.w3.org/2000/svg">
<path fill-rule="evenodd" clip-rule="evenodd" d="M79.6983 37.9707L85.4 30L68.7 31.8L70.4 15L56.8 24.9L50 9.5L43.2 24.9L29.5 15L31.3 31.7L14.5 30L24.4 43.6L9 50.5L24.4 57.3L14.5 71L31.2 69.2L29.5 86L43.1 76.1L50 91.5L56.8 76.1L70.5 85.9L69.1501 73.3761H53.4664C50.2444 73.3761 47.2083 72.1988 44.9157 69.9682C42.4992 67.6756 41.1979 64.5775 41.136 61.2315V61.1076C41.136 57.9475 42.3752 54.9733 44.6059 52.7427C46.7745 50.512 49.6248 49.2108 52.7229 49.025C54.3959 46.6084 57.1842 45.1833 60.2203 45.1833H60.9019C64.2479 40.4742 69.7625 37.5 75.6489 37.5C77.0332 37.5 78.39 37.6629 79.6983 37.9707Z" fill="#FCFC6B" stroke="#302F30" stroke-width="4"/>
<path fill-rule="evenodd" clip-rule="evenodd" d="M60.1784 73.3761C48.5871 78.4697 34.7488 74.1638 28.2835 63.0087C21.4817 51.1004 25.5828 35.6897 37.4859 28.7849C49.477 21.987 64.7624 26.0748 71.6741 37.9556C67.344 38.9575 63.4795 41.5556 60.9019 45.1833H60.2203C57.1842 45.1833 54.3959 46.6084 52.7229 49.025C49.6248 49.2108 46.7745 50.512 44.6059 52.7427C42.3752 54.9733 41.136 57.9475 41.136 61.1076V61.2315C41.1979 64.5775 42.4992 67.6756 44.9157 69.9682C47.2083 72.1988 50.2444 73.3761 53.4664 73.3761H60.1784Z" fill="#FEFEB5"/>
<path fill-rule="evenodd" clip-rule="evenodd" d="M46.3565 71.1654C40.4543 70.1101 35.0272 66.5585 31.7994 60.9934C26.0006 50.9955 29.4999 38.0982 39.4978 32.2994C49.2722 26.6302 61.8179 29.8481 67.7924 39.3372C65.0639 40.6739 62.6775 42.6843 60.9019 45.1833H60.2203C57.1842 45.1833 54.3959 46.6085 52.7229 49.025C49.6248 49.2109 46.7745 50.5121 44.6059 52.7427C42.3752 54.9734 41.136 57.9475 41.136 61.1076V61.2315C41.1979 64.5775 42.4992 67.6756 44.9157 69.9682C45.3684 70.4087 45.8501 70.8081 46.3565 71.1654Z" fill="#FCFC6B"/>
<path d="M45.6495 53.7033L45.6488 53.7041C43.6927 55.7326 42.5841 58.3687 42.5841 61.1695V61.2934V61.3136L42.5846 61.3337C42.6565 64.2814 43.8112 66.9955 45.9385 68.987C47.9291 70.9663 50.6367 72.0519 53.4664 72.0519H87.9794C93.7706 72.0519 98.5519 67.3625 98.5519 61.5413C98.5519 57.0637 95.7326 53.1462 91.6967 51.6485C89.9877 44.3589 83.3573 38.9481 75.6489 38.9481C69.8603 38.9481 64.5914 41.9491 61.6488 46.762C61.1672 46.6711 60.69 46.6314 60.2203 46.6314C57.3889 46.6314 54.8651 48.0986 53.5146 50.4111C53.51 50.4111 53.5054 50.4111 53.5008 50.4111C53.4892 50.4111 53.4778 50.4111 53.4664 50.4111C50.4862 50.4111 47.7007 51.5788 45.6495 53.7033Z" fill="#F7F5F6" stroke="#302F30" stroke-width="3.3"/>
<g opacity="0.6">
<path style="mix-blend-mode:multiply" fill-rule="evenodd" clip-rule="evenodd" d="M90.272 52.9285C89.0947 45.9268 82.8985 40.5981 75.6489 40.5981C70.0103 40.5981 64.9294 43.7582 62.451 48.7151C61.7074 48.4053 60.9639 48.2814 60.2203 48.2814C57.6179 48.2814 55.3873 49.8304 54.5198 52.123C54.148 52.0611 53.8382 52.0611 53.4664 52.0611C50.926 52.0611 48.5714 53.0525 46.8365 54.8494C45.1635 56.5843 44.2341 58.815 44.2341 61.1695V61.2934C44.296 63.8339 45.2874 66.1265 47.0843 67.7995C48.7573 69.4724 51.0499 70.4019 53.4664 70.4019H87.9794C92.8744 70.4019 96.9019 66.4363 96.9019 61.5413C96.9019 57.4518 94.1136 53.9199 90.272 52.9285Z" fill="#F7F5F6"/>
</g>
<g style="mix-blend-mode:multiply" opacity="0.3" filter="url(#filter0_f_312_329)">
<path d="M58.1756 66.0026C59.2826 66.0026 73.572 65.2142 74.5831 64.7634C75.965 64.1473 73.1019 60.4435 74.5831 60.1352C75.2519 59.996 76.2353 59.5605 76.2353 59.5605C76.2353 59.5605 78.9325 58.5676 79.3976 58.5676C79.8627 58.5676 79.6296 56.7315 79.4844 55.5876L79.3976 54.7693C79.3976 54.2302 77.7916 53.1125 77.5387 51.7517C77.3629 50.8055 77.8013 49.5306 77.7096 49.2933C77.7096 49.2933 77.6782 49.2755 77.6874 49.2732C77.6964 49.271 77.7038 49.278 77.7096 49.2933C77.7794 49.326 78.2811 49.496 78.2811 49.496C79.488 49.905 81.3971 50.5736 83.1153 51.7517C84.1429 52.4563 85.5573 53.805 85.5573 53.805C85.5573 53.805 86.5764 54.5932 86.833 54.8498C87.4527 55.4694 89.3115 57.3283 90.5508 57.3283H93.6489L95.043 58.3135L95.3528 60.3025C95.3528 65.1975 91.3253 69.1631 86.4303 69.1631H51.3597C51.3597 69.1631 54.148 66.0026 58.1756 66.0026Z" fill="white"/>
</g>
<defs>
<filter id="filter0_f_312_329" x="47.0223" y="44.9355" width="52.6678" height="28.5649" filterUnits="userSpaceOnUse" color-interpolation-filters="sRGB">
<feFlood flood-opacity="0" result="BackgroundImageFix"/>
<feBlend mode="normal" in="SourceGraphic" in2="BackgroundImageFix" result="shape"/>
<feGaussianBlur stdDeviation="2.16867" result="effect1_foregroundBlur_312_329"/>
</filter>
</defs>
</svg>
