<svg width="101" height="101" viewBox="0 0 101 101" fill="none" xmlns="http://www.w3.org/2000/svg">
<path fill-rule="evenodd" clip-rule="evenodd" d="M64.2478 41.5H9L24.4 48.3L14.5 62L31.2 60.2L29.5 77L42.7124 67.3822C41.6237 65.5478 41.041 63.4438 41 61.2315V61.1076C41 57.9475 42.2392 54.9733 44.4699 52.7427C46.6386 50.512 49.4888 49.2108 52.5869 49.025C54.2599 46.6084 57.0482 45.1833 60.0843 45.1833H60.7659C61.7531 43.7939 62.9291 42.5555 64.2478 41.5ZM44.0441 69.2071L50 82.5L54.0287 73.3761H53.3305C50.1084 73.3761 47.0723 72.1988 44.7797 69.9682C44.5217 69.7234 44.2765 69.4695 44.0441 69.2071ZM65.5737 73.3761L70.5 76.9L70.1202 73.3761H65.5737ZM88.1821 42.7626C87.7341 42.3179 87.2626 41.8964 86.77 41.5H91L88.1821 42.7626Z" fill="#FCFC6B" stroke="#302F30" stroke-width="3"/>
<path fill-rule="evenodd" clip-rule="evenodd" d="M69.6587 38.5H6.5C5.67157 38.5 5 39.1716 5 40C5 40.8284 5.67157 41.5 6.5 41.5H64.2478C65.8652 40.2053 67.6973 39.1857 69.6587 38.5ZM86.77 41.5C85.1688 40.2117 83.3439 39.1888 81.376 38.5H93.5C94.3284 38.5 95 39.1716 95 40C95 40.8284 94.3284 41.5 93.5 41.5H86.77Z" fill="#171F28"/>
<path fill-rule="evenodd" clip-rule="evenodd" d="M64.2478 41.5C62.9291 42.5555 61.7531 43.7939 60.7659 45.1833H60.0843C57.0482 45.1833 54.2599 46.6084 52.5869 49.025C49.4888 49.2108 46.6386 50.512 44.4699 52.7427C42.2392 54.9733 41 57.9475 41 61.1076V61.2315C41.0246 62.56 41.2446 63.8495 41.6522 65.065C36.2045 63.1516 31.392 59.3717 28.2837 54.0087C26.0379 50.0769 24.9805 45.7632 25.0003 41.5H64.2478Z" fill="#FEFEB5"/>
<path fill-rule="evenodd" clip-rule="evenodd" d="M64.2478 41.5C62.9291 42.5555 61.7531 43.7939 60.7659 45.1833H60.0843C57.0482 45.1833 54.2599 46.6084 52.5869 49.025C49.4888 49.2108 46.6386 50.512 44.4699 52.7427C42.3916 54.821 41.1739 57.5447 41.0173 60.4629C37.2803 58.697 34.0225 55.8231 31.8038 51.9978C29.8881 48.6948 28.9872 45.0754 29.0001 41.5H64.2478Z" fill="#FCFC6B"/>
<path d="M45.6495 53.7033L45.6488 53.7041C43.6927 55.7326 42.5841 58.3687 42.5841 61.1695V61.2934V61.3136L42.5846 61.3337C42.6565 64.2814 43.8112 66.9955 45.9385 68.987C47.9291 70.9663 50.6367 72.0519 53.4665 72.0519H87.9794C93.7706 72.0519 98.5519 67.3625 98.5519 61.5413C98.5519 57.0637 95.7326 53.1462 91.6968 51.6485C89.9877 44.3589 83.3573 38.9481 75.6489 38.9481C69.8603 38.9481 64.5914 41.9491 61.6488 46.762C61.1672 46.6711 60.6901 46.6314 60.2203 46.6314C57.389 46.6314 54.8652 48.0986 53.5146 50.4111C53.51 50.4111 53.5054 50.4111 53.5008 50.4111C53.4893 50.4111 53.4778 50.4111 53.4665 50.4111C50.4862 50.4111 47.7008 51.5788 45.6495 53.7033Z" fill="#F7F5F6" stroke="#302F30" stroke-width="3.3"/>
<g opacity="0.6">
<path style="mix-blend-mode:multiply" fill-rule="evenodd" clip-rule="evenodd" d="M90.272 52.9285C89.0947 45.9268 82.8985 40.5981 75.6489 40.5981C70.0103 40.5981 64.9295 43.7582 62.451 48.7151C61.7074 48.4053 60.9639 48.2814 60.2203 48.2814C57.6179 48.2814 55.3873 49.8304 54.5198 52.123C54.148 52.0611 53.8382 52.0611 53.4665 52.0611C50.926 52.0611 48.5714 53.0525 46.8365 54.8494C45.1635 56.5843 44.2341 58.815 44.2341 61.1695V61.2934C44.2961 63.8339 45.2875 66.1265 47.0844 67.7995C48.7573 69.4724 51.0499 70.4019 53.4665 70.4019H87.9794C92.8744 70.4019 96.9019 66.4363 96.9019 61.5413C96.9019 57.4518 94.1136 53.9199 90.272 52.9285Z" fill="#F7F5F6"/>
</g>
<g style="mix-blend-mode:multiply" opacity="0.3" filter="url(#filter0_f_312_338)">
<path d="M58.1756 66.0026C59.2826 66.0026 73.572 65.2142 74.5831 64.7634C75.965 64.1473 73.1019 60.4435 74.5831 60.1352C75.252 59.996 76.2353 59.5605 76.2353 59.5605C76.2353 59.5605 78.9325 58.5676 79.3976 58.5676C79.8627 58.5676 79.6296 56.7315 79.4844 55.5876L79.3976 54.7693C79.3976 54.2302 77.7916 53.1125 77.5387 51.7517C77.3629 50.8055 77.8013 49.5306 77.7097 49.2933C77.7097 49.2933 77.6782 49.2755 77.6875 49.2732C77.6964 49.271 77.7038 49.278 77.7097 49.2933C77.7794 49.326 78.2811 49.496 78.2811 49.496C79.488 49.905 81.3972 50.5736 83.1153 51.7517C84.1429 52.4563 85.5573 53.805 85.5573 53.805C85.5573 53.805 86.5764 54.5932 86.8331 54.8498C87.4527 55.4694 89.3115 57.3283 90.5508 57.3283H93.6489L95.043 58.3135L95.3529 60.3025C95.3529 65.1975 91.3253 69.1631 86.4303 69.1631H51.3597C51.3597 69.1631 54.148 66.0026 58.1756 66.0026Z" fill="white"/>
</g>
<defs>
<filter id="filter0_f_312_338" x="47.0224" y="44.9355" width="52.6679" height="28.5649" filterUnits="userSpaceOnUse" color-interpolation-filters="sRGB">
<feFlood flood-opacity="0" result="BackgroundImageFix"/>
<feBlend mode="normal" in="SourceGraphic" in2="BackgroundImageFix" result="shape"/>
<feGaussianBlur stdDeviation="2.16867" result="effect1_foregroundBlur_312_338"/>
</filter>
</defs>
</svg>
