<svg width="104" height="101" viewBox="0 0 104 101" fill="none" xmlns="http://www.w3.org/2000/svg">
<g clip-path="url(#clip0_312_368)">
<mask id="mask0_312_368" style="mask-type:alpha" maskUnits="userSpaceOnUse" x="-4" y="21" width="82" height="42">
<path d="M78 21.5H-4V62.5H78V21.5Z" fill="#C4C4C4"/>
</mask>
<g mask="url(#mask0_312_368)">
<path d="M51.408 26.192L61.88 21.5L51.408 16.876L58.072 7.56L46.716 8.78399L47.872 -2.64L38.624 4.092L34 -6.38L29.376 4.092L20.06 -2.64L21.284 8.71599L9.86 7.56L16.592 16.808L6.12 21.5L16.592 26.124L9.86 35.44L21.216 34.216L20.06 45.64L29.308 38.908L34 49.38L38.624 38.908L47.94 45.572L46.716 34.216L58.14 35.372L51.408 26.192Z" fill="#FCFC6B" stroke="#302F30" stroke-width="3"/>
<path d="M19.2328 30.0059C23.926 38.1035 34.3327 40.8935 42.4948 36.2663C50.657 31.639 53.3777 21.1598 48.7525 12.9941C44.0593 4.89646 33.6525 2.10651 25.4904 6.73373C17.3963 11.429 14.6076 21.9083 19.2328 30.0059Z" fill="#FEFEB5"/>
<path d="M21.6236 28.6354C25.5668 35.4339 34.3369 37.8134 41.1355 33.8703C47.934 29.9271 50.3135 21.157 46.3704 14.3584C42.4272 7.55985 33.6571 5.18035 26.8585 9.12352C20.0599 13.0667 17.6804 21.8368 21.6236 28.6354Z" fill="#FCFC6B"/>
</g>
<path d="M5.5 20H62.5" stroke="#302F30" stroke-width="3" stroke-linecap="round"/>
<path d="M13.7612 45.1108L13.7603 45.1117C10.7172 48.2676 9 52.3591 9 56.7V56.9V56.9244L9.00059 56.9488C9.11263 61.5423 10.9106 65.7533 14.211 68.8394C17.2961 71.9108 21.4992 73.6 25.9 73.6H81.6C90.5864 73.6 98 66.3227 98 57.3C98 50.23 93.4681 44.0618 87.0335 41.8354C84.4768 30.1911 73.9526 21.5 61.7 21.5C52.4299 21.5 44.0102 26.3893 39.4313 34.1938C38.5454 33.988 37.6662 33.9 36.8 33.9C32.3287 33.9 28.3727 36.2859 26.3647 40.0016C26.2209 40 26.0815 40 25.9457 40H25.9C21.2669 40 16.9446 41.8137 13.7612 45.1108Z" fill="#F7F5F6" stroke="#302F30" stroke-width="4"/>
<g opacity="0.6">
<path style="mix-blend-mode:multiply" fill-rule="evenodd" clip-rule="evenodd" d="M85.3 43.4C83.4 32.1 73.4 23.5 61.7 23.5C52.6 23.5 44.4 28.6 40.4 36.6C39.2 36.1 38 35.9 36.8 35.9C32.6 35.9 29 38.4 27.6 42.1C27 42 26.5 42 25.9 42C21.8 42 18 43.6 15.2 46.5C12.5 49.3 11 52.9 11 56.7V56.9C11.1 61 12.7 64.7 15.6 67.4C18.3 70.1 22 71.6 25.9 71.6H81.6C89.5 71.6 96 65.2 96 57.3C96 50.7 91.5 45 85.3 43.4Z" fill="white"/>
</g>
<g style="mix-blend-mode:multiply" opacity="0.3" filter="url(#filter0_f_312_368)">
<path d="M33.5 64.5C35.2867 64.5 58.3482 63.2276 59.98 62.5C62.2101 61.5057 57.5895 55.5283 59.98 55.0307C61.0594 54.806 62.6465 54.1032 62.6465 54.1032C62.6465 54.1032 66.9994 52.5007 67.75 52.5007C68.5006 52.5007 68.1244 49.5374 67.8901 47.6913L67.75 46.3707C67.75 45.5007 65.158 43.6968 64.75 41.5007C64.4663 39.9736 65.1738 37.916 65.0258 37.533C65.0258 37.533 64.9751 37.5044 64.99 37.5007C65.0045 37.497 65.0163 37.5084 65.0258 37.533C65.1384 37.5858 65.9481 37.8602 65.9481 37.8602C67.8959 38.5203 70.9771 39.5993 73.75 41.5007C75.4084 42.6378 77.6911 44.8144 77.6911 44.8144C77.6911 44.8144 79.3358 46.0864 79.75 46.5007C80.75 47.5007 83.75 50.5007 85.75 50.5007H90.75L93 52.0907L93.5 55.3007C93.5 63.2007 87 69.6007 79.1 69.6007H22.5C22.5 69.6007 27 64.5 33.5 64.5Z" fill="white"/>
</g>
</g>
<defs>
<filter id="filter0_f_312_368" x="15.5" y="30.5" width="85" height="46.1007" filterUnits="userSpaceOnUse" color-interpolation-filters="sRGB">
<feFlood flood-opacity="0" result="BackgroundImageFix"/>
<feBlend mode="normal" in="SourceGraphic" in2="BackgroundImageFix" result="shape"/>
<feGaussianBlur stdDeviation="3.5" result="effect1_foregroundBlur_312_368"/>
</filter>
<clipPath id="clip0_312_368">
<rect width="104" height="100" fill="white" transform="translate(0 0.5)"/>
</clipPath>
</defs>
</svg>
