<svg width="100" height="103" viewBox="0 0 100 103" fill="none" xmlns="http://www.w3.org/2000/svg">
<g clip-path="url(#clip0_312_412)">
<mask id="mask0_312_412" style="mask-type:luminance" maskUnits="userSpaceOnUse" x="0" y="0" width="100" height="101">
<path d="M100 0.5H0V100.5H100V0.5Z" fill="white"/>
</mask>
<g mask="url(#mask0_312_412)">
<path fill-rule="evenodd" clip-rule="evenodd" d="M52.3146 19.0167L54.072 16.56L42.716 17.784L43.872 6.36L34.624 13.092L30 2.62L25.376 13.092L16.06 6.36L17.284 17.716L5.86 16.56L12.592 25.808L2.12 30.5L12.592 35.124L5.86 44.44L6.4302 44.3785C6.79888 43.9376 7.18901 43.511 7.6 43.1C11.1 39.5 15.7 37.4 20.7 37.1C23.4 33.2 27.9 30.9 32.8 30.9H33.9C38.2631 24.7593 44.9113 20.4465 52.3146 19.0167Z" fill="#FCFC6B" stroke="#302F30" stroke-width="3"/>
</g>
<path fill-rule="evenodd" clip-rule="evenodd" d="M14.867 38.3308C16.7147 37.6384 18.6745 37.2215 20.7 37.1C23.4 33.2 27.9 30.9 32.8 30.9H33.9C36.6679 27.0044 40.3553 23.8445 44.5718 21.6896C39.7966 13.8271 29.5494 11.165 21.4904 15.7337C13.6195 20.2995 10.7654 30.3348 14.867 38.3308Z" fill="#FEFEB5"/>
<path fill-rule="evenodd" clip-rule="evenodd" d="M17.5653 37.534C18.5875 37.3096 19.6347 37.1639 20.7 37.1C23.4 33.2 27.9 30.9 32.8 30.9H33.9C36.1324 27.7581 38.9631 25.0947 42.187 23.0511C38.1607 16.489 29.5536 14.2405 22.8585 18.1236C16.0937 22.0472 13.7042 30.7499 17.5653 37.534Z" fill="#FCFC6B"/>
<path d="M9.7612 45.1108L9.76031 45.1117C6.71717 48.2676 5 52.3591 5 56.7V56.9V56.9244L5.00059 56.9488C5.11263 61.5423 6.91058 65.7533 10.211 68.8394C13.2961 71.9108 17.4992 73.6 21.9 73.6H77.6C86.5864 73.6 94 66.3227 94 57.3C94 50.23 89.4681 44.0618 83.0335 41.8354C80.4768 30.1911 69.9526 21.5 57.7 21.5C48.4299 21.5 40.0102 26.3893 35.4313 34.1938C34.5454 33.988 33.6662 33.9 32.8 33.9C28.3287 33.9 24.3727 36.2859 22.3647 40.0016C22.2209 40 22.0815 40 21.9457 40H21.9C17.2669 40 12.9446 41.8137 9.7612 45.1108Z" fill="#F1EEF0" stroke="#302F30" stroke-width="4"/>
<g opacity="0.6">
<path style="mix-blend-mode:multiply" fill-rule="evenodd" clip-rule="evenodd" d="M81.3 43.4C79.4 32.1 69.4 23.5 57.7 23.5C48.6 23.5 40.4 28.6 36.4 36.6C35.2 36.1 34 35.9 32.8 35.9C28.6 35.9 25 38.4 23.6 42.1C23 42 22.5 42 21.9 42C17.8 42 14 43.6 11.2 46.5C8.5 49.3 7 52.9 7 56.7V56.9C7.1 61 8.7 64.7 11.6 67.4C14.3 70.1 18 71.6 21.9 71.6H77.6C85.5 71.6 92 65.2 92 57.3C92 50.7 87.5 45 81.3 43.4Z" fill="white"/>
</g>
<g style="mix-blend-mode:multiply" opacity="0.3" filter="url(#filter0_f_312_412)">
<path d="M29.5 64.5C31.2867 64.5 54.3482 63.2276 55.98 62.5C58.2101 61.5057 53.5895 55.5283 55.98 55.0307C57.0594 54.806 58.6465 54.1032 58.6465 54.1032C58.6465 54.1032 62.9994 52.5007 63.75 52.5007C64.5006 52.5007 64.1244 49.5374 63.8901 47.6913L63.75 46.3707C63.75 45.5007 61.158 43.6968 60.75 41.5007C60.4663 39.9736 61.1738 37.916 61.0258 37.533C61.0258 37.533 60.9751 37.5044 60.99 37.5007C61.0045 37.497 61.0163 37.5084 61.0258 37.533C61.1384 37.5858 61.9481 37.8602 61.9481 37.8602C63.8959 38.5203 66.9771 39.5993 69.75 41.5007C71.4084 42.6378 73.6911 44.8144 73.6911 44.8144C73.6911 44.8144 75.3358 46.0864 75.75 46.5007C76.75 47.5007 79.75 50.5007 81.75 50.5007H86.75L89 52.0907L89.5 55.3007C89.5 63.2007 83 69.6007 75.1 69.6007H18.5C18.5 69.6007 23 64.5 29.5 64.5Z" fill="white"/>
</g>
<path d="M33.8714 91.662L33.9468 91.6968L34.0257 91.7231C34.3672 91.8369 34.9528 92 35.5 92C37.0151 92 38.518 91.2142 39.1828 89.5817L42.6742 81.6013L42.6878 81.5702L42.7 81.5385C43.464 79.552 42.6952 77.2919 40.6286 76.3381L40.5841 76.3176L40.5385 76.3C38.552 75.536 36.2919 76.3048 35.3381 78.3714L35.3318 78.3851L35.3258 78.3988L31.8258 86.3988L31.8122 86.4299L31.8 86.4616C31.036 88.448 31.8048 90.7081 33.8714 91.662Z" fill="#302F30" stroke="white" stroke-width="3"/>
<path d="M46.8714 100.662L46.9468 100.697L47.0257 100.723C47.3672 100.837 47.9528 101 48.5 101C50.0151 101 51.518 100.214 52.1828 98.5817L55.6742 90.6013L55.6878 90.5702L55.7 90.5385C56.464 88.552 55.6952 86.2919 53.6286 85.3381L53.5841 85.3176L53.5385 85.3C51.552 84.536 49.2919 85.3048 48.3381 87.3714L48.3318 87.3851L48.3258 87.3988L44.8258 95.3988L44.8122 95.4299L44.8 95.4616C44.036 97.448 44.8048 99.7081 46.8714 100.662Z" fill="#302F30" stroke="white" stroke-width="3"/>
<path d="M61.8714 91.662L61.9468 91.6968L62.0257 91.7231C62.3672 91.8369 62.9528 92 63.5 92C65.0151 92 66.518 91.2142 67.1828 89.5817L70.6742 81.6013L70.6878 81.5702L70.7 81.5385C71.464 79.552 70.6952 77.2919 68.6286 76.3381L68.5841 76.3176L68.5385 76.3C66.552 75.536 64.2919 76.3048 63.3381 78.3714L63.3318 78.3851L63.3258 78.3988L59.8258 86.3988L59.8122 86.4299L59.8 86.4616C59.036 88.448 59.8048 90.7081 61.8714 91.662Z" fill="#302F30" stroke="white" stroke-width="3"/>
</g>
<defs>
<filter id="filter0_f_312_412" x="11.5" y="30.5" width="85" height="46.1007" filterUnits="userSpaceOnUse" color-interpolation-filters="sRGB">
<feFlood flood-opacity="0" result="BackgroundImageFix"/>
<feBlend mode="normal" in="SourceGraphic" in2="BackgroundImageFix" result="shape"/>
<feGaussianBlur stdDeviation="3.5" result="effect1_foregroundBlur_312_412"/>
</filter>
<clipPath id="clip0_312_412">
<rect width="100" height="102" fill="white" transform="translate(0 0.5)"/>
</clipPath>
</defs>
</svg>
