<svg width="106" height="109" viewBox="0 0 106 109" fill="none" xmlns="http://www.w3.org/2000/svg">
<g clip-path="url(#clip0_312_428)">
<path d="M31.5415 9.42682C33.3268 12.5512 34.4427 16.1963 34.4427 20.0646C34.4427 31.8183 24.9207 41.3402 13.1671 41.3402C12.2 41.3402 11.3073 41.2658 10.4146 41.1171C14.1342 47.5146 20.9781 51.8293 28.789 51.8293C40.5427 51.8293 50.0646 42.3073 50.0646 30.5536C50.0646 19.6927 42.0305 10.7658 31.5415 9.42682Z" fill="url(#paint0_linear_312_428)"/>
<path d="M15.7612 51.1108L15.7603 51.1117C12.7172 54.2676 11 58.3591 11 62.7V62.9V62.9244L11.0006 62.9488C11.1126 67.5423 12.9106 71.7533 16.211 74.8394C19.2961 77.9108 23.4992 79.6 27.9 79.6H83.6C92.5864 79.6 100 72.3227 100 63.3C100 56.23 95.4681 50.0618 89.0335 47.8354C86.4768 36.1911 75.9526 27.5 63.7 27.5C54.4299 27.5 46.0102 32.3893 41.4313 40.1938C40.5454 39.988 39.6662 39.9 38.8 39.9C34.3287 39.9 30.3727 42.2859 28.3647 46.0016C28.2209 46 28.0815 46 27.9457 46H27.9C23.2669 46 18.9446 47.8137 15.7612 51.1108Z" fill="#F1EEF0" stroke="#302F30" stroke-width="4"/>
<g opacity="0.6">
<path style="mix-blend-mode:multiply" fill-rule="evenodd" clip-rule="evenodd" d="M87.3 49.4C85.4 38.1 75.4 29.5 63.7 29.5C54.6 29.5 46.4 34.6 42.4 42.6C41.2 42.1 40 41.9 38.8 41.9C34.6 41.9 31 44.4 29.6 48.1C29 48 28.5 48 27.9 48C23.8 48 20 49.6 17.2 52.5C14.5 55.3 13 58.9 13 62.7V62.9C13.1 67 14.7 70.7 17.6 73.4C20.3 76.1 24 77.6 27.9 77.6H83.6C91.5 77.6 98 71.2 98 63.3C98 56.7 93.5 51 87.3 49.4Z" fill="white"/>
</g>
<g style="mix-blend-mode:multiply" opacity="0.3" filter="url(#filter0_f_312_428)">
<path d="M35.5 70.5C37.2867 70.5 60.3482 69.2276 61.98 68.5C64.2101 67.5057 59.5895 61.5283 61.98 61.0307C63.0594 60.806 64.6465 60.1032 64.6465 60.1032C64.6465 60.1032 68.9994 58.5007 69.75 58.5007C70.5006 58.5007 70.1244 55.5374 69.8901 53.6913L69.75 52.3707C69.75 51.5007 67.158 49.6968 66.75 47.5007C66.4663 45.9736 67.1738 43.916 67.0258 43.533C67.0258 43.533 66.9751 43.5044 66.99 43.5007C67.0045 43.497 67.0163 43.5084 67.0258 43.533C67.1384 43.5858 67.9481 43.8602 67.9481 43.8602C69.8959 44.5203 72.9771 45.5993 75.75 47.5007C77.4084 48.6378 79.6911 50.8144 79.6911 50.8144C79.6911 50.8144 81.3358 52.0864 81.75 52.5007C82.75 53.5007 85.75 56.5007 87.75 56.5007H92.75L95 58.0907L95.5 61.3007C95.5 69.2007 89 75.6007 81.1 75.6007H24.5C24.5 75.6007 29 70.5 35.5 70.5Z" fill="white"/>
</g>
<path d="M39.8714 97.662L39.9468 97.6968L40.0257 97.7231C40.3672 97.8369 40.9528 98 41.5 98C43.0151 98 44.518 97.2142 45.1828 95.5817L48.6742 87.6013L48.6878 87.5702L48.7 87.5385C49.464 85.552 48.6952 83.2919 46.6286 82.3381L46.5841 82.3176L46.5385 82.3C44.552 81.536 42.2919 82.3048 41.3381 84.3714L41.3318 84.3851L41.3258 84.3988L37.8258 92.3988L37.8122 92.4299L37.8 92.4616C37.036 94.448 37.8048 96.7081 39.8714 97.662Z" fill="#302F30" stroke="white" stroke-width="3"/>
<path d="M52.8714 106.662L52.9468 106.697L53.0257 106.723C53.3672 106.837 53.9528 107 54.5 107C56.0151 107 57.518 106.214 58.1828 104.582L61.6742 96.6013L61.6878 96.5702L61.7 96.5385C62.464 94.552 61.6952 92.2919 59.6286 91.3381L59.5841 91.3176L59.5385 91.3C57.552 90.536 55.2919 91.3048 54.3381 93.3714L54.3318 93.3851L54.3258 93.3988L50.8258 101.399L50.8122 101.43L50.8 101.462C50.036 103.448 50.8048 105.708 52.8714 106.662Z" fill="#302F30" stroke="white" stroke-width="3"/>
<path d="M67.8714 97.662L67.9468 97.6968L68.0257 97.7231C68.3672 97.8369 68.9528 98 69.5 98C71.0151 98 72.518 97.2142 73.1828 95.5817L76.6742 87.6013L76.6878 87.5702L76.7 87.5385C77.464 85.552 76.6952 83.2919 74.6286 82.3381L74.5841 82.3176L74.5385 82.3C72.552 81.536 70.2919 82.3048 69.3381 84.3714L69.3318 84.3851L69.3258 84.3988L65.8258 92.3988L65.8122 92.4299L65.8 92.4616C65.036 94.448 65.8048 96.7081 67.8714 97.662Z" fill="#302F30" stroke="white" stroke-width="3"/>
</g>
<defs>
<filter id="filter0_f_312_428" x="17.5" y="36.5" width="85" height="46.1007" filterUnits="userSpaceOnUse" color-interpolation-filters="sRGB">
<feFlood flood-opacity="0" result="BackgroundImageFix"/>
<feBlend mode="normal" in="SourceGraphic" in2="BackgroundImageFix" result="shape"/>
<feGaussianBlur stdDeviation="3.5" result="effect1_foregroundBlur_312_428"/>
</filter>
<linearGradient id="paint0_linear_312_428" x1="18.9138" y1="49.9636" x2="46.2563" y2="17.3782" gradientUnits="userSpaceOnUse">
<stop stop-color="#686E73"/>
<stop offset="0.9891" stop-color="#6A7075"/>
</linearGradient>
<clipPath id="clip0_312_428">
<rect width="106" height="108" fill="white" transform="translate(0 0.5)"/>
</clipPath>
</defs>
</svg>
