<svg width="100" height="103" viewBox="0 0 100 103" fill="none" xmlns="http://www.w3.org/2000/svg">
<g clip-path="url(#clip0_312_438)">
<mask id="mask0_312_438" style="mask-type:luminance" maskUnits="userSpaceOnUse" x="0" y="0" width="100" height="101">
<path d="M100 0.5H0V100.5H100V0.5Z" fill="white"/>
</mask>
<g mask="url(#mask0_312_438)">
<path fill-rule="evenodd" clip-rule="evenodd" d="M52.3146 19.0167L54.072 16.56L42.716 17.784L43.872 6.36L34.624 13.092L30 2.62L25.376 13.092L16.06 6.36L17.284 17.716L5.86 16.56L12.592 25.808L2.12 30.5L12.592 35.124L5.86 44.44L6.4302 44.3785C6.79888 43.9376 7.18901 43.511 7.6 43.1C11.1 39.5 15.7 37.4 20.7 37.1C23.4 33.2 27.9 30.9 32.8 30.9H33.9C38.2631 24.7593 44.9113 20.4465 52.3146 19.0167Z" fill="#FCFC6B" stroke="#302F30" stroke-width="3"/>
</g>
<path fill-rule="evenodd" clip-rule="evenodd" d="M14.867 38.3308C16.7147 37.6384 18.6745 37.2215 20.7 37.1C23.4 33.2 27.9 30.9 32.8 30.9H33.9C36.6679 27.0044 40.3553 23.8445 44.5718 21.6896C39.7966 13.8271 29.5494 11.165 21.4904 15.7337C13.6195 20.2995 10.7654 30.3348 14.867 38.3308Z" fill="#FEFEB5"/>
<path fill-rule="evenodd" clip-rule="evenodd" d="M17.5653 37.534C18.5875 37.3096 19.6347 37.1639 20.7 37.1C23.4 33.2 27.9 30.9 32.8 30.9H33.9C36.1324 27.7581 38.9631 25.0947 42.187 23.0511C38.1607 16.489 29.5536 14.2405 22.8585 18.1236C16.0937 22.0472 13.7042 30.7499 17.5653 37.534Z" fill="#FCFC6B"/>
<path d="M59.4972 72.3216L59.9917 73.6H61.3625H77.6C86.5864 73.6 94 66.3227 94 57.3C94 50.23 89.4681 44.0618 83.0335 41.8354C80.4768 30.1911 69.9526 21.5 57.7 21.5C48.4299 21.5 40.0102 26.3893 35.4313 34.1938C34.5454 33.988 33.6662 33.9 32.8 33.9C28.3287 33.9 24.3727 36.2859 22.3647 40.0016C22.2209 40 22.0815 40 21.9457 40H21.9C17.2669 40 12.9446 41.8137 9.7612 45.1108L9.76031 45.1117C6.71717 48.2676 5 52.3591 5 56.7V56.9V56.9244L5.00059 56.9488C5.11263 61.5424 6.91061 65.7533 10.2111 68.8395C13.2961 71.9108 17.4992 73.6 21.9 73.6H39.7718H40.961L41.529 72.5552L51.8572 53.5552L51.8609 53.5482C52.2062 52.907 52.9232 52.5 53.6 52.5C53.6545 52.5 53.7502 52.5111 53.9056 52.5889L53.9886 52.6304L54.0751 52.664C55.0948 53.0605 55.6133 54.0783 55.4429 54.888L55.4366 54.9178L55.4312 54.9479L53.2312 67.2479L52.9506 68.8171L54.4177 69.4407L58.392 71.1297C58.9509 71.3886 59.2752 71.7478 59.4972 72.3216Z" fill="#F1EEF0" stroke="#302F30" stroke-width="4"/>
<g opacity="0.6">
<path style="mix-blend-mode:multiply" fill-rule="evenodd" clip-rule="evenodd" d="M57.7 23.5C69.4 23.5 79.4 32.1 81.3 43.4C87.5 45 92 50.7 92 57.3C92 65.2 85.5 71.6 77.6 71.6H61.3625C60.9568 70.5514 60.2664 69.7847 59.2 69.3L55.2 67.6L57.4 55.3C57.8 53.4 56.6 51.5 54.8 50.8C54.4 50.6 54 50.5 53.6 50.5C52.2 50.5 50.8 51.3 50.1 52.6L39.7718 71.6H21.9C18 71.6 14.3 70.1 11.6 67.4C8.7 64.7 7.1 61 7 56.9V56.7C7 52.9 8.5 49.3 11.2 46.5C14 43.6 17.8 42 21.9 42C22.5 42 23 42 23.6 42.1C25 38.4 28.6 35.9 32.8 35.9C34 35.9 35.2 36.1 36.4 36.6C40.4 28.6 48.6 23.5 57.7 23.5Z" fill="white"/>
</g>
<g style="mix-blend-mode:multiply" opacity="0.3" filter="url(#filter0_f_312_438)">
<path fill-rule="evenodd" clip-rule="evenodd" d="M44.0731 63.6873C37.4845 64.1367 30.4547 64.5 29.5 64.5C23 64.5 18.5 69.6007 18.5 69.6007H40.8586L44.0731 63.6873ZM56.4846 60.4179L57.4 55.3C57.4512 55.0569 57.4762 54.8139 57.4771 54.5733C58.1252 54.334 58.6465 54.1032 58.6465 54.1032C58.6465 54.1032 62.9994 52.5007 63.75 52.5007C64.5006 52.5007 64.1244 49.5375 63.8901 47.6913L63.75 46.3707C63.75 46.009 63.3022 45.4861 62.7496 44.8407C61.9726 43.9334 60.9884 42.784 60.75 41.5007C60.5753 40.5605 60.7764 39.4193 60.9222 38.5915C61.0132 38.0748 61.0827 37.6802 61.0258 37.533C61.1384 37.5858 61.9481 37.8602 61.9481 37.8602C63.8959 38.5203 66.9771 39.5993 69.75 41.5007C71.4084 42.6378 73.6911 44.8144 73.6911 44.8144C73.6911 44.8144 75.3358 46.0864 75.75 46.5007C76.75 47.5007 79.75 50.5007 81.75 50.5007H86.75L89 52.0907L89.5 55.3007C89.5 63.2007 83 69.6007 75.1 69.6007H59.7581C59.5847 69.4906 59.3989 69.3904 59.2 69.3L55.2 67.6L56.1262 62.4217C56.6816 62.067 56.6884 61.3141 56.4846 60.4179ZM60.99 37.5007C61.0045 37.497 61.0163 37.5084 61.0258 37.533C61.0258 37.533 60.9751 37.5044 60.99 37.5007Z" fill="white"/>
</g>
<path d="M51.8714 100.662L51.9468 100.697L52.0257 100.723C52.3672 100.837 52.9528 101 53.5 101C55.0151 101 56.518 100.214 57.1828 98.5817L60.6742 90.6013L60.6878 90.5702L60.7 90.5385C61.464 88.552 60.6952 86.2919 58.6286 85.3381L58.5841 85.3176L58.5385 85.3C56.552 84.536 54.2919 85.3048 53.3381 87.3714L53.3318 87.3851L53.3258 87.3988L49.8258 95.3988L49.8122 95.4299L49.8 95.4616C49.036 97.448 49.8048 99.7081 51.8714 100.662Z" fill="#302F30" stroke="white" stroke-width="3"/>
<path d="M66.8714 91.662L66.9468 91.6968L67.0257 91.7231C67.3672 91.8369 67.9528 92 68.5 92C70.0151 92 71.518 91.2142 72.1828 89.5817L75.6742 81.6013L75.6878 81.5702L75.7 81.5385C76.464 79.552 75.6952 77.2919 73.6286 76.3381L73.5841 76.3176L73.5385 76.3C71.552 75.536 69.2919 76.3048 68.3381 78.3714L68.3318 78.3851L68.3258 78.3988L64.8258 86.3988L64.8122 86.4299L64.8 86.4616C64.036 88.448 64.8048 90.7081 66.8714 91.662Z" fill="#302F30" stroke="white" stroke-width="3"/>
<path d="M30.8714 91.662L30.9468 91.6968L31.0257 91.7231C31.3672 91.8369 31.9528 92 32.5 92C34.0151 92 35.518 91.2142 36.1828 89.5817L39.6742 81.6013L39.6878 81.5702L39.7 81.5385C40.464 79.552 39.6952 77.2919 37.6286 76.3381L37.5841 76.3176L37.5385 76.3C35.552 75.536 33.2919 76.3048 32.3381 78.3714L32.3318 78.3851L32.3258 78.3988L28.8258 86.3988L28.8122 86.4299L28.8 86.4616C28.036 88.448 28.8048 90.7081 30.8714 91.662Z" fill="#302F30" stroke="white" stroke-width="3"/>
<path d="M42.2216 75.8423L47.7251 78.1677L43.5657 93.9916C43.3101 94.964 43.8162 95.975 44.7478 96.3531C45.6794 96.7313 46.747 96.359 47.2414 95.4836L59.4414 73.8836C59.7201 73.3903 59.7764 72.8019 59.5964 72.2647C59.4164 71.7275 59.017 71.2918 58.4975 71.0659L53.0513 68.698L55.5677 54.8578C55.7435 53.8913 55.1913 52.9403 54.2649 52.6137C53.3384 52.2872 52.312 52.6818 51.8428 53.5448L41.2428 73.0448C40.9732 73.5408 40.9258 74.1276 41.1122 74.6605C41.2986 75.1933 41.7016 75.6226 42.2216 75.8423Z" fill="#FCFC6B" stroke="white" stroke-width="4" stroke-linejoin="round"/>
</g>
<defs>
<filter id="filter0_f_312_438" x="11.5" y="30.5" width="85" height="46.1007" filterUnits="userSpaceOnUse" color-interpolation-filters="sRGB">
<feFlood flood-opacity="0" result="BackgroundImageFix"/>
<feBlend mode="normal" in="SourceGraphic" in2="BackgroundImageFix" result="shape"/>
<feGaussianBlur stdDeviation="3.5" result="effect1_foregroundBlur_312_438"/>
</filter>
<clipPath id="clip0_312_438">
<rect width="100" height="102" fill="white" transform="translate(0 0.5)"/>
</clipPath>
</defs>
</svg>
