<svg width="100" height="104" viewBox="0 0 100 104" fill="none" xmlns="http://www.w3.org/2000/svg">
<g clip-path="url(#clip0_312_484)">
<mask id="mask0_312_484" style="mask-type:luminance" maskUnits="userSpaceOnUse" x="0" y="0" width="100" height="101">
<path d="M100 0.5H0V100.5H100V0.5Z" fill="white"/>
</mask>
<g mask="url(#mask0_312_484)">
<path fill-rule="evenodd" clip-rule="evenodd" d="M52.3146 19.0167L54.072 16.56L42.716 17.784L43.872 6.36L34.624 13.092L30 2.62L25.376 13.092L16.06 6.36L17.284 17.716L5.86 16.56L12.592 25.808L2.12 30.5L12.592 35.124L5.86 44.44L6.4302 44.3785C6.79888 43.9376 7.18901 43.511 7.6 43.1C11.1 39.5 15.7 37.4 20.7 37.1C23.4 33.2 27.9 30.9 32.8 30.9H33.9C38.2631 24.7593 44.9113 20.4465 52.3146 19.0167Z" fill="#FCFC6B" stroke="#302F30" stroke-width="3"/>
</g>
<path fill-rule="evenodd" clip-rule="evenodd" d="M14.867 38.3308C16.7147 37.6384 18.6745 37.2215 20.7 37.1C23.4 33.2 27.9 30.9 32.8 30.9H33.9C36.6679 27.0044 40.3553 23.8445 44.5718 21.6896C39.7966 13.8271 29.5494 11.165 21.4904 15.7337C13.6195 20.2995 10.7654 30.3348 14.867 38.3308Z" fill="#FEFEB5"/>
<path fill-rule="evenodd" clip-rule="evenodd" d="M17.5653 37.534C18.5875 37.3096 19.6347 37.1639 20.7 37.1C23.4 33.2 27.9 30.9 32.8 30.9H33.9C36.1324 27.7581 38.9631 25.0947 42.187 23.0511C38.1607 16.489 29.5536 14.2405 22.8585 18.1236C16.0937 22.0472 13.7042 30.7499 17.5653 37.534Z" fill="#FCFC6B"/>
<path d="M9.7612 45.1108L9.76031 45.1117C6.71717 48.2676 5 52.3591 5 56.7V56.9V56.9244L5.00059 56.9488C5.11263 61.5423 6.91058 65.7533 10.211 68.8394C13.2961 71.9108 17.4992 73.6 21.9 73.6H77.6C86.5864 73.6 94 66.3227 94 57.3C94 50.23 89.4681 44.0618 83.0335 41.8354C80.4768 30.1911 69.9526 21.5 57.7 21.5C48.4299 21.5 40.0102 26.3893 35.4313 34.1938C34.5454 33.988 33.6662 33.9 32.8 33.9C28.3287 33.9 24.3727 36.2859 22.3647 40.0016C22.2209 40 22.0815 40 21.9457 40H21.9C17.2669 40 12.9446 41.8137 9.7612 45.1108Z" fill="#F1EEF0" stroke="#302F30" stroke-width="4"/>
<g opacity="0.6">
<path style="mix-blend-mode:multiply" fill-rule="evenodd" clip-rule="evenodd" d="M81.3 43.4C79.4 32.1 69.4 23.5 57.7 23.5C48.6 23.5 40.4 28.6 36.4 36.6C35.2 36.1 34 35.9 32.8 35.9C28.6 35.9 25 38.4 23.6 42.1C23 42 22.5 42 21.9 42C17.8 42 14 43.6 11.2 46.5C8.5 49.3 7 52.9 7 56.7V56.9C7.1 61 8.7 64.7 11.6 67.4C14.3 70.1 18 71.6 21.9 71.6H77.6C85.5 71.6 92 65.2 92 57.3C92 50.7 87.5 45 81.3 43.4Z" fill="white"/>
</g>
<g style="mix-blend-mode:multiply" opacity="0.3" filter="url(#filter0_f_312_484)">
<path d="M29.5 64.5C31.2867 64.5 54.3482 63.2276 55.98 62.5C58.2101 61.5057 53.5895 55.5283 55.98 55.0307C57.0594 54.806 58.6465 54.1032 58.6465 54.1032C58.6465 54.1032 62.9994 52.5007 63.75 52.5007C64.5006 52.5007 64.1244 49.5374 63.8901 47.6913L63.75 46.3707C63.75 45.5007 61.158 43.6968 60.75 41.5007C60.4663 39.9736 61.1738 37.916 61.0258 37.533C61.0258 37.533 60.9751 37.5044 60.99 37.5007C61.0045 37.497 61.0163 37.5084 61.0258 37.533C61.1384 37.5858 61.9481 37.8602 61.9481 37.8602C63.8959 38.5203 66.9771 39.5993 69.75 41.5007C71.4084 42.6378 73.6911 44.8144 73.6911 44.8144C73.6911 44.8144 75.3358 46.0864 75.75 46.5007C76.75 47.5007 79.75 50.5007 81.75 50.5007H86.75L89 52.0907L89.5 55.3007C89.5 63.2007 83 69.6007 75.1 69.6007H18.5C18.5 69.6007 23 64.5 29.5 64.5Z" fill="white"/>
</g>
<path d="M30.4884 82.4H30.4H30.3066L30.2139 82.4115C28.8336 82.5841 27.5 83.6835 27.5 85.3C27.5 86.7586 28.7034 88.2 30.4 88.2H30.5884L30.5218 88.3143C30.0258 89.0957 30.0807 89.9856 30.277 90.5743C30.4662 91.1421 30.8505 91.7364 31.4679 92.148C32.2125 92.6444 33.0679 92.6619 33.7386 92.4632C34.3843 92.2718 35.0417 91.8282 35.4147 91.1231L35.4734 91.0225L35.5779 91.2091C36.0633 92.1395 37.0978 92.7 38.1 92.7C38.6399 92.7 39.1859 92.4841 39.4708 92.3416L39.5543 92.2998L39.6321 92.248C40.6587 91.5636 41.5356 89.9246 40.5853 88.4252L40.4592 88.2H40.7C42.1586 88.2 43.6 86.9965 43.6 85.3C43.6 83.4629 42.0032 82.5 40.7 82.5H40.4592L40.5865 82.2725C41.3817 81.005 41.0393 79.0874 39.4712 78.3571C38.098 77.6198 36.417 78.0298 35.6015 79.4491L35.5 79.623L35.3985 79.449C34.6264 78.1059 32.9299 77.543 31.5481 78.4003C30.7903 78.8069 30.3755 79.4301 30.177 80.0256C30.0228 80.4881 30.0492 80.9262 30.0901 81.2121C30.1333 81.5143 30.2141 81.7856 30.277 81.9743L30.3261 82.1216L30.4043 82.2558L30.4884 82.4Z" fill="#302F30" stroke="white" stroke-width="3"/>
<path d="M47.8714 101.662L47.9468 101.697L48.0257 101.723C48.3672 101.837 48.9528 102 49.5 102C51.0151 102 52.518 101.214 53.1828 99.5817L56.6742 91.6013L56.6878 91.5702L56.7 91.5385C57.464 89.552 56.6952 87.2919 54.6286 86.3381L54.5841 86.3176L54.5385 86.3C52.552 85.536 50.2919 86.3048 49.3381 88.3714L49.3318 88.3851L49.3258 88.3988L45.8258 96.3988L45.8122 96.4299L45.8 96.4616C45.036 98.448 45.8048 100.708 47.8714 101.662Z" fill="#302F30" stroke="white" stroke-width="3"/>
<path d="M62.8714 93.662L62.9468 93.6968L63.0257 93.7231C63.3672 93.8369 63.9528 94 64.5 94C66.0151 94 67.518 93.2142 68.1828 91.5817L71.6742 83.6013L71.6878 83.5702L71.7 83.5385C72.464 81.552 71.6952 79.2919 69.6286 78.3381L69.5841 78.3176L69.5385 78.3C67.552 77.536 65.2919 78.3048 64.3381 80.3714L64.3318 80.3851L64.3258 80.3988L60.8258 88.3988L60.8122 88.4299L60.8 88.4616C60.036 90.448 60.8048 92.7081 62.8714 93.662Z" fill="#302F30" stroke="white" stroke-width="3"/>
</g>
<defs>
<filter id="filter0_f_312_484" x="11.5" y="30.5" width="85" height="46.1007" filterUnits="userSpaceOnUse" color-interpolation-filters="sRGB">
<feFlood flood-opacity="0" result="BackgroundImageFix"/>
<feBlend mode="normal" in="SourceGraphic" in2="BackgroundImageFix" result="shape"/>
<feGaussianBlur stdDeviation="3.5" result="effect1_foregroundBlur_312_484"/>
</filter>
<clipPath id="clip0_312_484">
<rect width="100" height="103" fill="white" transform="translate(0 0.5)"/>
</clipPath>
</defs>
</svg>
