<svg width="100" height="104" viewBox="0 0 100 104" fill="none" xmlns="http://www.w3.org/2000/svg">
<g clip-path="url(#clip0_312_527)">
<mask id="mask0_312_527" style="mask-type:luminance" maskUnits="userSpaceOnUse" x="0" y="0" width="100" height="101">
<path d="M100 0.5H0V100.5H100V0.5Z" fill="white"/>
</mask>
<g mask="url(#mask0_312_527)">
<path fill-rule="evenodd" clip-rule="evenodd" d="M52.3146 19.0167L54.072 16.56L42.716 17.784L43.872 6.36L34.624 13.092L30 2.62L25.376 13.092L16.06 6.36L17.284 17.716L5.86 16.56L12.592 25.808L2.12 30.5L12.592 35.124L5.86 44.44L6.4302 44.3785C6.79888 43.9376 7.18901 43.511 7.6 43.1C11.1 39.5 15.7 37.4 20.7 37.1C23.4 33.2 27.9 30.9 32.8 30.9H33.9C38.2631 24.7593 44.9113 20.4465 52.3146 19.0167Z" fill="#FCFC6B" stroke="#302F30" stroke-width="3"/>
</g>
<path fill-rule="evenodd" clip-rule="evenodd" d="M14.867 38.3308C16.7147 37.6384 18.6745 37.2215 20.7 37.1C23.4 33.2 27.9 30.9 32.8 30.9H33.9C36.6679 27.0044 40.3553 23.8445 44.5718 21.6896C39.7966 13.8271 29.5494 11.165 21.4904 15.7337C13.6195 20.2995 10.7654 30.3348 14.867 38.3308Z" fill="#FEFEB5"/>
<path fill-rule="evenodd" clip-rule="evenodd" d="M17.5653 37.534C18.5875 37.3096 19.6347 37.1639 20.7 37.1C23.4 33.2 27.9 30.9 32.8 30.9H33.9C36.1324 27.7581 38.9631 25.0947 42.187 23.0511C38.1607 16.489 29.5536 14.2405 22.8585 18.1236C16.0937 22.0472 13.7042 30.7499 17.5653 37.534Z" fill="#FCFC6B"/>
<path d="M9.7612 45.1108L9.76031 45.1117C6.71717 48.2676 5 52.3591 5 56.7V56.9V56.9244L5.00059 56.9488C5.11263 61.5423 6.91058 65.7533 10.211 68.8394C13.2961 71.9108 17.4992 73.6 21.9 73.6H77.6C86.5864 73.6 94 66.3227 94 57.3C94 50.23 89.4681 44.0618 83.0335 41.8354C80.4768 30.1911 69.9526 21.5 57.7 21.5C48.4299 21.5 40.0102 26.3893 35.4313 34.1938C34.5454 33.988 33.6662 33.9 32.8 33.9C28.3287 33.9 24.3727 36.2859 22.3647 40.0016C22.2209 40 22.0815 40 21.9457 40H21.9C17.2669 40 12.9446 41.8137 9.7612 45.1108Z" fill="#F1EEF0" stroke="#302F30" stroke-width="4"/>
<g opacity="0.6">
<path style="mix-blend-mode:multiply" fill-rule="evenodd" clip-rule="evenodd" d="M81.3 43.4C79.4 32.1 69.4 23.5 57.7 23.5C48.6 23.5 40.4 28.6 36.4 36.6C35.2 36.1 34 35.9 32.8 35.9C28.6 35.9 25 38.4 23.6 42.1C23 42 22.5 42 21.9 42C17.8 42 14 43.6 11.2 46.5C8.5 49.3 7 52.9 7 56.7V56.9C7.1 61 8.7 64.7 11.6 67.4C14.3 70.1 18 71.6 21.9 71.6H77.6C85.5 71.6 92 65.2 92 57.3C92 50.7 87.5 45 81.3 43.4Z" fill="white"/>
</g>
<g style="mix-blend-mode:multiply" opacity="0.3" filter="url(#filter0_f_312_527)">
<path d="M29.5 64.5C31.2867 64.5 54.3482 63.2276 55.98 62.5C58.2101 61.5057 53.5895 55.5283 55.98 55.0307C57.0594 54.806 58.6465 54.1032 58.6465 54.1032C58.6465 54.1032 62.9994 52.5007 63.75 52.5007C64.5006 52.5007 64.1244 49.5374 63.8901 47.6913L63.75 46.3707C63.75 45.5007 61.158 43.6968 60.75 41.5007C60.4663 39.9736 61.1738 37.916 61.0258 37.533C61.0258 37.533 60.9751 37.5044 60.99 37.5007C61.0045 37.497 61.0163 37.5084 61.0258 37.533C61.1384 37.5858 61.9481 37.8602 61.9481 37.8602C63.8959 38.5203 66.9771 39.5993 69.75 41.5007C71.4084 42.6378 73.6911 44.8144 73.6911 44.8144C73.6911 44.8144 75.3358 46.0864 75.75 46.5007C76.75 47.5007 79.75 50.5007 81.75 50.5007H86.75L89 52.0907L89.5 55.3007C89.5 63.2007 83 69.6007 75.1 69.6007H18.5C18.5 69.6007 23 64.5 29.5 64.5Z" fill="white"/>
</g>
<path d="M31.4884 82.4H31.4H31.3066L31.2139 82.4115C29.8336 82.5841 28.5 83.6835 28.5 85.3C28.5 86.7586 29.7034 88.2 31.4 88.2H31.5884L31.5218 88.3143C31.0258 89.0957 31.0807 89.9856 31.277 90.5743C31.4662 91.1421 31.8505 91.7364 32.4679 92.148C33.2125 92.6444 34.0679 92.6619 34.7386 92.4632C35.3843 92.2718 36.0417 91.8282 36.4147 91.1231L36.4734 91.0225L36.5779 91.2091C37.0633 92.1395 38.0978 92.7 39.1 92.7C39.6399 92.7 40.1859 92.4841 40.4708 92.3416L40.5543 92.2998L40.6321 92.248C41.6587 91.5636 42.5356 89.9246 41.5853 88.4252L41.4592 88.2H41.7C43.1586 88.2 44.6 86.9965 44.6 85.3C44.6 83.4629 43.0032 82.5 41.7 82.5H41.4592L41.5865 82.2725C42.3817 81.005 42.0393 79.0874 40.4712 78.3571C39.098 77.6198 37.417 78.0298 36.6015 79.4491L36.5 79.623L36.3985 79.449C35.6264 78.1059 33.9299 77.543 32.5481 78.4003C31.7903 78.8069 31.3755 79.4301 31.177 80.0256C31.0228 80.4881 31.0492 80.9262 31.0901 81.2121C31.1333 81.5143 31.2141 81.7856 31.277 81.9743L31.3261 82.1216L31.4043 82.2558L31.4884 82.4Z" fill="#302F30" stroke="white" stroke-width="3"/>
<path d="M59.4884 82.4H59.4H59.3066L59.2139 82.4115C57.8336 82.5841 56.5 83.6835 56.5 85.3C56.5 86.7586 57.7034 88.2 59.4 88.2H59.5884L59.5218 88.3143C59.0258 89.0957 59.0807 89.9856 59.277 90.5743C59.4662 91.1421 59.8505 91.7364 60.4679 92.148C61.2125 92.6444 62.0679 92.6619 62.7386 92.4632C63.3843 92.2718 64.0417 91.8282 64.4147 91.1231L64.4734 91.0225L64.5779 91.2091C65.0633 92.1395 66.0978 92.7 67.1 92.7C67.6399 92.7 68.1859 92.4841 68.4708 92.3416L68.5543 92.2998L68.6321 92.248C69.6587 91.5636 70.5356 89.9246 69.5853 88.4252L69.4592 88.2H69.7C71.1586 88.2 72.6 86.9965 72.6 85.3C72.6 83.4629 71.0032 82.5 69.7 82.5H69.4592L69.5865 82.2725C70.3817 81.005 70.0393 79.0874 68.4712 78.3571C67.098 77.6198 65.417 78.0298 64.6015 79.4491L64.5 79.623L64.3985 79.449C63.6264 78.1059 61.9299 77.543 60.5481 78.4003C59.7903 78.8069 59.3755 79.4301 59.177 80.0256C59.0228 80.4881 59.0492 80.9262 59.0901 81.2121C59.1333 81.5143 59.2141 81.7856 59.277 81.9743L59.3261 82.1216L59.4043 82.2558L59.4884 82.4Z" fill="#302F30" stroke="white" stroke-width="3"/>
<path d="M45.4884 91.4H45.4H45.3066L45.2139 91.4115C43.8336 91.5841 42.5 92.6835 42.5 94.3C42.5 95.7586 43.7034 97.2 45.4 97.2H45.5884L45.5218 97.3143C45.0258 98.0957 45.0807 98.9856 45.277 99.5743C45.4662 100.142 45.8505 100.736 46.4679 101.148C47.2125 101.644 48.0679 101.662 48.7386 101.463C49.3843 101.272 50.0417 100.828 50.4147 100.123L50.4734 100.023L50.5779 100.209C51.0633 101.14 52.0978 101.7 53.1 101.7C53.6399 101.7 54.1859 101.484 54.4708 101.342L54.5543 101.3L54.6321 101.248C55.6587 100.564 56.5356 98.9246 55.5853 97.4252L55.4592 97.2H55.7C57.1586 97.2 58.6 95.9965 58.6 94.3C58.6 92.4629 57.0032 91.5 55.7 91.5H55.4592L55.5865 91.2725C56.3817 90.005 56.0393 88.0874 54.4712 87.3571C53.098 86.6198 51.417 87.0298 50.6015 88.4491L50.5 88.623L50.3985 88.449C49.6264 87.1059 47.9299 86.543 46.5481 87.4003C45.7903 87.8069 45.3755 88.4301 45.177 89.0256C45.0228 89.4881 45.0492 89.9262 45.0901 90.2121C45.1333 90.5143 45.2141 90.7856 45.277 90.9743L45.3261 91.1216L45.4043 91.2558L45.4884 91.4Z" fill="#302F30" stroke="white" stroke-width="3"/>
</g>
<defs>
<filter id="filter0_f_312_527" x="11.5" y="30.5" width="85" height="46.1007" filterUnits="userSpaceOnUse" color-interpolation-filters="sRGB">
<feFlood flood-opacity="0" result="BackgroundImageFix"/>
<feBlend mode="normal" in="SourceGraphic" in2="BackgroundImageFix" result="shape"/>
<feGaussianBlur stdDeviation="3.5" result="effect1_foregroundBlur_312_527"/>
</filter>
<clipPath id="clip0_312_527">
<rect width="100" height="103" fill="white" transform="translate(0 0.5)"/>
</clipPath>
</defs>
</svg>
