<svg width="106" height="110" viewBox="0 0 106 110" fill="none" xmlns="http://www.w3.org/2000/svg">
<g clip-path="url(#clip0_312_556)">
<path d="M31.5415 9.42688C33.3268 12.5513 34.4427 16.1964 34.4427 20.0647C34.4427 31.8183 24.9207 41.3403 13.1671 41.3403C12.2 41.3403 11.3073 41.2659 10.4146 41.1171C14.1342 47.5147 20.9781 51.8293 28.789 51.8293C40.5427 51.8293 50.0646 42.3074 50.0646 30.5537C50.0646 19.6927 42.0305 10.7659 31.5415 9.42688Z" fill="url(#paint0_linear_312_556)"/>
<path d="M15.7612 51.1108L15.7603 51.1117C12.7172 54.2676 11 58.3591 11 62.7V62.9V62.9244L11.0006 62.9488C11.1126 67.5423 12.9106 71.7533 16.211 74.8394C19.2961 77.9108 23.4992 79.6 27.9 79.6H83.6C92.5864 79.6 100 72.3227 100 63.3C100 56.23 95.4681 50.0618 89.0335 47.8354C86.4768 36.1911 75.9526 27.5 63.7 27.5C54.4299 27.5 46.0102 32.3893 41.4313 40.1938C40.5454 39.988 39.6662 39.9 38.8 39.9C34.3287 39.9 30.3727 42.2859 28.3647 46.0016C28.2209 46 28.0815 46 27.9457 46H27.9C23.2669 46 18.9446 47.8137 15.7612 51.1108Z" fill="#F1EEF0" stroke="#302F30" stroke-width="4"/>
<g opacity="0.6">
<path style="mix-blend-mode:multiply" fill-rule="evenodd" clip-rule="evenodd" d="M87.3 49.4C85.4 38.1 75.4 29.5 63.7 29.5C54.6 29.5 46.4 34.6 42.4 42.6C41.2 42.1 40 41.9 38.8 41.9C34.6 41.9 31 44.4 29.6 48.1C29 48 28.5 48 27.9 48C23.8 48 20 49.6 17.2 52.5C14.5 55.3 13 58.9 13 62.7V62.9C13.1 67 14.7 70.7 17.6 73.4C20.3 76.1 24 77.6 27.9 77.6H83.6C91.5 77.6 98 71.2 98 63.3C98 56.7 93.5 51 87.3 49.4Z" fill="white"/>
</g>
<g style="mix-blend-mode:multiply" opacity="0.3" filter="url(#filter0_f_312_556)">
<path d="M35.5 70.5C37.2867 70.5 60.3482 69.2276 61.98 68.5C64.2101 67.5057 59.5895 61.5283 61.98 61.0307C63.0594 60.806 64.6465 60.1032 64.6465 60.1032C64.6465 60.1032 68.9994 58.5007 69.75 58.5007C70.5006 58.5007 70.1244 55.5374 69.8901 53.6913L69.75 52.3707C69.75 51.5007 67.158 49.6968 66.75 47.5007C66.4663 45.9736 67.1738 43.916 67.0258 43.533C67.0258 43.533 66.9751 43.5044 66.99 43.5007C67.0045 43.497 67.0163 43.5084 67.0258 43.533C67.1384 43.5858 67.9481 43.8602 67.9481 43.8602C69.8959 44.5203 72.9771 45.5993 75.75 47.5007C77.4084 48.6378 79.6911 50.8144 79.6911 50.8144C79.6911 50.8144 81.3358 52.0864 81.75 52.5007C82.75 53.5007 85.75 56.5007 87.75 56.5007H92.75L95 58.0907L95.5 61.3007C95.5 69.2007 89 75.6007 81.1 75.6007H24.5C24.5 75.6007 29 70.5 35.5 70.5Z" fill="white"/>
</g>
<path d="M37.4884 88.4H37.4H37.3066L37.2139 88.4115C35.8336 88.5841 34.5 89.6835 34.5 91.3C34.5 92.7586 35.7034 94.2 37.4 94.2H37.5884L37.5218 94.3143C37.0258 95.0957 37.0807 95.9856 37.277 96.5743C37.4662 97.1421 37.8505 97.7364 38.4679 98.148C39.2125 98.6444 40.0679 98.6619 40.7386 98.4632C41.3843 98.2718 42.0417 97.8282 42.4147 97.1231L42.4734 97.0225L42.5779 97.2091C43.0633 98.1395 44.0978 98.7 45.1 98.7C45.6399 98.7 46.1859 98.4841 46.4708 98.3416L46.5543 98.2998L46.6321 98.248C47.6587 97.5636 48.5356 95.9246 47.5853 94.4252L47.4592 94.2H47.7C49.1586 94.2 50.6 92.9965 50.6 91.3C50.6 89.4629 49.0032 88.5 47.7 88.5H47.4592L47.5865 88.2725C48.3817 87.005 48.0393 85.0874 46.4712 84.3571C45.098 83.6198 43.417 84.0298 42.6015 85.4491L42.5 85.623L42.3985 85.449C41.6264 84.1059 39.9299 83.543 38.5481 84.4003C37.7903 84.8069 37.3755 85.4301 37.177 86.0256C37.0228 86.4881 37.0492 86.9262 37.0901 87.2121C37.1333 87.5143 37.2141 87.7856 37.277 87.9743L37.3261 88.1216L37.4043 88.2558L37.4884 88.4Z" fill="#302F30" stroke="white" stroke-width="3"/>
<path d="M65.4884 88.4H65.4H65.3066L65.2139 88.4115C63.8336 88.5841 62.5 89.6835 62.5 91.3C62.5 92.7586 63.7034 94.2 65.4 94.2H65.5884L65.5218 94.3143C65.0258 95.0957 65.0807 95.9856 65.277 96.5743C65.4662 97.1421 65.8505 97.7364 66.4679 98.148C67.2125 98.6444 68.0679 98.6619 68.7386 98.4632C69.3843 98.2718 70.0417 97.8282 70.4147 97.1231L70.4734 97.0225L70.5779 97.2091C71.0633 98.1395 72.0978 98.7 73.1 98.7C73.6399 98.7 74.1859 98.4841 74.4708 98.3416L74.5543 98.2998L74.6321 98.248C75.6587 97.5636 76.5356 95.9246 75.5853 94.4252L75.4592 94.2H75.7C77.1586 94.2 78.6 92.9965 78.6 91.3C78.6 89.4629 77.0032 88.5 75.7 88.5H75.4592L75.5865 88.2725C76.3817 87.005 76.0393 85.0874 74.4712 84.3571C73.098 83.6198 71.417 84.0298 70.6015 85.4491L70.5 85.623L70.3985 85.449C69.6264 84.1059 67.9299 83.543 66.5481 84.4003C65.7903 84.8069 65.3755 85.4301 65.177 86.0256C65.0228 86.4881 65.0492 86.9262 65.0901 87.2121C65.1333 87.5143 65.2141 87.7856 65.277 87.9743L65.3261 88.1216L65.4043 88.2558L65.4884 88.4Z" fill="#302F30" stroke="white" stroke-width="3"/>
<path d="M51.4884 97.4H51.4H51.3066L51.2139 97.4115C49.8336 97.5841 48.5 98.6835 48.5 100.3C48.5 101.759 49.7034 103.2 51.4 103.2H51.5884L51.5218 103.314C51.0258 104.096 51.0807 104.986 51.277 105.574C51.4662 106.142 51.8505 106.736 52.4679 107.148C53.2125 107.644 54.0679 107.662 54.7386 107.463C55.3843 107.272 56.0417 106.828 56.4147 106.123L56.4734 106.022L56.5779 106.209C57.0633 107.14 58.0978 107.7 59.1 107.7C59.6399 107.7 60.1859 107.484 60.4708 107.342L60.5543 107.3L60.6321 107.248C61.6587 106.564 62.5356 104.925 61.5853 103.425L61.4592 103.2H61.7C63.1586 103.2 64.6 101.997 64.6 100.3C64.6 98.4629 63.0032 97.5 61.7 97.5H61.4592L61.5865 97.2725C62.3817 96.005 62.0393 94.0874 60.4712 93.3571C59.098 92.6198 57.417 93.0298 56.6015 94.4491L56.5 94.623L56.3985 94.449C55.6264 93.1059 53.9299 92.543 52.5481 93.4003C51.7903 93.8069 51.3755 94.4301 51.177 95.0256C51.0228 95.4881 51.0492 95.9262 51.0901 96.2121C51.1333 96.5143 51.2141 96.7856 51.277 96.9743L51.3261 97.1216L51.4043 97.2558L51.4884 97.4Z" fill="#302F30" stroke="white" stroke-width="3"/>
</g>
<defs>
<filter id="filter0_f_312_556" x="17.5" y="36.5" width="85" height="46.1007" filterUnits="userSpaceOnUse" color-interpolation-filters="sRGB">
<feFlood flood-opacity="0" result="BackgroundImageFix"/>
<feBlend mode="normal" in="SourceGraphic" in2="BackgroundImageFix" result="shape"/>
<feGaussianBlur stdDeviation="3.5" result="effect1_foregroundBlur_312_556"/>
</filter>
<linearGradient id="paint0_linear_312_556" x1="18.9138" y1="49.9637" x2="46.2563" y2="17.3782" gradientUnits="userSpaceOnUse">
<stop stop-color="#686E73"/>
<stop offset="0.9891" stop-color="#6A7075"/>
</linearGradient>
<clipPath id="clip0_312_556">
<rect width="106" height="109" fill="white" transform="translate(0 0.5)"/>
</clipPath>
</defs>
</svg>
