<svg width="100" height="103" viewBox="0 0 100 103" fill="none" xmlns="http://www.w3.org/2000/svg">
<g clip-path="url(#clip0_312_587)">
<path d="M9.7612 45.1108L9.76031 45.1117C6.71717 48.2676 5 52.3591 5 56.7V56.9V56.9244L5.00059 56.9488C5.11263 61.5423 6.91058 65.7533 10.211 68.8394C13.2961 71.9108 17.4992 73.6 21.9 73.6H77.6C86.5864 73.6 94 66.3227 94 57.3C94 50.23 89.4681 44.0618 83.0335 41.8354C80.4768 30.1911 69.9526 21.5 57.7 21.5C48.4299 21.5 40.0102 26.3893 35.4313 34.1938C34.5454 33.988 33.6662 33.9 32.8 33.9C28.3287 33.9 24.3727 36.2859 22.3647 40.0016C22.2209 40 22.0815 40 21.9457 40H21.9C17.2669 40 12.9446 41.8137 9.7612 45.1108Z" fill="#E3DCE2" stroke="#302F30" stroke-width="4"/>
<g opacity="0.6">
<path style="mix-blend-mode:multiply" fill-rule="evenodd" clip-rule="evenodd" d="M81.3 43.4C79.4 32.1 69.4 23.5 57.7 23.5C48.6 23.5 40.4 28.6 36.4 36.6C35.2 36.1 34 35.9 32.8 35.9C28.6 35.9 25 38.4 23.6 42.1C23 42 22.5 42 21.9 42C17.8 42 14 43.6 11.2 46.5C8.5 49.3 7 52.9 7 56.7V56.9C7.1 61 8.7 64.7 11.6 67.4C14.3 70.1 18 71.6 21.9 71.6H77.6C85.5 71.6 92 65.2 92 57.3C92 50.7 87.5 45 81.3 43.4Z" fill="white"/>
</g>
<g style="mix-blend-mode:multiply" opacity="0.3" filter="url(#filter0_f_312_587)">
<path d="M29.5 64.5C31.2867 64.5 54.3482 63.2276 55.98 62.5C58.2101 61.5057 53.5895 55.5283 55.98 55.0307C57.0594 54.806 58.6465 54.1032 58.6465 54.1032C58.6465 54.1032 62.9994 52.5007 63.75 52.5007C64.5006 52.5007 64.1244 49.5374 63.8901 47.6913L63.75 46.3707C63.75 45.5007 61.158 43.6968 60.75 41.5007C60.4663 39.9736 61.1738 37.916 61.0258 37.533C61.0258 37.533 60.9751 37.5044 60.99 37.5007C61.0045 37.497 61.0163 37.5084 61.0258 37.533C61.1384 37.5858 61.9481 37.8602 61.9481 37.8602C63.8959 38.5203 66.9771 39.5993 69.75 41.5007C71.4084 42.6378 73.6911 44.8144 73.6911 44.8144C73.6911 44.8144 75.3358 46.0864 75.75 46.5007C76.75 47.5007 79.75 50.5007 81.75 50.5007H86.75L89 52.0907L89.5 55.3007C89.5 63.2007 83 69.6007 75.1 69.6007H18.5C18.5 69.6007 23 64.5 29.5 64.5Z" fill="white"/>
</g>
<path d="M19.8714 91.662L19.9468 91.6968L20.0257 91.7231C20.3672 91.8369 20.9528 92 21.5 92C23.0151 92 24.518 91.2142 25.1828 89.5817L28.6742 81.6013L28.6878 81.5702L28.7 81.5385C29.464 79.552 28.6952 77.2919 26.6286 76.3381L26.5841 76.3176L26.5385 76.3C24.552 75.536 22.2919 76.3048 21.3381 78.3714L21.3318 78.3851L21.3258 78.3988L17.8258 86.3988L17.8122 86.4299L17.8 86.4616C17.036 88.448 17.8048 90.7081 19.8714 91.662Z" fill="#302F30" stroke="white" stroke-width="3"/>
<path d="M33.8714 100.662L33.9468 100.697L34.0257 100.723C34.3672 100.837 34.9528 101 35.5 101C37.0151 101 38.518 100.214 39.1828 98.5817L42.6742 90.6013L42.6878 90.5702L42.7 90.5385C43.464 88.552 42.6952 86.2919 40.6286 85.3381L40.5841 85.3176L40.5385 85.3C38.552 84.536 36.2919 85.3048 35.3381 87.3714L35.3318 87.3851L35.3258 87.3988L31.8258 95.3988L31.8122 95.4299L31.8 95.4616C31.036 97.448 31.8048 99.7081 33.8714 100.662Z" fill="#302F30" stroke="white" stroke-width="3"/>
<path d="M75.8714 100.662L75.9468 100.697L76.0257 100.723C76.3672 100.837 76.9528 101 77.5 101C79.0151 101 80.518 100.214 81.1828 98.5817L84.6742 90.6013L84.6878 90.5702L84.7 90.5385C85.464 88.552 84.6952 86.2919 82.6286 85.3381L82.5841 85.3176L82.5385 85.3C80.552 84.536 78.2919 85.3048 77.3381 87.3714L77.3318 87.3851L77.3258 87.3988L73.8258 95.3988L73.8122 95.4299L73.8 95.4616C73.036 97.448 73.8048 99.7081 75.8714 100.662Z" fill="#302F30" stroke="white" stroke-width="3"/>
<path d="M61.8714 91.662L61.9468 91.6968L62.0257 91.7231C62.3672 91.8369 62.9528 92 63.5 92C65.0151 92 66.518 91.2142 67.1828 89.5817L70.6742 81.6013L70.6878 81.5702L70.7 81.5385C71.464 79.552 70.6952 77.2919 68.6286 76.3381L68.5841 76.3176L68.5385 76.3C66.552 75.536 64.2919 76.3048 63.3381 78.3714L63.3318 78.3851L63.3258 78.3988L59.8258 86.3988L59.8122 86.4299L59.8 86.4616C59.036 88.448 59.8048 90.7081 61.8714 91.662Z" fill="#302F30" stroke="white" stroke-width="3"/>
<path d="M48.8714 91.662L48.9468 91.6968L49.0257 91.7231C49.3672 91.8369 49.9528 92 50.5 92C52.0151 92 53.518 91.2142 54.1828 89.5817L57.6742 81.6013L57.6878 81.5702L57.7 81.5385C58.464 79.552 57.6952 77.2919 55.6286 76.3381L55.5841 76.3176L55.5385 76.3C53.552 75.536 51.2919 76.3048 50.3381 78.3714L50.3318 78.3851L50.3258 78.3988L46.8258 86.3988L46.8122 86.4299L46.8 86.4616C46.036 88.448 46.8048 90.7081 48.8714 91.662Z" fill="#302F30" stroke="white" stroke-width="3"/>
</g>
<defs>
<filter id="filter0_f_312_587" x="11.5" y="30.5" width="85" height="46.1007" filterUnits="userSpaceOnUse" color-interpolation-filters="sRGB">
<feFlood flood-opacity="0" result="BackgroundImageFix"/>
<feBlend mode="normal" in="SourceGraphic" in2="BackgroundImageFix" result="shape"/>
<feGaussianBlur stdDeviation="3.5" result="effect1_foregroundBlur_312_587"/>
</filter>
<clipPath id="clip0_312_587">
<rect width="100" height="102" fill="white" transform="translate(0 0.5)"/>
</clipPath>
</defs>
</svg>
