<svg width="100" height="103" viewBox="0 0 100 103" fill="none" xmlns="http://www.w3.org/2000/svg">
<g clip-path="url(#clip0_312_575)">
<path d="M59.4972 72.3216L59.9917 73.6H61.3625H77.6C86.5864 73.6 94 66.3227 94 57.3C94 50.23 89.4681 44.0618 83.0335 41.8354C80.4768 30.1911 69.9526 21.5 57.7 21.5C48.4299 21.5 40.0102 26.3893 35.4313 34.1938C34.5454 33.988 33.6662 33.9 32.8 33.9C28.3287 33.9 24.3727 36.2859 22.3647 40.0016C22.2209 40 22.0815 40 21.9457 40H21.9C17.2669 40 12.9446 41.8137 9.7612 45.1108L9.76031 45.1117C6.71717 48.2676 5 52.3591 5 56.7V56.9V56.9244L5.00059 56.9488C5.11263 61.5424 6.91061 65.7533 10.2111 68.8395C13.2961 71.9108 17.4992 73.6 21.9 73.6H39.7718H40.961L41.529 72.5552L51.8572 53.5552L51.8609 53.5482C52.2062 52.907 52.9232 52.5 53.6 52.5C53.6545 52.5 53.7502 52.5111 53.9056 52.5889L53.9886 52.6304L54.0751 52.664C55.0948 53.0605 55.6133 54.0783 55.4429 54.888L55.4366 54.9178L55.4312 54.9479L53.2312 67.2479L52.9506 68.8171L54.4177 69.4407L58.392 71.1297C58.9509 71.3886 59.2752 71.7478 59.4972 72.3216Z" fill="#E3DCE2" stroke="#302F30" stroke-width="4"/>
<g opacity="0.6">
<path style="mix-blend-mode:multiply" fill-rule="evenodd" clip-rule="evenodd" d="M57.7 23.5C69.4 23.5 79.4 32.1 81.3 43.4C87.5 45 92 50.7 92 57.3C92 65.2 85.5 71.6 77.6 71.6H61.3625C60.9568 70.5514 60.2664 69.7847 59.2 69.3L55.2 67.6L57.4 55.3C57.8 53.4 56.6 51.5 54.8 50.8C54.4 50.6 54 50.5 53.6 50.5C52.2 50.5 50.8 51.3 50.1 52.6L39.7718 71.6H21.9C18 71.6 14.3 70.1 11.6 67.4C8.7 64.7 7.1 61 7 56.9V56.7C7 52.9 8.5 49.3 11.2 46.5C14 43.6 17.8 42 21.9 42C22.5 42 23 42 23.6 42.1C25 38.4 28.6 35.9 32.8 35.9C34 35.9 35.2 36.1 36.4 36.6C40.4 28.6 48.6 23.5 57.7 23.5Z" fill="white"/>
</g>
<g style="mix-blend-mode:multiply" opacity="0.3" filter="url(#filter0_f_312_575)">
<path fill-rule="evenodd" clip-rule="evenodd" d="M44.0731 63.6873C37.4845 64.1367 30.4547 64.5 29.5 64.5C23 64.5 18.5 69.6007 18.5 69.6007H40.8586L44.0731 63.6873ZM56.4846 60.4179L57.4 55.3C57.4512 55.0569 57.4762 54.8139 57.4771 54.5733C58.1252 54.334 58.6465 54.1032 58.6465 54.1032C58.6465 54.1032 62.9994 52.5007 63.75 52.5007C64.5006 52.5007 64.1244 49.5375 63.8901 47.6913L63.75 46.3707C63.75 46.009 63.3022 45.4861 62.7496 44.8407C61.9726 43.9334 60.9884 42.784 60.75 41.5007C60.5753 40.5605 60.7764 39.4193 60.9222 38.5915C61.0132 38.0748 61.0827 37.6802 61.0258 37.533C61.1384 37.5858 61.9481 37.8602 61.9481 37.8602C63.8959 38.5203 66.9771 39.5993 69.75 41.5007C71.4084 42.6378 73.6911 44.8144 73.6911 44.8144C73.6911 44.8144 75.3358 46.0864 75.75 46.5007C76.75 47.5007 79.75 50.5007 81.75 50.5007H86.75L89 52.0907L89.5 55.3007C89.5 63.2007 83 69.6007 75.1 69.6007H59.7581C59.5847 69.4906 59.3989 69.3904 59.2 69.3L55.2 67.6L56.1262 62.4217C56.6816 62.067 56.6884 61.3141 56.4846 60.4179ZM60.99 37.5007C61.0045 37.497 61.0163 37.5084 61.0258 37.533C61.0258 37.533 60.9751 37.5044 60.99 37.5007Z" fill="white"/>
</g>
<path d="M83.8714 100.662L83.9468 100.697L84.0257 100.723C84.3672 100.837 84.9528 101 85.5 101C87.0151 101 88.518 100.214 89.1828 98.5817L92.6742 90.6013L92.6878 90.5702L92.7 90.5385C93.464 88.552 92.6952 86.2919 90.6286 85.3381L90.5841 85.3176L90.5385 85.3C88.552 84.536 86.2919 85.3048 85.3381 87.3714L85.3318 87.3851L85.3258 87.3988L81.8258 95.3988L81.8122 95.4299L81.8 95.4616C81.036 97.448 81.8048 99.7081 83.8714 100.662Z" fill="#302F30" stroke="white" stroke-width="3"/>
<path d="M30.8714 100.662L30.9468 100.697L31.0257 100.723C31.3672 100.837 31.9528 101 32.5 101C34.0151 101 35.518 100.214 36.1828 98.5817L39.6742 90.6013L39.6878 90.5702L39.7 90.5385C40.464 88.552 39.6952 86.2919 37.6286 85.3381L37.5841 85.3176L37.5385 85.3C35.552 84.536 33.2919 85.3048 32.3381 87.3714L32.3318 87.3851L32.3258 87.3988L28.8258 95.3988L28.8122 95.4299L28.8 95.4616C28.036 97.448 28.8048 99.7081 30.8714 100.662Z" fill="#302F30" stroke="white" stroke-width="3"/>
<path d="M57.8714 91.662L57.9468 91.6968L58.0257 91.7231C58.3672 91.8369 58.9528 92 59.5 92C61.0151 92 62.518 91.2142 63.1828 89.5817L66.6742 81.6013L66.6878 81.5702L66.7 81.5385C67.464 79.552 66.6952 77.2919 64.6286 76.3381L64.5841 76.3176L64.5385 76.3C62.552 75.536 60.2919 76.3048 59.3381 78.3714L59.3318 78.3851L59.3258 78.3988L55.8258 86.3988L55.8122 86.4299L55.8 86.4616C55.036 88.448 55.8048 90.7081 57.8714 91.662Z" fill="#302F30" stroke="white" stroke-width="3"/>
<path d="M69.8714 91.662L69.9468 91.6968L70.0257 91.7231C70.3672 91.8369 70.9528 92 71.5 92C73.0151 92 74.518 91.2142 75.1828 89.5817L78.6742 81.6013L78.6878 81.5702L78.7 81.5385C79.464 79.552 78.6952 77.2919 76.6286 76.3381L76.5841 76.3176L76.5385 76.3C74.552 75.536 72.2919 76.3048 71.3381 78.3714L71.3318 78.3851L71.3258 78.3988L67.8258 86.3988L67.8122 86.4299L67.8 86.4616C67.036 88.448 67.8048 90.7081 69.8714 91.662Z" fill="#302F30" stroke="white" stroke-width="3"/>
<path d="M19.8714 91.662L19.9468 91.6968L20.0257 91.7231C20.3672 91.8369 20.9528 92 21.5 92C23.0151 92 24.518 91.2142 25.1828 89.5817L28.6742 81.6013L28.6878 81.5702L28.7 81.5385C29.464 79.552 28.6952 77.2919 26.6286 76.3381L26.5841 76.3176L26.5385 76.3C24.552 75.536 22.2919 76.3048 21.3381 78.3714L21.3318 78.3851L21.3258 78.3988L17.8258 86.3988L17.8122 86.4299L17.8 86.4616C17.036 88.448 17.8048 90.7081 19.8714 91.662Z" fill="#302F30" stroke="white" stroke-width="3"/>
<path d="M42.2216 75.8423L47.7251 78.1677L43.5657 93.9916C43.3101 94.964 43.8162 95.975 44.7478 96.3531C45.6794 96.7313 46.747 96.359 47.2414 95.4836L59.4414 73.8836C59.7201 73.3903 59.7764 72.8019 59.5964 72.2647C59.4164 71.7275 59.017 71.2918 58.4975 71.0659L53.0513 68.698L55.5677 54.8578C55.7435 53.8913 55.1913 52.9403 54.2649 52.6137C53.3384 52.2872 52.312 52.6818 51.8428 53.5448L41.2428 73.0448C40.9732 73.5408 40.9258 74.1276 41.1122 74.6605C41.2986 75.1933 41.7016 75.6226 42.2216 75.8423Z" fill="#FCFC6B" stroke="white" stroke-width="4" stroke-linejoin="round"/>
</g>
<defs>
<filter id="filter0_f_312_575" x="11.5" y="30.5" width="85" height="46.1007" filterUnits="userSpaceOnUse" color-interpolation-filters="sRGB">
<feFlood flood-opacity="0" result="BackgroundImageFix"/>
<feBlend mode="normal" in="SourceGraphic" in2="BackgroundImageFix" result="shape"/>
<feGaussianBlur stdDeviation="3.5" result="effect1_foregroundBlur_312_575"/>
</filter>
<clipPath id="clip0_312_575">
<rect width="100" height="102" fill="white" transform="translate(0 0.5)"/>
</clipPath>
</defs>
</svg>
