<svg width="100" height="101" viewBox="0 0 100 101" fill="none" xmlns="http://www.w3.org/2000/svg">
<g clip-path="url(#clip0_312_643)">
<path d="M9.7612 45.1108L9.76031 45.1117C6.71717 48.2676 5 52.3591 5 56.7V56.9V56.9244L5.00059 56.9488C5.11263 61.5423 6.91058 65.7533 10.211 68.8394C13.2961 71.9108 17.4992 73.6 21.9 73.6H77.6C86.5864 73.6 94 66.3227 94 57.3C94 50.23 89.4681 44.0618 83.0335 41.8354C80.4768 30.1911 69.9526 21.5 57.7 21.5C48.4299 21.5 40.0102 26.3893 35.4313 34.1938C34.5454 33.988 33.6662 33.9 32.8 33.9C28.3287 33.9 24.3727 36.2859 22.3647 40.0016C22.2209 40 22.0815 40 21.9457 40H21.9C17.2669 40 12.9446 41.8137 9.7612 45.1108Z" fill="#F7F5F6" stroke="#302F30" stroke-width="4"/>
<g opacity="0.6">
<path style="mix-blend-mode:multiply" fill-rule="evenodd" clip-rule="evenodd" d="M81.3 43.4C79.4 32.1 69.4 23.5 57.7 23.5C48.6 23.5 40.4 28.6 36.4 36.6C35.2 36.1 34 35.9 32.8 35.9C28.6 35.9 25 38.4 23.6 42.1C23 42 22.5 42 21.9 42C17.8 42 14 43.6 11.2 46.5C8.5 49.3 7 52.9 7 56.7V56.9C7.1 61 8.7 64.7 11.6 67.4C14.3 70.1 18 71.6 21.9 71.6H77.6C85.5 71.6 92 65.2 92 57.3C92 50.7 87.5 45 81.3 43.4Z" fill="white"/>
</g>
<g style="mix-blend-mode:multiply" opacity="0.3" filter="url(#filter0_f_312_643)">
<path d="M29.5 64.5C31.2867 64.5 54.3482 63.2276 55.98 62.5C58.2101 61.5057 53.5895 55.5283 55.98 55.0307C57.0594 54.806 58.6465 54.1032 58.6465 54.1032C58.6465 54.1032 62.9994 52.5007 63.75 52.5007C64.5006 52.5007 64.1244 49.5374 63.8901 47.6913L63.75 46.3707C63.75 45.5007 61.158 43.6968 60.75 41.5007C60.4663 39.9736 61.1738 37.916 61.0258 37.533C61.0258 37.533 60.9751 37.5044 60.99 37.5007C61.0045 37.497 61.0163 37.5084 61.0258 37.533C61.1384 37.5858 61.9481 37.8602 61.9481 37.8602C63.8959 38.5203 66.9771 39.5993 69.75 41.5007C71.4084 42.6378 73.6911 44.8144 73.6911 44.8144C73.6911 44.8144 75.3358 46.0864 75.75 46.5007C76.75 47.5007 79.75 50.5007 81.75 50.5007H86.75L89 52.0907L89.5 55.3007C89.5 63.2007 83 69.6007 75.1 69.6007H18.5C18.5 69.6007 23 64.5 29.5 64.5Z" fill="white"/>
</g>
<mask id="mask0_312_643" style="mask-type:luminance" maskUnits="userSpaceOnUse" x="0" y="0" width="100" height="101">
<path d="M100 0.5H0V100.5H100V0.5Z" fill="white"/>
</mask>
<g mask="url(#mask0_312_643)">
<path d="M14.3 81H88.7C90.4273 81 91.5 79.4145 91.5 78C91.5 76.5855 90.4273 75 88.7 75H14.3C12.5727 75 11.5 76.5855 11.5 78C11.5 79.4145 12.5727 81 14.3 81Z" fill="#56616C" stroke="white" stroke-width="3"/>
<path d="M12.3 97H86.7C88.4273 97 89.5 95.4145 89.5 94C89.5 92.5855 88.4273 91 86.7 91H12.3C10.5727 91 9.5 92.5855 9.5 94C9.5 95.4145 10.5727 97 12.3 97Z" fill="#56616C" stroke="white" stroke-width="3"/>
<path d="M2.3 89H76.7C78.4273 89 79.5 87.4145 79.5 86C79.5 84.5855 78.4273 83 76.7 83H2.3C0.572708 83 -0.5 84.5855 -0.5 86C-0.5 87.4145 0.572708 89 2.3 89Z" fill="#56616C" stroke="white" stroke-width="3"/>
</g>
</g>
<defs>
<filter id="filter0_f_312_643" x="11.5" y="30.5" width="85" height="46.1007" filterUnits="userSpaceOnUse" color-interpolation-filters="sRGB">
<feFlood flood-opacity="0" result="BackgroundImageFix"/>
<feBlend mode="normal" in="SourceGraphic" in2="BackgroundImageFix" result="shape"/>
<feGaussianBlur stdDeviation="3.5" result="effect1_foregroundBlur_312_643"/>
</filter>
<clipPath id="clip0_312_643">
<rect width="100" height="100" fill="white" transform="translate(0 0.5)"/>
</clipPath>
</defs>
</svg>
