<svg width="106" height="109" viewBox="0 0 106 109" fill="none" xmlns="http://www.w3.org/2000/svg">
<g clip-path="url(#clip0_312_674)">
<path d="M31.5415 9.42676C33.3268 12.5511 34.4427 16.1963 34.4427 20.0646C34.4427 31.8182 24.9207 41.3402 13.1671 41.3402C12.2 41.3402 11.3073 41.2658 10.4146 41.117C14.1342 47.5146 20.9781 51.8292 28.789 51.8292C40.5427 51.8292 50.0646 42.3072 50.0646 30.5536C50.0646 19.6926 42.0305 10.7658 31.5415 9.42676Z" fill="#302F30"/>
<path d="M65.4972 78.3216L65.9917 79.6H67.3625H83.6C92.5864 79.6 100 72.3227 100 63.3C100 56.23 95.4681 50.0618 89.0335 47.8354C86.4768 36.1911 75.9526 27.5 63.7 27.5C54.4299 27.5 46.0102 32.3893 41.4313 40.1938C40.5454 39.988 39.6662 39.9 38.8 39.9C34.3287 39.9 30.3727 42.2859 28.3647 46.0016C28.2209 46 28.0815 46 27.9457 46H27.9C23.2669 46 18.9446 47.8137 15.7612 51.1108L15.7603 51.1117C12.7172 54.2676 11 58.3591 11 62.7V62.9V62.9244L11.0006 62.9488C11.1126 67.5424 12.9106 71.7533 16.2111 74.8395C19.2961 77.9108 23.4992 79.6 27.9 79.6H45.7718H46.961L47.529 78.5552L57.8572 59.5552L57.8609 59.5482C58.2062 58.907 58.9232 58.5 59.6 58.5C59.6545 58.5 59.7502 58.5111 59.9056 58.5889L59.9886 58.6304L60.0751 58.664C61.0948 59.0605 61.6133 60.0783 61.4429 60.888L61.4366 60.9178L61.4312 60.9479L59.2312 73.2479L58.9506 74.8171L60.4177 75.4407L64.392 77.1297C64.9509 77.3886 65.2752 77.7478 65.4972 78.3216Z" fill="#F1EEF0" stroke="#302F30" stroke-width="4"/>
<g opacity="0.6">
<path style="mix-blend-mode:multiply" fill-rule="evenodd" clip-rule="evenodd" d="M63.7 29.5C75.4 29.5 85.4 38.1 87.3 49.4C93.5 51 98 56.7 98 63.3C98 71.2 91.5 77.6 83.6 77.6H67.3625C66.9568 76.5514 66.2664 75.7847 65.2 75.3L61.2 73.6L63.4 61.3C63.8 59.4 62.6 57.5 60.8 56.8C60.4 56.6 60 56.5 59.6 56.5C58.2 56.5 56.8 57.3 56.1 58.6L45.7718 77.6H27.9C24 77.6 20.3 76.1 17.6 73.4C14.7 70.7 13.1 67 13 62.9V62.7C13 58.9 14.5 55.3 17.2 52.5C20 49.6 23.8 48 27.9 48C28.5 48 29 48 29.6 48.1C31 44.4 34.6 41.9 38.8 41.9C40 41.9 41.2 42.1 42.4 42.6C46.4 34.6 54.6 29.5 63.7 29.5Z" fill="white"/>
</g>
<g style="mix-blend-mode:multiply" opacity="0.3" filter="url(#filter0_f_312_674)">
<path fill-rule="evenodd" clip-rule="evenodd" d="M50.0731 69.6873C43.4845 70.1367 36.4547 70.5 35.5 70.5C29 70.5 24.5 75.6007 24.5 75.6007H46.8586L50.0731 69.6873ZM62.4846 66.4179L63.4 61.3C63.4512 61.0569 63.4762 60.8139 63.4771 60.5733C64.1252 60.334 64.6465 60.1032 64.6465 60.1032C64.6465 60.1032 68.9994 58.5007 69.75 58.5007C70.5006 58.5007 70.1244 55.5375 69.8901 53.6913L69.75 52.3707C69.75 52.009 69.3022 51.4861 68.7496 50.8407C67.9726 49.9334 66.9884 48.784 66.75 47.5007C66.5753 46.5605 66.7764 45.4193 66.9222 44.5915C67.0132 44.0748 67.0827 43.6802 67.0258 43.533C67.1384 43.5858 67.9481 43.8602 67.9481 43.8602C69.8959 44.5203 72.9771 45.5993 75.75 47.5007C77.4084 48.6378 79.6911 50.8144 79.6911 50.8144C79.6911 50.8144 81.3358 52.0864 81.75 52.5007C82.75 53.5007 85.75 56.5007 87.75 56.5007H92.75L95 58.0907L95.5 61.3007C95.5 69.2007 89 75.6007 81.1 75.6007H65.7581C65.5847 75.4906 65.3989 75.3904 65.2 75.3L61.2 73.6L62.1262 68.4217C62.6816 68.067 62.6884 67.3141 62.4846 66.4179ZM66.99 43.5007C67.0045 43.497 67.0163 43.5084 67.0258 43.533C67.0258 43.533 66.9751 43.5044 66.99 43.5007Z" fill="white"/>
</g>
<path d="M48.2216 81.8423L53.7251 84.1677L49.5657 99.9916C49.3101 100.964 49.8162 101.975 50.7478 102.353C51.6794 102.731 52.747 102.359 53.2414 101.484L65.4414 79.8836C65.7201 79.3903 65.7764 78.8019 65.5964 78.2647C65.4164 77.7275 65.017 77.2918 64.4975 77.0659L59.0513 74.698L61.5677 60.8578C61.7435 59.8913 61.1913 58.9403 60.2649 58.6137C59.3384 58.2872 58.312 58.6818 57.8428 59.5448L47.2428 79.0448C46.9732 79.5408 46.9258 80.1276 47.1122 80.6605C47.2986 81.1933 47.7016 81.6226 48.2216 81.8423Z" fill="#FCFC6B" stroke="white" stroke-width="4" stroke-linejoin="round"/>
<path d="M33.4884 87.4H33.4H33.3066L33.2139 87.4115C31.8336 87.5841 30.5 88.6835 30.5 90.3C30.5 91.7586 31.7034 93.2 33.4 93.2H33.5884L33.5218 93.3143C33.0258 94.0957 33.0807 94.9856 33.277 95.5743C33.4662 96.1421 33.8505 96.7364 34.4679 97.148C35.2125 97.6444 36.0679 97.6619 36.7386 97.4632C37.3843 97.2718 38.0417 96.8282 38.4147 96.1231L38.4734 96.0225L38.5779 96.2091C39.0633 97.1395 40.0978 97.7 41.1 97.7C41.6399 97.7 42.1859 97.4841 42.4708 97.3416L42.5543 97.2998L42.6321 97.248C43.6587 96.5636 44.5356 94.9246 43.5853 93.4252L43.4592 93.2H43.7C45.1586 93.2 46.6 91.9965 46.6 90.3C46.6 88.4629 45.0032 87.5 43.7 87.5H43.4592L43.5865 87.2725C44.3817 86.005 44.0393 84.0874 42.4712 83.3571C41.098 82.6198 39.417 83.0298 38.6015 84.4491L38.5 84.623L38.3985 84.449C37.6264 83.1059 35.9299 82.543 34.5481 83.4003C33.7903 83.8069 33.3755 84.4301 33.177 85.0256C33.0228 85.4881 33.0492 85.9262 33.0901 86.2121C33.1333 86.5143 33.2141 86.7856 33.277 86.9743L33.3261 87.1216L33.4043 87.2558L33.4884 87.4Z" fill="#302F30" stroke="white" stroke-width="3"/>
<path d="M71.8714 99.662L71.9468 99.6968L72.0257 99.7231C72.3672 99.8369 72.9528 100 73.5 100C75.0151 100 76.518 99.2142 77.1828 97.5817L80.6742 89.6013L80.6878 89.5702L80.7 89.5385C81.464 87.552 80.6952 85.2919 78.6286 84.3381L78.5841 84.3176L78.5385 84.3C76.552 83.536 74.2919 84.3048 73.3381 86.3714L73.3318 86.3851L73.3258 86.3988L69.8258 94.3988L69.8122 94.4299L69.8 94.4616C69.036 96.448 69.8048 98.7081 71.8714 99.662Z" fill="#302F30" stroke="white" stroke-width="3"/>
<path d="M57.8714 106.662L57.9468 106.697L58.0257 106.723C58.3672 106.837 58.9528 107 59.5 107C61.0151 107 62.518 106.214 63.1828 104.582L66.6742 96.6013L66.6878 96.5702L66.7 96.5385C67.464 94.552 66.6952 92.2919 64.6286 91.3381L64.5841 91.3176L64.5385 91.3C62.552 90.536 60.2919 91.3048 59.3381 93.3714L59.3318 93.3851L59.3258 93.3988L55.8258 101.399L55.8122 101.43L55.8 101.462C55.036 103.448 55.8048 105.708 57.8714 106.662Z" fill="#302F30" stroke="white" stroke-width="3"/>
</g>
<defs>
<filter id="filter0_f_312_674" x="17.5" y="36.5" width="85" height="46.1007" filterUnits="userSpaceOnUse" color-interpolation-filters="sRGB">
<feFlood flood-opacity="0" result="BackgroundImageFix"/>
<feBlend mode="normal" in="SourceGraphic" in2="BackgroundImageFix" result="shape"/>
<feGaussianBlur stdDeviation="3.5" result="effect1_foregroundBlur_312_674"/>
</filter>
<clipPath id="clip0_312_674">
<rect width="106" height="108" fill="white" transform="translate(0 0.5)"/>
</clipPath>
</defs>
</svg>
