<svg width="100" height="104" viewBox="0 0 100 104" fill="none" xmlns="http://www.w3.org/2000/svg">
<g clip-path="url(#clip0_312_724)">
<mask id="mask0_312_724" style="mask-type:luminance" maskUnits="userSpaceOnUse" x="0" y="0" width="100" height="101">
<path d="M100 0.5H0V100.5H100V0.5Z" fill="white"/>
</mask>
<g mask="url(#mask0_312_724)">
<path fill-rule="evenodd" clip-rule="evenodd" d="M52.3146 19.0169L54.072 16.5601L42.716 17.7841L43.872 6.36012L34.624 13.0921L30 2.62012L25.376 13.0921L16.06 6.36012L17.284 17.7161L5.86 16.5601L12.592 25.8081L2.12 30.5001L12.592 35.1241L5.86 44.4401L6.4302 44.3787C6.79888 43.9377 7.18901 43.5111 7.6 43.1001C11.1 39.5001 15.7 37.4001 20.7 37.1001C23.4 33.2001 27.9 30.9001 32.8 30.9001H33.9C38.2631 24.7594 44.9113 20.4466 52.3146 19.0169Z" fill="#FCFC6B" stroke="#302F30" stroke-width="3"/>
</g>
<path fill-rule="evenodd" clip-rule="evenodd" d="M14.867 38.3308C16.7147 37.6384 18.6745 37.2215 20.7 37.1C23.4 33.2 27.9 30.9 32.8 30.9H33.9C36.6679 27.0044 40.3553 23.8445 44.5718 21.6896C39.7966 13.8271 29.5494 11.165 21.4904 15.7337C13.6195 20.2995 10.7654 30.3348 14.867 38.3308Z" fill="#FEFEB5"/>
<path fill-rule="evenodd" clip-rule="evenodd" d="M17.5653 37.534C18.5875 37.3096 19.6347 37.1639 20.7 37.1C23.4 33.2 27.9 30.9 32.8 30.9H33.9C36.1324 27.7581 38.9631 25.0947 42.187 23.0511C38.1607 16.489 29.5536 14.2405 22.8585 18.1236C16.0937 22.0472 13.7042 30.7499 17.5653 37.534Z" fill="#FCFC6B"/>
<path d="M59.4972 72.3216L59.9917 73.6H61.3625H77.6C86.5864 73.6 94 66.3227 94 57.3C94 50.23 89.4681 44.0618 83.0335 41.8354C80.4768 30.1911 69.9526 21.5 57.7 21.5C48.4299 21.5 40.0102 26.3893 35.4313 34.1938C34.5454 33.988 33.6662 33.9 32.8 33.9C28.3287 33.9 24.3727 36.2859 22.3647 40.0016C22.2209 40 22.0815 40 21.9457 40H21.9C17.2669 40 12.9446 41.8137 9.7612 45.1108L9.76031 45.1117C6.71717 48.2676 5 52.3591 5 56.7V56.9V56.9244L5.00059 56.9488C5.11263 61.5424 6.91061 65.7533 10.2111 68.8395C13.2961 71.9108 17.4992 73.6 21.9 73.6H39.7718H40.961L41.529 72.5552L51.8572 53.5552L51.8609 53.5482C52.2062 52.907 52.9232 52.5 53.6 52.5C53.6545 52.5 53.7502 52.5111 53.9056 52.5889L53.9886 52.6304L54.0751 52.664C55.0948 53.0605 55.6133 54.0783 55.4429 54.888L55.4366 54.9178L55.4312 54.9479L53.2312 67.2479L52.9506 68.8171L54.4177 69.4407L58.392 71.1297C58.9509 71.3886 59.2752 71.7478 59.4972 72.3216Z" fill="#F1EEF0" stroke="#302F30" stroke-width="4"/>
<g opacity="0.6">
<path style="mix-blend-mode:multiply" fill-rule="evenodd" clip-rule="evenodd" d="M57.7 23.5C69.4 23.5 79.4 32.1 81.3 43.4C87.5 45 92 50.7 92 57.3C92 65.2 85.5 71.6 77.6 71.6H61.3625C60.9568 70.5514 60.2664 69.7847 59.2 69.3L55.2 67.6L57.4 55.3C57.8 53.4 56.6 51.5 54.8 50.8C54.4 50.6 54 50.5 53.6 50.5C52.2 50.5 50.8 51.3 50.1 52.6L39.7718 71.6H21.9C18 71.6 14.3 70.1 11.6 67.4C8.7 64.7 7.1 61 7 56.9V56.7C7 52.9 8.5 49.3 11.2 46.5C14 43.6 17.8 42 21.9 42C22.5 42 23 42 23.6 42.1C25 38.4 28.6 35.9 32.8 35.9C34 35.9 35.2 36.1 36.4 36.6C40.4 28.6 48.6 23.5 57.7 23.5Z" fill="white"/>
</g>
<g style="mix-blend-mode:multiply" opacity="0.3" filter="url(#filter0_f_312_724)">
<path fill-rule="evenodd" clip-rule="evenodd" d="M44.0731 63.6873C37.4845 64.1367 30.4547 64.5 29.5 64.5C23 64.5 18.5 69.6007 18.5 69.6007H40.8586L44.0731 63.6873ZM56.4846 60.4179L57.4 55.3C57.4512 55.0569 57.4762 54.8139 57.4771 54.5733C58.1252 54.334 58.6465 54.1032 58.6465 54.1032C58.6465 54.1032 62.9994 52.5007 63.75 52.5007C64.5006 52.5007 64.1244 49.5375 63.8901 47.6913L63.75 46.3707C63.75 46.009 63.3022 45.4861 62.7496 44.8407C61.9726 43.9334 60.9884 42.784 60.75 41.5007C60.5753 40.5605 60.7764 39.4193 60.9222 38.5915C61.0132 38.0748 61.0827 37.6802 61.0258 37.533C61.1384 37.5858 61.9481 37.8602 61.9481 37.8602C63.8959 38.5203 66.9771 39.5993 69.75 41.5007C71.4084 42.6378 73.6911 44.8144 73.6911 44.8144C73.6911 44.8144 75.3358 46.0864 75.75 46.5007C76.75 47.5007 79.75 50.5007 81.75 50.5007H86.75L89 52.0907L89.5 55.3007C89.5 63.2007 83 69.6007 75.1 69.6007H59.7581C59.5847 69.4906 59.3989 69.3904 59.2 69.3L55.2 67.6L56.1262 62.4217C56.6816 62.067 56.6884 61.3141 56.4846 60.4179ZM60.99 37.5007C61.0045 37.497 61.0163 37.5084 61.0258 37.533C61.0258 37.533 60.9751 37.5044 60.99 37.5007Z" fill="white"/>
</g>
<path d="M42.2216 75.8423L47.7251 78.1677L43.5657 93.9916C43.3101 94.964 43.8162 95.975 44.7478 96.3531C45.6794 96.7313 46.747 96.359 47.2414 95.4836L59.4414 73.8836C59.7201 73.3903 59.7764 72.8019 59.5964 72.2647C59.4164 71.7275 59.017 71.2918 58.4975 71.0659L53.0513 68.698L55.5677 54.8578C55.7435 53.8913 55.1913 52.9403 54.2649 52.6137C53.3384 52.2872 52.312 52.6818 51.8428 53.5448L41.2428 73.0448C40.9732 73.5408 40.9258 74.1276 41.1122 74.6605C41.2986 75.1933 41.7016 75.6226 42.2216 75.8423Z" fill="#FCFC6B" stroke="white" stroke-width="4" stroke-linejoin="round"/>
<path d="M27.4884 82.4H27.4H27.3066L27.2139 82.4115C25.8336 82.5841 24.5 83.6835 24.5 85.3C24.5 86.7586 25.7034 88.2 27.4 88.2H27.5884L27.5218 88.3143C27.0258 89.0957 27.0807 89.9856 27.277 90.5743C27.4662 91.1421 27.8505 91.7364 28.4679 92.148C29.2125 92.6444 30.0679 92.6619 30.7386 92.4632C31.3843 92.2718 32.0417 91.8282 32.4147 91.1231L32.4734 91.0225L32.5779 91.2091C33.0633 92.1395 34.0978 92.7 35.1 92.7C35.6399 92.7 36.1859 92.4841 36.4708 92.3416L36.5543 92.2998L36.6321 92.248C37.6587 91.5636 38.5356 89.9246 37.5853 88.4252L37.4592 88.2H37.7C39.1586 88.2 40.6 86.9965 40.6 85.3C40.6 83.4629 39.0032 82.5 37.7 82.5H37.4592L37.5865 82.2725C38.3817 81.005 38.0393 79.0874 36.4712 78.3571C35.098 77.6198 33.417 78.0298 32.6015 79.4491L32.5 79.623L32.3985 79.449C31.6264 78.1059 29.9299 77.543 28.5481 78.4003C27.7903 78.8069 27.3755 79.4301 27.177 80.0256C27.0228 80.4881 27.0492 80.9262 27.0901 81.2121C27.1333 81.5143 27.2141 81.7856 27.277 81.9743L27.3261 82.1216L27.4043 82.2558L27.4884 82.4Z" fill="#302F30" stroke="white" stroke-width="3"/>
<path d="M54.4884 91.4H54.4H54.3066L54.2139 91.4115C52.8336 91.5841 51.5 92.6835 51.5 94.3C51.5 95.7586 52.7034 97.2 54.4 97.2H54.5884L54.5218 97.3143C54.0258 98.0957 54.0807 98.9856 54.277 99.5743C54.4662 100.142 54.8505 100.736 55.4679 101.148C56.2125 101.644 57.0679 101.662 57.7386 101.463C58.3843 101.272 59.0417 100.828 59.4147 100.123L59.4734 100.023L59.5779 100.209C60.0633 101.14 61.0978 101.7 62.1 101.7C62.6399 101.7 63.1859 101.484 63.4708 101.342L63.5543 101.3L63.6321 101.248C64.6587 100.564 65.5356 98.9246 64.5853 97.4252L64.4592 97.2H64.7C66.1586 97.2 67.6 95.9965 67.6 94.3C67.6 92.4629 66.0032 91.5 64.7 91.5H64.4592L64.5865 91.2725C65.3817 90.005 65.0393 88.0874 63.4712 87.3571C62.098 86.6198 60.417 87.0298 59.6015 88.4491L59.5 88.623L59.3985 88.449C58.6264 87.1059 56.9299 86.543 55.5481 87.4003C54.7903 87.8069 54.3755 88.4301 54.177 89.0256C54.0228 89.4881 54.0492 89.9262 54.0901 90.2121C54.1333 90.5143 54.2141 90.7856 54.277 90.9743L54.3261 91.1216L54.4043 91.2558L54.4884 91.4Z" fill="#302F30" stroke="white" stroke-width="3"/>
<path d="M67.4884 82.4H67.4H67.3066L67.2139 82.4115C65.8336 82.5841 64.5 83.6835 64.5 85.3C64.5 86.7586 65.7034 88.2 67.4 88.2H67.5884L67.5218 88.3143C67.0258 89.0957 67.0807 89.9856 67.277 90.5743C67.4662 91.1421 67.8505 91.7364 68.4679 92.148C69.2125 92.6444 70.0679 92.6619 70.7386 92.4632C71.3843 92.2718 72.0417 91.8282 72.4147 91.1231L72.4734 91.0225L72.5779 91.2091C73.0633 92.1395 74.0978 92.7 75.1 92.7C75.6399 92.7 76.1859 92.4841 76.4708 92.3416L76.5543 92.2998L76.6321 92.248C77.6587 91.5636 78.5356 89.9246 77.5853 88.4252L77.4592 88.2H77.7C79.1586 88.2 80.6 86.9965 80.6 85.3C80.6 83.4629 79.0032 82.5 77.7 82.5H77.4592L77.5865 82.2725C78.3817 81.005 78.0393 79.0874 76.4712 78.3571C75.098 77.6198 73.417 78.0298 72.6015 79.4491L72.5 79.623L72.3985 79.449C71.6264 78.1059 69.9299 77.543 68.5481 78.4003C67.7903 78.8069 67.3755 79.4301 67.177 80.0256C67.0228 80.4881 67.0492 80.9262 67.0901 81.2121C67.1333 81.5143 67.2141 81.7856 67.277 81.9743L67.3261 82.1216L67.4043 82.2558L67.4884 82.4Z" fill="#302F30" stroke="white" stroke-width="3"/>
</g>
<defs>
<filter id="filter0_f_312_724" x="11.5" y="30.5" width="85" height="46.1007" filterUnits="userSpaceOnUse" color-interpolation-filters="sRGB">
<feFlood flood-opacity="0" result="BackgroundImageFix"/>
<feBlend mode="normal" in="SourceGraphic" in2="BackgroundImageFix" result="shape"/>
<feGaussianBlur stdDeviation="3.5" result="effect1_foregroundBlur_312_724"/>
</filter>
<clipPath id="clip0_312_724">
<rect width="100" height="103" fill="white" transform="translate(0 0.5)"/>
</clipPath>
</defs>
</svg>
