<svg width="104" height="103" viewBox="0 0 104 103" fill="none" xmlns="http://www.w3.org/2000/svg">
<g clip-path="url(#clip0_312_794)">
<mask id="mask0_312_794" style="mask-type:alpha" maskUnits="userSpaceOnUse" x="-4" y="21" width="82" height="42">
<path d="M78 21.5H-4V62.5H78V21.5Z" fill="#C4C4C4"/>
</mask>
<g mask="url(#mask0_312_794)">
<path d="M51.408 26.1921L61.88 21.5001L51.408 16.8761L58.072 7.56012L46.716 8.78412L47.872 -2.63988L38.624 4.09212L34 -6.37988L29.376 4.09212L20.06 -2.63988L21.284 8.71612L9.85999 7.56012L16.592 16.8081L6.12 21.5001L16.592 26.1241L9.85999 35.4401L21.216 34.2161L20.06 45.6401L29.308 38.9081L34 49.3801L38.624 38.9081L47.94 45.5721L46.716 34.2161L58.14 35.3721L51.408 26.1921Z" fill="#FCFC6B" stroke="#302F30" stroke-width="3"/>
<path d="M19.2328 30.0059C23.926 38.1035 34.3327 40.8935 42.4948 36.2663C50.657 31.639 53.3777 21.1598 48.7525 12.9941C44.0593 4.89646 33.6525 2.10651 25.4904 6.73373C17.3963 11.429 14.6076 21.9083 19.2328 30.0059Z" fill="#FEFEB5"/>
<path d="M21.6236 28.6355C25.5668 35.4341 34.3369 37.8136 41.1355 33.8704C47.934 29.9273 50.3135 21.1571 46.3704 14.3585C42.4272 7.55997 33.6571 5.18047 26.8585 9.12364C20.0599 13.0668 17.6804 21.837 21.6236 28.6355Z" fill="#FCFC6B"/>
</g>
<path d="M5.5 20H62.5" stroke="#302F30" stroke-width="3" stroke-linecap="round"/>
<path d="M63.4972 72.3216L63.9917 73.6H65.3625H81.6C90.5864 73.6 98 66.3227 98 57.3C98 50.23 93.4681 44.0618 87.0335 41.8354C84.4768 30.1911 73.9526 21.5 61.7 21.5C52.4299 21.5 44.0102 26.3893 39.4313 34.1938C38.5454 33.988 37.6662 33.9 36.8 33.9C32.3287 33.9 28.3727 36.2859 26.3647 40.0016C26.2209 40 26.0815 40 25.9457 40H25.9C21.2669 40 16.9446 41.8137 13.7612 45.1108L13.7603 45.1117C10.7172 48.2676 9 52.3591 9 56.7V56.9V56.9244L9.00059 56.9488C9.11263 61.5424 10.9106 65.7533 14.2111 68.8395C17.2961 71.9108 21.4992 73.6 25.9 73.6H43.7718H44.961L45.529 72.5552L55.8572 53.5552L55.8609 53.5482C56.2062 52.907 56.9232 52.5 57.6 52.5C57.6545 52.5 57.7502 52.5111 57.9056 52.5889L57.9886 52.6304L58.0751 52.664C59.0948 53.0605 59.6133 54.0783 59.4429 54.888L59.4366 54.9178L59.4312 54.9479L57.2312 67.2479L56.9506 68.8171L58.4177 69.4407L62.392 71.1297C62.9509 71.3886 63.2752 71.7478 63.4972 72.3216Z" fill="#E3DCE2" stroke="#302F30" stroke-width="4"/>
<g opacity="0.6">
<path style="mix-blend-mode:multiply" fill-rule="evenodd" clip-rule="evenodd" d="M61.7 23.5C73.4 23.5 83.4 32.1 85.3 43.4C91.5 45 96 50.7 96 57.3C96 65.2 89.5 71.6 81.6 71.6H65.3625C64.9568 70.5514 64.2664 69.7847 63.2 69.3L59.2 67.6L61.4 55.3C61.8 53.4 60.6 51.5 58.8 50.8C58.4 50.6 58 50.5 57.6 50.5C56.2 50.5 54.8 51.3 54.1 52.6L43.7718 71.6H25.9C22 71.6 18.3 70.1 15.6 67.4C12.7 64.7 11.1 61 11 56.9V56.7C11 52.9 12.5 49.3 15.2 46.5C18 43.6 21.8 42 25.9 42C26.5 42 27 42 27.6 42.1C29 38.4 32.6 35.9 36.8 35.9C38 35.9 39.2 36.1 40.4 36.6C44.4 28.6 52.6 23.5 61.7 23.5Z" fill="white"/>
</g>
<g style="mix-blend-mode:multiply" opacity="0.3" filter="url(#filter0_f_312_794)">
<path fill-rule="evenodd" clip-rule="evenodd" d="M48.0731 63.6873C41.4845 64.1367 34.4547 64.5 33.5 64.5C27 64.5 22.5 69.6007 22.5 69.6007H44.8586L48.0731 63.6873ZM60.4846 60.4179L61.4 55.3C61.4512 55.0569 61.4762 54.8139 61.4771 54.5733C62.1252 54.334 62.6465 54.1032 62.6465 54.1032C62.6465 54.1032 66.9994 52.5007 67.75 52.5007C68.5006 52.5007 68.1244 49.5375 67.8901 47.6913L67.75 46.3707C67.75 46.009 67.3022 45.4861 66.7496 44.8407C65.9726 43.9334 64.9884 42.784 64.75 41.5007C64.5753 40.5605 64.7764 39.4193 64.9222 38.5915C65.0132 38.0748 65.0827 37.6802 65.0258 37.533C65.1384 37.5858 65.9481 37.8602 65.9481 37.8602C67.8959 38.5203 70.9771 39.5993 73.75 41.5007C75.4084 42.6378 77.6911 44.8144 77.6911 44.8144C77.6911 44.8144 79.3358 46.0864 79.75 46.5007C80.75 47.5007 83.75 50.5007 85.75 50.5007H90.75L93 52.0907L93.5 55.3007C93.5 63.2007 87 69.6007 79.1 69.6007H63.7581C63.5847 69.4906 63.3989 69.3904 63.2 69.3L59.2 67.6L60.1262 62.4217C60.6816 62.067 60.6884 61.3141 60.4846 60.4179ZM64.99 37.5007C65.0045 37.497 65.0163 37.5084 65.0258 37.533C65.0258 37.533 64.9751 37.5044 64.99 37.5007Z" fill="white"/>
</g>
<path d="M87.8714 100.662L87.9468 100.697L88.0257 100.723C88.3672 100.837 88.9528 101 89.5 101C91.0151 101 92.518 100.214 93.1828 98.5817L96.6742 90.6013L96.6878 90.5702L96.7 90.5385C97.464 88.552 96.6952 86.2919 94.6286 85.3381L94.5841 85.3176L94.5385 85.3C92.552 84.536 90.2919 85.3048 89.3381 87.3714L89.3318 87.3851L89.3258 87.3988L85.8258 95.3988L85.8122 95.4299L85.8 95.4616C85.036 97.448 85.8048 99.7081 87.8714 100.662Z" fill="#302F30" stroke="white" stroke-width="3"/>
<path d="M34.8714 100.662L34.9468 100.697L35.0257 100.723C35.3672 100.837 35.9528 101 36.5 101C38.0151 101 39.518 100.214 40.1828 98.5817L43.6742 90.6013L43.6878 90.5702L43.7 90.5385C44.464 88.552 43.6952 86.2919 41.6286 85.3381L41.5841 85.3176L41.5385 85.3C39.552 84.536 37.2919 85.3048 36.3381 87.3714L36.3318 87.3851L36.3258 87.3988L32.8258 95.3988L32.8122 95.4299L32.8 95.4616C32.036 97.448 32.8048 99.7081 34.8714 100.662Z" fill="#302F30" stroke="white" stroke-width="3"/>
<path d="M61.8714 91.662L61.9468 91.6968L62.0257 91.7231C62.3672 91.8369 62.9528 92 63.5 92C65.0151 92 66.518 91.2142 67.1828 89.5817L70.6742 81.6013L70.6878 81.5702L70.7 81.5385C71.464 79.552 70.6952 77.2919 68.6286 76.3381L68.5841 76.3176L68.5385 76.3C66.552 75.536 64.2919 76.3048 63.3381 78.3714L63.3318 78.3851L63.3258 78.3988L59.8258 86.3988L59.8122 86.4299L59.8 86.4616C59.036 88.448 59.8048 90.7081 61.8714 91.662Z" fill="#302F30" stroke="white" stroke-width="3"/>
<path d="M73.8714 91.662L73.9468 91.6968L74.0257 91.7231C74.3672 91.8369 74.9528 92 75.5 92C77.0151 92 78.518 91.2142 79.1828 89.5817L82.6742 81.6013L82.6878 81.5702L82.7 81.5385C83.464 79.552 82.6952 77.2919 80.6286 76.3381L80.5841 76.3176L80.5385 76.3C78.552 75.536 76.2919 76.3048 75.3381 78.3714L75.3318 78.3851L75.3258 78.3988L71.8258 86.3988L71.8122 86.4299L71.8 86.4616C71.036 88.448 71.8048 90.7081 73.8714 91.662Z" fill="#302F30" stroke="white" stroke-width="3"/>
<path d="M23.8714 91.662L23.9468 91.6968L24.0257 91.7231C24.3672 91.8369 24.9528 92 25.5 92C27.0151 92 28.518 91.2142 29.1828 89.5817L32.6742 81.6013L32.6878 81.5702L32.7 81.5385C33.464 79.552 32.6952 77.2919 30.6286 76.3381L30.5841 76.3176L30.5385 76.3C28.552 75.536 26.2919 76.3048 25.3381 78.3714L25.3318 78.3851L25.3258 78.3988L21.8258 86.3988L21.8122 86.4299L21.8 86.4616C21.036 88.448 21.8048 90.7081 23.8714 91.662Z" fill="#302F30" stroke="white" stroke-width="3"/>
<path d="M46.2216 75.8423L51.7251 78.1677L47.5657 93.9916C47.3101 94.964 47.8162 95.975 48.7478 96.3531C49.6794 96.7313 50.747 96.359 51.2414 95.4836L63.4414 73.8836C63.7201 73.3903 63.7764 72.8019 63.5964 72.2647C63.4164 71.7275 63.017 71.2918 62.4975 71.0659L57.0513 68.698L59.5677 54.8578C59.7435 53.8913 59.1913 52.9403 58.2649 52.6137C57.3384 52.2872 56.312 52.6818 55.8428 53.5448L45.2428 73.0448C44.9732 73.5408 44.9258 74.1276 45.1122 74.6605C45.2986 75.1933 45.7016 75.6226 46.2216 75.8423Z" fill="#FCFC6B" stroke="white" stroke-width="4" stroke-linejoin="round"/>
</g>
<defs>
<filter id="filter0_f_312_794" x="15.5" y="30.5" width="85" height="46.1007" filterUnits="userSpaceOnUse" color-interpolation-filters="sRGB">
<feFlood flood-opacity="0" result="BackgroundImageFix"/>
<feBlend mode="normal" in="SourceGraphic" in2="BackgroundImageFix" result="shape"/>
<feGaussianBlur stdDeviation="3.5" result="effect1_foregroundBlur_312_794"/>
</filter>
<clipPath id="clip0_312_794">
<rect width="104" height="102" fill="white" transform="translate(0 0.5)"/>
</clipPath>
</defs>
</svg>
