<svg width="106" height="110" viewBox="0 0 106 110" fill="none" xmlns="http://www.w3.org/2000/svg">
<g clip-path="url(#clip0_312_879)">
<path d="M31.5415 9.42676C33.3268 12.5511 34.4427 16.1963 34.4427 20.0646C34.4427 31.8182 24.9207 41.3402 13.1671 41.3402C12.2 41.3402 11.3073 41.2658 10.4146 41.117C14.1342 47.5146 20.9781 51.8292 28.789 51.8292C40.5427 51.8292 50.0646 42.3072 50.0646 30.5536C50.0646 19.6926 42.0305 10.7658 31.5415 9.42676Z" fill="#302F30"/>
<path d="M65.4972 78.3216L65.9917 79.6H67.3625H83.6C92.5864 79.6 100 72.3227 100 63.3C100 56.23 95.4681 50.0618 89.0335 47.8354C86.4768 36.1911 75.9526 27.5 63.7 27.5C54.4299 27.5 46.0102 32.3893 41.4313 40.1938C40.5454 39.988 39.6662 39.9 38.8 39.9C34.3287 39.9 30.3727 42.2859 28.3647 46.0016C28.2209 46 28.0815 46 27.9457 46H27.9C23.2669 46 18.9446 47.8137 15.7612 51.1108L15.7603 51.1117C12.7172 54.2676 11 58.3591 11 62.7V62.9V62.9244L11.0006 62.9488C11.1126 67.5424 12.9106 71.7533 16.2111 74.8395C19.2961 77.9108 23.4992 79.6 27.9 79.6H45.7718H46.961L47.529 78.5552L57.8572 59.5552L57.8609 59.5482C58.2062 58.907 58.9232 58.5 59.6 58.5C59.6545 58.5 59.7502 58.5111 59.9056 58.5889L59.9886 58.6304L60.0751 58.664C61.0948 59.0605 61.6133 60.0783 61.4429 60.888L61.4366 60.9178L61.4312 60.9479L59.2312 73.2479L58.9506 74.8171L60.4177 75.4407L64.392 77.1297C64.9509 77.3886 65.2752 77.7478 65.4972 78.3216Z" fill="#F7F5F6" stroke="#302F30" stroke-width="4"/>
<g opacity="0.6">
<path style="mix-blend-mode:multiply" fill-rule="evenodd" clip-rule="evenodd" d="M63.7 29.5C75.4 29.5 85.4 38.1 87.3 49.4C93.5 51 98 56.7 98 63.3C98 71.2 91.5 77.6 83.6 77.6H67.3625C66.9568 76.5514 66.2664 75.7847 65.2 75.3L61.2 73.6L63.4 61.3C63.8 59.4 62.6 57.5 60.8 56.8C60.4 56.6 60 56.5 59.6 56.5C58.2 56.5 56.8 57.3 56.1 58.6L45.7718 77.6H27.9C24 77.6 20.3 76.1 17.6 73.4C14.7 70.7 13.1 67 13 62.9V62.7C13 58.9 14.5 55.3 17.2 52.5C20 49.6 23.8 48 27.9 48C28.5 48 29 48 29.6 48.1C31 44.4 34.6 41.9 38.8 41.9C40 41.9 41.2 42.1 42.4 42.6C46.4 34.6 54.6 29.5 63.7 29.5Z" fill="white"/>
</g>
<g style="mix-blend-mode:multiply" opacity="0.3" filter="url(#filter0_f_312_879)">
<path fill-rule="evenodd" clip-rule="evenodd" d="M50.0731 69.6873C43.4845 70.1367 36.4547 70.5 35.5 70.5C29 70.5 24.5 75.6007 24.5 75.6007H46.8586L50.0731 69.6873ZM62.4846 66.4179L63.4 61.3C63.4512 61.0569 63.4762 60.8139 63.4771 60.5733C64.1252 60.334 64.6465 60.1032 64.6465 60.1032C64.6465 60.1032 68.9994 58.5007 69.75 58.5007C70.5006 58.5007 70.1244 55.5375 69.8901 53.6913L69.75 52.3707C69.75 52.009 69.3022 51.4861 68.7496 50.8407C67.9726 49.9334 66.9884 48.784 66.75 47.5007C66.5753 46.5605 66.7764 45.4193 66.9222 44.5915C67.0132 44.0748 67.0827 43.6802 67.0258 43.533C67.1384 43.5858 67.9481 43.8602 67.9481 43.8602C69.8959 44.5203 72.9771 45.5993 75.75 47.5007C77.4084 48.6378 79.6911 50.8144 79.6911 50.8144C79.6911 50.8144 81.3358 52.0864 81.75 52.5007C82.75 53.5007 85.75 56.5007 87.75 56.5007H92.75L95 58.0907L95.5 61.3007C95.5 69.2007 89 75.6007 81.1 75.6007H65.7581C65.5847 75.4906 65.3989 75.3904 65.2 75.3L61.2 73.6L62.1262 68.4217C62.6816 68.067 62.6884 67.3141 62.4846 66.4179ZM66.99 43.5007C67.0045 43.497 67.0163 43.5084 67.0258 43.533C67.0258 43.533 66.9751 43.5044 66.99 43.5007Z" fill="white"/>
</g>
<path d="M48.2216 81.8423L53.7251 84.1677L49.5657 99.9916C49.3101 100.964 49.8162 101.975 50.7478 102.353C51.6794 102.731 52.747 102.359 53.2414 101.484L65.4414 79.8836C65.7201 79.3903 65.7764 78.8019 65.5964 78.2647C65.4164 77.7275 65.017 77.2918 64.4975 77.0659L59.0513 74.698L61.5677 60.8578C61.7435 59.8913 61.1913 58.9403 60.2649 58.6137C59.3384 58.2872 58.312 58.6818 57.8428 59.5448L47.2428 79.0448C46.9732 79.5408 46.9258 80.1276 47.1122 80.6605C47.2986 81.1933 47.7016 81.6226 48.2216 81.8423Z" fill="#FCFC6B" stroke="white" stroke-width="4" stroke-linejoin="round"/>
<path d="M35.4884 97.4H35.4H35.3066L35.2139 97.4115C33.8336 97.5841 32.5 98.6835 32.5 100.3C32.5 101.759 33.7034 103.2 35.4 103.2H35.5884L35.5218 103.314C35.0258 104.096 35.0807 104.986 35.277 105.574C35.4662 106.142 35.8505 106.736 36.4679 107.148C37.2125 107.644 38.0679 107.662 38.7386 107.463C39.3843 107.272 40.0417 106.828 40.4147 106.123L40.4734 106.022L40.5779 106.209C41.0633 107.14 42.0978 107.7 43.1 107.7C43.6399 107.7 44.1859 107.484 44.4708 107.342L44.5543 107.3L44.6321 107.248C45.6587 106.564 46.5356 104.925 45.5853 103.425L45.4592 103.2H45.7C47.1586 103.2 48.6 101.997 48.6 100.3C48.6 98.4629 47.0032 97.5 45.7 97.5H45.4592L45.5865 97.2725C46.3817 96.005 46.0393 94.0874 44.4712 93.3571C43.098 92.6198 41.417 93.0298 40.6015 94.4491L40.5 94.623L40.3985 94.449C39.6264 93.1059 37.9299 92.543 36.5481 93.4003C35.7903 93.8069 35.3755 94.4301 35.177 95.0256C35.0228 95.4881 35.0492 95.9262 35.0901 96.2121C35.1333 96.5143 35.2141 96.7856 35.277 96.9743L35.3261 97.1216L35.4043 97.2558L35.4884 97.4Z" fill="#302F30" stroke="white" stroke-width="3"/>
<path d="M65.8714 100.662L65.9468 100.697L66.0257 100.723C66.3672 100.837 66.9528 101 67.5 101C69.0151 101 70.518 100.214 71.1828 98.5817L74.6742 90.6013L74.6878 90.5702L74.7 90.5385C75.464 88.552 74.6952 86.2919 72.6286 85.3381L72.5841 85.3176L72.5385 85.3C70.552 84.536 68.2919 85.3048 67.3381 87.3714L67.3318 87.3851L67.3258 87.3988L63.8258 95.3988L63.8122 95.4299L63.8 95.4616C63.036 97.448 63.8048 99.7081 65.8714 100.662Z" fill="#302F30" stroke="white" stroke-width="3"/>
</g>
<defs>
<filter id="filter0_f_312_879" x="17.5" y="36.5" width="85" height="46.1007" filterUnits="userSpaceOnUse" color-interpolation-filters="sRGB">
<feFlood flood-opacity="0" result="BackgroundImageFix"/>
<feBlend mode="normal" in="SourceGraphic" in2="BackgroundImageFix" result="shape"/>
<feGaussianBlur stdDeviation="3.5" result="effect1_foregroundBlur_312_879"/>
</filter>
<clipPath id="clip0_312_879">
<rect width="106" height="109" fill="white" transform="translate(0 0.5)"/>
</clipPath>
</defs>
</svg>
