<svg width="104" height="104" viewBox="0 0 104 104" fill="none" xmlns="http://www.w3.org/2000/svg">
<g clip-path="url(#clip0_312_1003)">
<mask id="mask0_312_1003" style="mask-type:alpha" maskUnits="userSpaceOnUse" x="-4" y="21" width="82" height="42">
<path d="M78 21.5H-4V62.5H78V21.5Z" fill="#C4C4C4"/>
</mask>
<g mask="url(#mask0_312_1003)">
<path d="M51.408 26.1921L61.88 21.5001L51.408 16.8761L58.072 7.56012L46.716 8.78412L47.872 -2.63988L38.624 4.09212L34 -6.37988L29.376 4.09212L20.06 -2.63988L21.284 8.71612L9.85999 7.56012L16.592 16.8081L6.12 21.5001L16.592 26.1241L9.85999 35.4401L21.216 34.2161L20.06 45.6401L29.308 38.9081L34 49.3801L38.624 38.9081L47.94 45.5721L46.716 34.2161L58.14 35.3721L51.408 26.1921Z" fill="#FCFC6B" stroke="#302F30" stroke-width="3"/>
<path d="M19.2328 30.0059C23.926 38.1035 34.3327 40.8935 42.4948 36.2663C50.657 31.639 53.3777 21.1598 48.7525 12.9941C44.0593 4.89646 33.6525 2.10651 25.4904 6.73373C17.3963 11.429 14.6076 21.9083 19.2328 30.0059Z" fill="#FEFEB5"/>
<path d="M21.6236 28.6355C25.5668 35.4341 34.3369 37.8136 41.1355 33.8704C47.934 29.9273 50.3135 21.1571 46.3704 14.3585C42.4272 7.55997 33.6571 5.18047 26.8585 9.12364C20.0599 13.0668 17.6804 21.837 21.6236 28.6355Z" fill="#FCFC6B"/>
</g>
<path d="M5.5 20H62.5" stroke="#302F30" stroke-width="3" stroke-linecap="round"/>
<path d="M63.4972 72.3216L63.9917 73.6H65.3625H81.6C90.5864 73.6 98 66.3227 98 57.3C98 50.23 93.4681 44.0618 87.0335 41.8354C84.4768 30.1911 73.9526 21.5 61.7 21.5C52.4299 21.5 44.0102 26.3893 39.4313 34.1938C38.5454 33.988 37.6662 33.9 36.8 33.9C32.3287 33.9 28.3727 36.2859 26.3647 40.0016C26.2209 40 26.0815 40 25.9457 40H25.9C21.2669 40 16.9446 41.8137 13.7612 45.1108L13.7603 45.1117C10.7172 48.2676 9 52.3591 9 56.7V56.9V56.9244L9.00059 56.9488C9.11263 61.5424 10.9106 65.7533 14.2111 68.8395C17.2961 71.9108 21.4992 73.6 25.9 73.6H43.7718H44.961L45.529 72.5552L55.8572 53.5552L55.8609 53.5482C56.2062 52.907 56.9232 52.5 57.6 52.5C57.6545 52.5 57.7502 52.5111 57.9056 52.5889L57.9886 52.6304L58.0751 52.664C59.0948 53.0605 59.6133 54.0783 59.4429 54.888L59.4366 54.9178L59.4312 54.9479L57.2312 67.2479L56.9506 68.8171L58.4177 69.4407L62.392 71.1297C62.9509 71.3886 63.2752 71.7478 63.4972 72.3216Z" fill="#E3DCE2" stroke="#302F30" stroke-width="4"/>
<g opacity="0.6">
<path style="mix-blend-mode:multiply" fill-rule="evenodd" clip-rule="evenodd" d="M61.7 23.5C73.4 23.5 83.4 32.1 85.3 43.4C91.5 45 96 50.7 96 57.3C96 65.2 89.5 71.6 81.6 71.6H65.3625C64.9568 70.5514 64.2664 69.7847 63.2 69.3L59.2 67.6L61.4 55.3C61.8 53.4 60.6 51.5 58.8 50.8C58.4 50.6 58 50.5 57.6 50.5C56.2 50.5 54.8 51.3 54.1 52.6L43.7718 71.6H25.9C22 71.6 18.3 70.1 15.6 67.4C12.7 64.7 11.1 61 11 56.9V56.7C11 52.9 12.5 49.3 15.2 46.5C18 43.6 21.8 42 25.9 42C26.5 42 27 42 27.6 42.1C29 38.4 32.6 35.9 36.8 35.9C38 35.9 39.2 36.1 40.4 36.6C44.4 28.6 52.6 23.5 61.7 23.5Z" fill="white"/>
</g>
<g style="mix-blend-mode:multiply" opacity="0.3" filter="url(#filter0_f_312_1003)">
<path fill-rule="evenodd" clip-rule="evenodd" d="M48.0731 63.6873C41.4845 64.1367 34.4547 64.5 33.5 64.5C27 64.5 22.5 69.6007 22.5 69.6007H44.8586L48.0731 63.6873ZM60.4846 60.4179L61.4 55.3C61.4512 55.0569 61.4762 54.8139 61.4771 54.5733C62.1252 54.334 62.6465 54.1032 62.6465 54.1032C62.6465 54.1032 66.9994 52.5007 67.75 52.5007C68.5006 52.5007 68.1244 49.5375 67.8901 47.6913L67.75 46.3707C67.75 46.009 67.3022 45.4861 66.7496 44.8407C65.9726 43.9334 64.9884 42.784 64.75 41.5007C64.5753 40.5605 64.7764 39.4193 64.9222 38.5915C65.0132 38.0748 65.0827 37.6802 65.0258 37.533C65.1384 37.5858 65.9481 37.8602 65.9481 37.8602C67.8959 38.5203 70.9771 39.5993 73.75 41.5007C75.4084 42.6378 77.6911 44.8144 77.6911 44.8144C77.6911 44.8144 79.3358 46.0864 79.75 46.5007C80.75 47.5007 83.75 50.5007 85.75 50.5007H90.75L93 52.0907L93.5 55.3007C93.5 63.2007 87 69.6007 79.1 69.6007H63.7581C63.5847 69.4906 63.3989 69.3904 63.2 69.3L59.2 67.6L60.1262 62.4217C60.6816 62.067 60.6884 61.3141 60.4846 60.4179ZM64.99 37.5007C65.0045 37.497 65.0163 37.5084 65.0258 37.533C65.0258 37.533 64.9751 37.5044 64.99 37.5007Z" fill="white"/>
</g>
<path d="M46.2216 75.8423L51.7251 78.1677L47.5657 93.9916C47.3101 94.964 47.8162 95.975 48.7478 96.3531C49.6794 96.7313 50.747 96.359 51.2414 95.4836L63.4414 73.8836C63.7201 73.3903 63.7764 72.8019 63.5964 72.2647C63.4164 71.7275 63.017 71.2918 62.4975 71.0659L57.0513 68.698L59.5677 54.8578C59.7435 53.8913 59.1913 52.9403 58.2649 52.6137C57.3384 52.2872 56.312 52.6818 55.8428 53.5448L45.2428 73.0448C44.9732 73.5408 44.9258 74.1276 45.1122 74.6605C45.2986 75.1933 45.7016 75.6226 46.2216 75.8423Z" fill="#FCFC6B" stroke="white" stroke-width="4" stroke-linejoin="round"/>
<path d="M33.4884 91.4H33.4H33.3066L33.2139 91.4115C31.8336 91.5841 30.5 92.6835 30.5 94.3C30.5 95.7586 31.7034 97.2 33.4 97.2H33.5884L33.5218 97.3143C33.0258 98.0957 33.0807 98.9856 33.277 99.5743C33.4662 100.142 33.8505 100.736 34.4679 101.148C35.2125 101.644 36.0679 101.662 36.7386 101.463C37.3843 101.272 38.0417 100.828 38.4147 100.123L38.4734 100.023L38.5779 100.209C39.0633 101.14 40.0978 101.7 41.1 101.7C41.6399 101.7 42.1859 101.484 42.4708 101.342L42.5543 101.3L42.6321 101.248C43.6587 100.564 44.5356 98.9246 43.5853 97.4252L43.4592 97.2H43.7C45.1586 97.2 46.6 95.9965 46.6 94.3C46.6 92.4629 45.0032 91.5 43.7 91.5H43.4592L43.5865 91.2725C44.3817 90.005 44.0393 88.0874 42.4712 87.3571C41.098 86.6198 39.417 87.0298 38.6015 88.4491L38.5 88.623L38.3985 88.449C37.6264 87.1059 35.9299 86.543 34.5481 87.4003C33.7903 87.8069 33.3755 88.4301 33.177 89.0256C33.0228 89.4881 33.0492 89.9262 33.0901 90.2121C33.1333 90.5143 33.2141 90.7856 33.277 90.9743L33.3261 91.1216L33.4043 91.2558L33.4884 91.4Z" fill="#302F30" stroke="white" stroke-width="3"/>
<path d="M75.4884 91.4H75.4H75.3066L75.2139 91.4115C73.8336 91.5841 72.5 92.6835 72.5 94.3C72.5 95.7586 73.7034 97.2 75.4 97.2H75.5884L75.5218 97.3143C75.0258 98.0957 75.0807 98.9856 75.277 99.5743C75.4662 100.142 75.8505 100.736 76.4679 101.148C77.2125 101.644 78.0679 101.662 78.7386 101.463C79.3843 101.272 80.0417 100.828 80.4147 100.123L80.4734 100.023L80.5779 100.209C81.0633 101.14 82.0978 101.7 83.1 101.7C83.6399 101.7 84.1859 101.484 84.4708 101.342L84.5543 101.3L84.6321 101.248C85.6587 100.564 86.5356 98.9246 85.5853 97.4252L85.4592 97.2H85.7C87.1586 97.2 88.6 95.9965 88.6 94.3C88.6 92.4629 87.0032 91.5 85.7 91.5H85.4592L85.5865 91.2725C86.3817 90.005 86.0393 88.0874 84.4712 87.3571C83.098 86.6198 81.417 87.0298 80.6015 88.4491L80.5 88.623L80.3985 88.449C79.6264 87.1059 77.9299 86.543 76.5481 87.4003C75.7903 87.8069 75.3755 88.4301 75.177 89.0256C75.0228 89.4881 75.0492 89.9262 75.0901 90.2121C75.1333 90.5143 75.2141 90.7856 75.277 90.9743L75.3261 91.1216L75.4043 91.2558L75.4884 91.4Z" fill="#302F30" stroke="white" stroke-width="3"/>
<path d="M18.4884 82.4H18.4H18.3066L18.2139 82.4115C16.8336 82.5841 15.5 83.6835 15.5 85.3C15.5 86.7586 16.7034 88.2 18.4 88.2H18.5884L18.5218 88.3143C18.0258 89.0957 18.0807 89.9856 18.277 90.5743C18.4662 91.1421 18.8505 91.7364 19.4679 92.148C20.2125 92.6444 21.0679 92.6619 21.7386 92.4632C22.3843 92.2718 23.0417 91.8282 23.4147 91.1231L23.4734 91.0225L23.5779 91.2091C24.0633 92.1395 25.0978 92.7 26.1 92.7C26.6399 92.7 27.1859 92.4841 27.4708 92.3416L27.5543 92.2998L27.6321 92.248C28.6587 91.5636 29.5356 89.9246 28.5853 88.4252L28.4592 88.2H28.7C30.1586 88.2 31.6 86.9965 31.6 85.3C31.6 83.4629 30.0032 82.5 28.7 82.5H28.4592L28.5865 82.2725C29.3817 81.005 29.0393 79.0874 27.4712 78.3571C26.098 77.6198 24.417 78.0298 23.6015 79.4491L23.5 79.623L23.3985 79.449C22.6264 78.1059 20.9299 77.543 19.5481 78.4003C18.7903 78.8069 18.3755 79.4301 18.177 80.0256C18.0228 80.4881 18.0492 80.9262 18.0901 81.2121C18.1333 81.5143 18.2141 81.7856 18.277 81.9743L18.3261 82.1216L18.4043 82.2558L18.4884 82.4Z" fill="#302F30" stroke="white" stroke-width="3"/>
<path d="M88.4884 82.4H88.4H88.3066L88.2139 82.4115C86.8336 82.5841 85.5 83.6835 85.5 85.3C85.5 86.7586 86.7034 88.2 88.4 88.2H88.5884L88.5218 88.3143C88.0258 89.0957 88.0807 89.9856 88.277 90.5743C88.4662 91.1421 88.8505 91.7364 89.4679 92.148C90.2125 92.6444 91.0679 92.6619 91.7386 92.4632C92.3843 92.2718 93.0417 91.8282 93.4147 91.1231L93.4734 91.0225L93.5779 91.2091C94.0633 92.1395 95.0978 92.7 96.1 92.7C96.6399 92.7 97.1859 92.4841 97.4708 92.3416L97.5543 92.2998L97.6321 92.248C98.6587 91.5636 99.5356 89.9246 98.5853 88.4252L98.4592 88.2H98.7C100.159 88.2 101.6 86.9965 101.6 85.3C101.6 83.4629 100.003 82.5 98.7 82.5H98.4592L98.5865 82.2725C99.3817 81.005 99.0393 79.0874 97.4712 78.3571C96.098 77.6198 94.417 78.0298 93.6015 79.4491L93.5 79.623L93.3985 79.449C92.6264 78.1059 90.9299 77.543 89.5481 78.4003C88.7903 78.8069 88.3755 79.4301 88.177 80.0256C88.0228 80.4881 88.0492 80.9262 88.0901 81.2121C88.1333 81.5143 88.2141 81.7856 88.277 81.9743L88.3261 82.1216L88.4043 82.2558L88.4884 82.4Z" fill="#302F30" stroke="white" stroke-width="3"/>
<path d="M60.4884 82.4H60.4H60.3066L60.2139 82.4115C58.8336 82.5841 57.5 83.6835 57.5 85.3C57.5 86.7586 58.7034 88.2 60.4 88.2H60.5884L60.5218 88.3143C60.0258 89.0957 60.0807 89.9856 60.277 90.5743C60.4662 91.1421 60.8505 91.7364 61.4679 92.148C62.2125 92.6444 63.0679 92.6619 63.7386 92.4632C64.3843 92.2718 65.0417 91.8282 65.4147 91.1231L65.4734 91.0225L65.5779 91.2091C66.0633 92.1395 67.0978 92.7 68.1 92.7C68.6399 92.7 69.1859 92.4841 69.4708 92.3416L69.5543 92.2998L69.6321 92.248C70.6587 91.5636 71.5356 89.9246 70.5853 88.4252L70.4592 88.2H70.7C72.1586 88.2 73.6 86.9965 73.6 85.3C73.6 83.4629 72.0032 82.5 70.7 82.5H70.4592L70.5865 82.2725C71.3817 81.005 71.0393 79.0874 69.4712 78.3571C68.098 77.6198 66.417 78.0298 65.6015 79.4491L65.5 79.623L65.3985 79.449C64.6264 78.1059 62.9299 77.543 61.5481 78.4003C60.7903 78.8069 60.3755 79.4301 60.177 80.0256C60.0228 80.4881 60.0492 80.9262 60.0901 81.2121C60.1333 81.5143 60.2141 81.7856 60.277 81.9743L60.3261 82.1216L60.4043 82.2558L60.4884 82.4Z" fill="#302F30" stroke="white" stroke-width="3"/>
</g>
<defs>
<filter id="filter0_f_312_1003" x="15.5" y="30.5" width="85" height="46.1007" filterUnits="userSpaceOnUse" color-interpolation-filters="sRGB">
<feFlood flood-opacity="0" result="BackgroundImageFix"/>
<feBlend mode="normal" in="SourceGraphic" in2="BackgroundImageFix" result="shape"/>
<feGaussianBlur stdDeviation="3.5" result="effect1_foregroundBlur_312_1003"/>
</filter>
<clipPath id="clip0_312_1003">
<rect width="104" height="103" fill="white" transform="translate(0 0.5)"/>
</clipPath>
</defs>
</svg>
