<svg width="106" height="110" viewBox="0 0 106 110" fill="none" xmlns="http://www.w3.org/2000/svg">
<g clip-path="url(#clip0_312_1023)">
<path d="M31.5415 9.42676C33.3268 12.5511 34.4427 16.1963 34.4427 20.0646C34.4427 31.8182 24.9207 41.3402 13.1671 41.3402C12.2 41.3402 11.3073 41.2658 10.4146 41.117C14.1342 47.5146 20.9781 51.8292 28.789 51.8292C40.5427 51.8292 50.0646 42.3072 50.0646 30.5536C50.0646 19.6926 42.0305 10.7658 31.5415 9.42676Z" fill="#302F30"/>
<path d="M65.4972 78.3216L65.9917 79.6H67.3625H83.6C92.5864 79.6 100 72.3227 100 63.3C100 56.23 95.4681 50.0618 89.0335 47.8354C86.4768 36.1911 75.9526 27.5 63.7 27.5C54.4299 27.5 46.0102 32.3893 41.4313 40.1938C40.5454 39.988 39.6662 39.9 38.8 39.9C34.3287 39.9 30.3727 42.2859 28.3647 46.0016C28.2209 46 28.0815 46 27.9457 46H27.9C23.2669 46 18.9446 47.8137 15.7612 51.1108L15.7603 51.1117C12.7172 54.2676 11 58.3591 11 62.7V62.9V62.9244L11.0006 62.9488C11.1126 67.5424 12.9106 71.7533 16.2111 74.8395C19.2961 77.9108 23.4992 79.6 27.9 79.6H45.7718H46.961L47.529 78.5552L57.8572 59.5552L57.8609 59.5482C58.2062 58.907 58.9232 58.5 59.6 58.5C59.6545 58.5 59.7502 58.5111 59.9056 58.5889L59.9886 58.6304L60.0751 58.664C61.0948 59.0605 61.6133 60.0783 61.4429 60.888L61.4366 60.9178L61.4312 60.9479L59.2312 73.2479L58.9506 74.8171L60.4177 75.4407L64.392 77.1297C64.9509 77.3886 65.2752 77.7478 65.4972 78.3216Z" fill="#E3DCE2" stroke="#302F30" stroke-width="4"/>
<g opacity="0.6">
<path style="mix-blend-mode:multiply" fill-rule="evenodd" clip-rule="evenodd" d="M63.7 29.5C75.4 29.5 85.4 38.1 87.3 49.4C93.5 51 98 56.7 98 63.3C98 71.2 91.5 77.6 83.6 77.6H67.3625C66.9568 76.5514 66.2664 75.7847 65.2 75.3L61.2 73.6L63.4 61.3C63.8 59.4 62.6 57.5 60.8 56.8C60.4 56.6 60 56.5 59.6 56.5C58.2 56.5 56.8 57.3 56.1 58.6L45.7718 77.6H27.9C24 77.6 20.3 76.1 17.6 73.4C14.7 70.7 13.1 67 13 62.9V62.7C13 58.9 14.5 55.3 17.2 52.5C20 49.6 23.8 48 27.9 48C28.5 48 29 48 29.6 48.1C31 44.4 34.6 41.9 38.8 41.9C40 41.9 41.2 42.1 42.4 42.6C46.4 34.6 54.6 29.5 63.7 29.5Z" fill="white"/>
</g>
<g style="mix-blend-mode:multiply" opacity="0.3" filter="url(#filter0_f_312_1023)">
<path fill-rule="evenodd" clip-rule="evenodd" d="M50.0731 69.6873C43.4845 70.1367 36.4547 70.5 35.5 70.5C29 70.5 24.5 75.6007 24.5 75.6007H46.8586L50.0731 69.6873ZM62.4846 66.4179L63.4 61.3C63.4512 61.0569 63.4762 60.8139 63.4771 60.5733C64.1252 60.334 64.6465 60.1032 64.6465 60.1032C64.6465 60.1032 68.9994 58.5007 69.75 58.5007C70.5006 58.5007 70.1244 55.5375 69.8901 53.6913L69.75 52.3707C69.75 52.009 69.3022 51.4861 68.7496 50.8407C67.9726 49.9334 66.9884 48.784 66.75 47.5007C66.5753 46.5605 66.7764 45.4193 66.9222 44.5915C67.0132 44.0748 67.0827 43.6802 67.0258 43.533C67.1384 43.5858 67.9481 43.8602 67.9481 43.8602C69.8959 44.5203 72.9771 45.5993 75.75 47.5007C77.4084 48.6378 79.6911 50.8144 79.6911 50.8144C79.6911 50.8144 81.3358 52.0864 81.75 52.5007C82.75 53.5007 85.75 56.5007 87.75 56.5007H92.75L95 58.0907L95.5 61.3007C95.5 69.2007 89 75.6007 81.1 75.6007H65.7581C65.5847 75.4906 65.3989 75.3904 65.2 75.3L61.2 73.6L62.1262 68.4217C62.6816 68.067 62.6884 67.3141 62.4846 66.4179ZM66.99 43.5007C67.0045 43.497 67.0163 43.5084 67.0258 43.533C67.0258 43.533 66.9751 43.5044 66.99 43.5007Z" fill="white"/>
</g>
<path d="M48.2216 81.8423L53.7251 84.1677L49.5657 99.9916C49.3101 100.964 49.8162 101.975 50.7478 102.353C51.6794 102.731 52.747 102.359 53.2414 101.484L65.4414 79.8836C65.7201 79.3903 65.7764 78.8019 65.5964 78.2647C65.4164 77.7275 65.017 77.2918 64.4975 77.0659L59.0513 74.698L61.5677 60.8578C61.7435 59.8913 61.1913 58.9403 60.2649 58.6137C59.3384 58.2872 58.312 58.6818 57.8428 59.5448L47.2428 79.0448C46.9732 79.5408 46.9258 80.1276 47.1122 80.6605C47.2986 81.1933 47.7016 81.6226 48.2216 81.8423Z" fill="#FCFC6B" stroke="white" stroke-width="4" stroke-linejoin="round"/>
<path d="M35.4884 97.4H35.4H35.3066L35.2139 97.4115C33.8336 97.5841 32.5 98.6835 32.5 100.3C32.5 101.759 33.7034 103.2 35.4 103.2H35.5884L35.5218 103.314C35.0258 104.096 35.0807 104.986 35.277 105.574C35.4662 106.142 35.8505 106.736 36.4679 107.148C37.2125 107.644 38.0679 107.662 38.7386 107.463C39.3843 107.272 40.0417 106.828 40.4147 106.123L40.4734 106.022L40.5779 106.209C41.0633 107.14 42.0978 107.7 43.1 107.7C43.6399 107.7 44.1859 107.484 44.4708 107.342L44.5543 107.3L44.6321 107.248C45.6587 106.564 46.5356 104.925 45.5853 103.425L45.4592 103.2H45.7C47.1586 103.2 48.6 101.997 48.6 100.3C48.6 98.4629 47.0032 97.5 45.7 97.5H45.4592L45.5865 97.2725C46.3817 96.005 46.0393 94.0874 44.4712 93.3571C43.098 92.6198 41.417 93.0298 40.6015 94.4491L40.5 94.623L40.3985 94.449C39.6264 93.1059 37.9299 92.543 36.5481 93.4003C35.7903 93.8069 35.3755 94.4301 35.177 95.0256C35.0228 95.4881 35.0492 95.9262 35.0901 96.2121C35.1333 96.5143 35.2141 96.7856 35.277 96.9743L35.3261 97.1216L35.4043 97.2558L35.4884 97.4Z" fill="#302F30" stroke="white" stroke-width="3"/>
<path d="M77.4884 97.4H77.4H77.3066L77.2139 97.4115C75.8336 97.5841 74.5 98.6835 74.5 100.3C74.5 101.759 75.7034 103.2 77.4 103.2H77.5884L77.5218 103.314C77.0258 104.096 77.0807 104.986 77.277 105.574C77.4662 106.142 77.8505 106.736 78.4679 107.148C79.2125 107.644 80.0679 107.662 80.7386 107.463C81.3843 107.272 82.0417 106.828 82.4147 106.123L82.4734 106.022L82.5779 106.209C83.0633 107.14 84.0978 107.7 85.1 107.7C85.6399 107.7 86.1859 107.484 86.4708 107.342L86.5543 107.3L86.6321 107.248C87.6587 106.564 88.5356 104.925 87.5853 103.425L87.4592 103.2H87.7C89.1586 103.2 90.6 101.997 90.6 100.3C90.6 98.4629 89.0032 97.5 87.7 97.5H87.4592L87.5865 97.2725C88.3817 96.005 88.0393 94.0874 86.4712 93.3571C85.098 92.6198 83.417 93.0298 82.6015 94.4491L82.5 94.623L82.3985 94.449C81.6264 93.1059 79.9299 92.543 78.5481 93.4003C77.7903 93.8069 77.3755 94.4301 77.177 95.0256C77.0228 95.4881 77.0492 95.9262 77.0901 96.2121C77.1333 96.5143 77.2141 96.7856 77.277 96.9743L77.3261 97.1216L77.4043 97.2558L77.4884 97.4Z" fill="#302F30" stroke="white" stroke-width="3"/>
<path d="M20.4884 88.4H20.4H20.3066L20.2139 88.4115C18.8336 88.5841 17.5 89.6835 17.5 91.3C17.5 92.7586 18.7034 94.2 20.4 94.2H20.5884L20.5218 94.3143C20.0258 95.0957 20.0807 95.9856 20.277 96.5743C20.4662 97.1421 20.8505 97.7364 21.4679 98.148C22.2125 98.6444 23.0679 98.6619 23.7386 98.4632C24.3843 98.2718 25.0417 97.8282 25.4147 97.1231L25.4734 97.0225L25.5779 97.2091C26.0633 98.1395 27.0978 98.7 28.1 98.7C28.6399 98.7 29.1859 98.4841 29.4708 98.3416L29.5543 98.2998L29.6321 98.248C30.6587 97.5636 31.5356 95.9246 30.5853 94.4252L30.4592 94.2H30.7C32.1586 94.2 33.6 92.9965 33.6 91.3C33.6 89.4629 32.0032 88.5 30.7 88.5H30.4592L30.5865 88.2725C31.3817 87.005 31.0393 85.0874 29.4712 84.3571C28.098 83.6198 26.417 84.0298 25.6015 85.4491L25.5 85.623L25.3985 85.449C24.6264 84.1059 22.9299 83.543 21.5481 84.4003C20.7903 84.8069 20.3755 85.4301 20.177 86.0256C20.0228 86.4881 20.0492 86.9262 20.0901 87.2121C20.1333 87.5143 20.2141 87.7856 20.277 87.9743L20.3261 88.1216L20.4043 88.2558L20.4884 88.4Z" fill="#302F30" stroke="white" stroke-width="3"/>
<path d="M90.4884 88.4H90.4H90.3066L90.2139 88.4115C88.8336 88.5841 87.5 89.6835 87.5 91.3C87.5 92.7586 88.7034 94.2 90.4 94.2H90.5884L90.5218 94.3143C90.0258 95.0957 90.0807 95.9856 90.277 96.5743C90.4662 97.1421 90.8505 97.7364 91.4679 98.148C92.2125 98.6444 93.0679 98.6619 93.7386 98.4632C94.3843 98.2718 95.0417 97.8282 95.4147 97.1231L95.4734 97.0225L95.5779 97.2091C96.0633 98.1395 97.0978 98.7 98.1 98.7C98.6399 98.7 99.1859 98.4841 99.4708 98.3416L99.5543 98.2998L99.6321 98.248C100.659 97.5636 101.536 95.9246 100.585 94.4252L100.459 94.2H100.7C102.159 94.2 103.6 92.9965 103.6 91.3C103.6 89.4629 102.003 88.5 100.7 88.5H100.459L100.587 88.2725C101.382 87.005 101.039 85.0874 99.4712 84.3571C98.098 83.6198 96.417 84.0298 95.6015 85.4491L95.5 85.623L95.3985 85.449C94.6264 84.1059 92.9299 83.543 91.5481 84.4003C90.7903 84.8069 90.3755 85.4301 90.177 86.0256C90.0228 86.4881 90.0492 86.9262 90.0901 87.2121C90.1333 87.5143 90.2141 87.7856 90.277 87.9743L90.3261 88.1216L90.4043 88.2558L90.4884 88.4Z" fill="#302F30" stroke="white" stroke-width="3"/>
<path d="M62.4884 88.4H62.4H62.3066L62.2139 88.4115C60.8336 88.5841 59.5 89.6835 59.5 91.3C59.5 92.7586 60.7034 94.2 62.4 94.2H62.5884L62.5218 94.3143C62.0258 95.0957 62.0807 95.9856 62.277 96.5743C62.4662 97.1421 62.8505 97.7364 63.4679 98.148C64.2125 98.6444 65.0679 98.6619 65.7386 98.4632C66.3843 98.2718 67.0417 97.8282 67.4147 97.1231L67.4734 97.0225L67.5779 97.2091C68.0633 98.1395 69.0978 98.7 70.1 98.7C70.6399 98.7 71.1859 98.4841 71.4708 98.3416L71.5543 98.2998L71.6321 98.248C72.6587 97.5636 73.5356 95.9246 72.5853 94.4252L72.4592 94.2H72.7C74.1586 94.2 75.6 92.9965 75.6 91.3C75.6 89.4629 74.0032 88.5 72.7 88.5H72.4592L72.5865 88.2725C73.3817 87.005 73.0393 85.0874 71.4712 84.3571C70.098 83.6198 68.417 84.0298 67.6015 85.4491L67.5 85.623L67.3985 85.449C66.6264 84.1059 64.9299 83.543 63.5481 84.4003C62.7903 84.8069 62.3755 85.4301 62.177 86.0256C62.0228 86.4881 62.0492 86.9262 62.0901 87.2121C62.1333 87.5143 62.2141 87.7856 62.277 87.9743L62.3261 88.1216L62.4043 88.2558L62.4884 88.4Z" fill="#302F30" stroke="white" stroke-width="3"/>
</g>
<defs>
<filter id="filter0_f_312_1023" x="17.5" y="36.5" width="85" height="46.1007" filterUnits="userSpaceOnUse" color-interpolation-filters="sRGB">
<feFlood flood-opacity="0" result="BackgroundImageFix"/>
<feBlend mode="normal" in="SourceGraphic" in2="BackgroundImageFix" result="shape"/>
<feGaussianBlur stdDeviation="3.5" result="effect1_foregroundBlur_312_1023"/>
</filter>
<clipPath id="clip0_312_1023">
<rect width="106" height="109" fill="white" transform="translate(0 0.5)"/>
</clipPath>
</defs>
</svg>
