<svg width="100" height="104" viewBox="0 0 100 104" fill="none" xmlns="http://www.w3.org/2000/svg">
<g clip-path="url(#clip0_312_1075)">
<path d="M59.4972 72.3216L59.9917 73.6H61.3625H77.6C86.5864 73.6 94 66.3227 94 57.3C94 50.23 89.4681 44.0618 83.0335 41.8354C80.4768 30.1911 69.9526 21.5 57.7 21.5C48.4299 21.5 40.0102 26.3893 35.4313 34.1938C34.5454 33.988 33.6662 33.9 32.8 33.9C28.3287 33.9 24.3727 36.2859 22.3647 40.0016C22.2209 40 22.0815 40 21.9457 40H21.9C17.2669 40 12.9446 41.8137 9.7612 45.1108L9.76031 45.1117C6.71717 48.2676 5 52.3591 5 56.7V56.9V56.9244L5.00059 56.9488C5.11263 61.5424 6.91061 65.7533 10.2111 68.8395C13.2961 71.9108 17.4992 73.6 21.9 73.6H39.7718H40.961L41.529 72.5552L51.8572 53.5552L51.8609 53.5482C52.2062 52.907 52.9232 52.5 53.6 52.5C53.6545 52.5 53.7502 52.5111 53.9056 52.5889L53.9886 52.6304L54.0751 52.664C55.0948 53.0605 55.6133 54.0783 55.4429 54.888L55.4366 54.9178L55.4312 54.9479L53.2312 67.2479L52.9506 68.8171L54.4177 69.4407L58.392 71.1297C58.9509 71.3886 59.2752 71.7478 59.4972 72.3216Z" fill="#E3DCE2" stroke="#302F30" stroke-width="4"/>
<g opacity="0.6">
<path style="mix-blend-mode:multiply" fill-rule="evenodd" clip-rule="evenodd" d="M57.7 23.5C69.4 23.5 79.4 32.1 81.3 43.4C87.5 45 92 50.7 92 57.3C92 65.2 85.5 71.6 77.6 71.6H61.3625C60.9568 70.5514 60.2664 69.7847 59.2 69.3L55.2 67.6L57.4 55.3C57.8 53.4 56.6 51.5 54.8 50.8C54.4 50.6 54 50.5 53.6 50.5C52.2 50.5 50.8 51.3 50.1 52.6L39.7718 71.6H21.9C18 71.6 14.3 70.1 11.6 67.4C8.7 64.7 7.1 61 7 56.9V56.7C7 52.9 8.5 49.3 11.2 46.5C14 43.6 17.8 42 21.9 42C22.5 42 23 42 23.6 42.1C25 38.4 28.6 35.9 32.8 35.9C34 35.9 35.2 36.1 36.4 36.6C40.4 28.6 48.6 23.5 57.7 23.5Z" fill="white"/>
</g>
<g style="mix-blend-mode:multiply" opacity="0.3" filter="url(#filter0_f_312_1075)">
<path fill-rule="evenodd" clip-rule="evenodd" d="M44.0731 63.6873C37.4845 64.1367 30.4547 64.5 29.5 64.5C23 64.5 18.5 69.6007 18.5 69.6007H40.8586L44.0731 63.6873ZM56.4846 60.4179L57.4 55.3C57.4512 55.0569 57.4762 54.8139 57.4771 54.5733C58.1252 54.334 58.6465 54.1032 58.6465 54.1032C58.6465 54.1032 62.9994 52.5007 63.75 52.5007C64.5006 52.5007 64.1244 49.5375 63.8901 47.6913L63.75 46.3707C63.75 46.009 63.3022 45.4861 62.7496 44.8407C61.9726 43.9334 60.9884 42.784 60.75 41.5007C60.5753 40.5605 60.7764 39.4193 60.9222 38.5915C61.0132 38.0748 61.0827 37.6802 61.0258 37.533C61.1384 37.5858 61.9481 37.8602 61.9481 37.8602C63.8959 38.5203 66.9771 39.5993 69.75 41.5007C71.4084 42.6378 73.6911 44.8144 73.6911 44.8144C73.6911 44.8144 75.3358 46.0864 75.75 46.5007C76.75 47.5007 79.75 50.5007 81.75 50.5007H86.75L89 52.0907L89.5 55.3007C89.5 63.2007 83 69.6007 75.1 69.6007H59.7581C59.5847 69.4906 59.3989 69.3904 59.2 69.3L55.2 67.6L56.1262 62.4217C56.6816 62.067 56.6884 61.3141 56.4846 60.4179ZM60.99 37.5007C61.0045 37.497 61.0163 37.5084 61.0258 37.533C61.0258 37.533 60.9751 37.5044 60.99 37.5007Z" fill="white"/>
</g>
<path d="M42.2216 75.8423L47.7251 78.1677L43.5657 93.9916C43.3101 94.964 43.8162 95.975 44.7478 96.3531C45.6794 96.7313 46.747 96.359 47.2414 95.4836L59.4414 73.8836C59.7201 73.3903 59.7764 72.8019 59.5964 72.2647C59.4164 71.7275 59.017 71.2918 58.4975 71.0659L53.0513 68.698L55.5677 54.8578C55.7435 53.8913 55.1913 52.9403 54.2649 52.6137C53.3384 52.2872 52.312 52.6818 51.8428 53.5448L41.2428 73.0448C40.9732 73.5408 40.9258 74.1276 41.1122 74.6605C41.2986 75.1933 41.7016 75.6226 42.2216 75.8423Z" fill="#FCFC6B" stroke="white" stroke-width="4" stroke-linejoin="round"/>
<path d="M29.4884 91.4H29.4H29.3066L29.2139 91.4115C27.8336 91.5841 26.5 92.6835 26.5 94.3C26.5 95.7586 27.7034 97.2 29.4 97.2H29.5884L29.5218 97.3143C29.0258 98.0957 29.0807 98.9856 29.277 99.5743C29.4662 100.142 29.8505 100.736 30.4679 101.148C31.2125 101.644 32.0679 101.662 32.7386 101.463C33.3843 101.272 34.0417 100.828 34.4147 100.123L34.4734 100.023L34.5779 100.209C35.0633 101.14 36.0978 101.7 37.1 101.7C37.6399 101.7 38.1859 101.484 38.4708 101.342L38.5543 101.3L38.6321 101.248C39.6587 100.564 40.5356 98.9246 39.5853 97.4252L39.4592 97.2H39.7C41.1586 97.2 42.6 95.9965 42.6 94.3C42.6 92.4629 41.0032 91.5 39.7 91.5H39.4592L39.5865 91.2725C40.3817 90.005 40.0393 88.0874 38.4712 87.3571C37.098 86.6198 35.417 87.0298 34.6015 88.4491L34.5 88.623L34.3985 88.449C33.6264 87.1059 31.9299 86.543 30.5481 87.4003C29.7903 87.8069 29.3755 88.4301 29.177 89.0256C29.0228 89.4881 29.0492 89.9262 29.0901 90.2121C29.1333 90.5143 29.2141 90.7856 29.277 90.9743L29.3261 91.1216L29.4043 91.2558L29.4884 91.4Z" fill="#302F30" stroke="white" stroke-width="3"/>
<path d="M71.4884 91.4H71.4H71.3066L71.2139 91.4115C69.8336 91.5841 68.5 92.6835 68.5 94.3C68.5 95.7586 69.7034 97.2 71.4 97.2H71.5884L71.5218 97.3143C71.0258 98.0957 71.0807 98.9856 71.277 99.5743C71.4662 100.142 71.8505 100.736 72.4679 101.148C73.2125 101.644 74.0679 101.662 74.7386 101.463C75.3843 101.272 76.0417 100.828 76.4147 100.123L76.4734 100.023L76.5779 100.209C77.0633 101.14 78.0978 101.7 79.1 101.7C79.6399 101.7 80.1859 101.484 80.4708 101.342L80.5543 101.3L80.6321 101.248C81.6587 100.564 82.5356 98.9246 81.5853 97.4252L81.4592 97.2H81.7C83.1586 97.2 84.6 95.9965 84.6 94.3C84.6 92.4629 83.0032 91.5 81.7 91.5H81.4592L81.5865 91.2725C82.3817 90.005 82.0393 88.0874 80.4712 87.3571C79.098 86.6198 77.417 87.0298 76.6015 88.4491L76.5 88.623L76.3985 88.449C75.6264 87.1059 73.9299 86.543 72.5481 87.4003C71.7903 87.8069 71.3755 88.4301 71.177 89.0256C71.0228 89.4881 71.0492 89.9262 71.0901 90.2121C71.1333 90.5143 71.2141 90.7856 71.277 90.9743L71.3261 91.1216L71.4043 91.2558L71.4884 91.4Z" fill="#302F30" stroke="white" stroke-width="3"/>
<path d="M14.4884 82.4H14.4H14.3066L14.2139 82.4115C12.8336 82.5841 11.5 83.6835 11.5 85.3C11.5 86.7586 12.7034 88.2 14.4 88.2H14.5884L14.5218 88.3143C14.0258 89.0957 14.0807 89.9856 14.277 90.5743C14.4662 91.1421 14.8505 91.7364 15.4679 92.148C16.2125 92.6444 17.0679 92.6619 17.7386 92.4632C18.3843 92.2718 19.0417 91.8282 19.4147 91.1231L19.4734 91.0225L19.5779 91.2091C20.0633 92.1395 21.0978 92.7 22.1 92.7C22.6399 92.7 23.1859 92.4841 23.4708 92.3416L23.5543 92.2998L23.6321 92.248C24.6587 91.5636 25.5356 89.9246 24.5853 88.4252L24.4592 88.2H24.7C26.1586 88.2 27.6 86.9965 27.6 85.3C27.6 83.4629 26.0032 82.5 24.7 82.5H24.4592L24.5865 82.2725C25.3817 81.005 25.0393 79.0874 23.4712 78.3571C22.098 77.6198 20.417 78.0298 19.6015 79.4491L19.5 79.623L19.3985 79.449C18.6264 78.1059 16.9299 77.543 15.5481 78.4003C14.7903 78.8069 14.3755 79.4301 14.177 80.0256C14.0228 80.4881 14.0492 80.9262 14.0901 81.2121C14.1333 81.5143 14.2141 81.7856 14.277 81.9743L14.3261 82.1216L14.4043 82.2558L14.4884 82.4Z" fill="#302F30" stroke="white" stroke-width="3"/>
<path d="M84.4884 82.4H84.4H84.3066L84.2139 82.4115C82.8336 82.5841 81.5 83.6835 81.5 85.3C81.5 86.7586 82.7034 88.2 84.4 88.2H84.5884L84.5218 88.3143C84.0258 89.0957 84.0807 89.9856 84.277 90.5743C84.4662 91.1421 84.8505 91.7364 85.4679 92.148C86.2125 92.6444 87.0679 92.6619 87.7386 92.4632C88.3843 92.2718 89.0417 91.8282 89.4147 91.1231L89.4734 91.0225L89.5779 91.2091C90.0633 92.1395 91.0978 92.7 92.1 92.7C92.6399 92.7 93.1859 92.4841 93.4708 92.3416L93.5543 92.2998L93.6321 92.248C94.6587 91.5636 95.5356 89.9246 94.5853 88.4252L94.4592 88.2H94.7C96.1586 88.2 97.6 86.9965 97.6 85.3C97.6 83.4629 96.0032 82.5 94.7 82.5H94.4592L94.5865 82.2725C95.3817 81.005 95.0393 79.0874 93.4712 78.3571C92.098 77.6198 90.417 78.0298 89.6015 79.4491L89.5 79.623L89.3985 79.449C88.6264 78.1059 86.9299 77.543 85.5481 78.4003C84.7903 78.8069 84.3755 79.4301 84.177 80.0256C84.0228 80.4881 84.0492 80.9262 84.0901 81.2121C84.1333 81.5143 84.2141 81.7856 84.277 81.9743L84.3261 82.1216L84.4043 82.2558L84.4884 82.4Z" fill="#302F30" stroke="white" stroke-width="3"/>
<path d="M56.4884 82.4H56.4H56.3066L56.2139 82.4115C54.8336 82.5841 53.5 83.6835 53.5 85.3C53.5 86.7586 54.7034 88.2 56.4 88.2H56.5884L56.5218 88.3143C56.0258 89.0957 56.0807 89.9856 56.277 90.5743C56.4662 91.1421 56.8505 91.7364 57.4679 92.148C58.2125 92.6444 59.0679 92.6619 59.7386 92.4632C60.3843 92.2718 61.0417 91.8282 61.4147 91.1231L61.4734 91.0225L61.5779 91.2091C62.0633 92.1395 63.0978 92.7 64.1 92.7C64.6399 92.7 65.1859 92.4841 65.4708 92.3416L65.5543 92.2998L65.6321 92.248C66.6587 91.5636 67.5356 89.9246 66.5853 88.4252L66.4592 88.2H66.7C68.1586 88.2 69.6 86.9965 69.6 85.3C69.6 83.4629 68.0032 82.5 66.7 82.5H66.4592L66.5865 82.2725C67.3817 81.005 67.0393 79.0874 65.4712 78.3571C64.098 77.6198 62.417 78.0298 61.6015 79.4491L61.5 79.623L61.3985 79.449C60.6264 78.1059 58.9299 77.543 57.5481 78.4003C56.7903 78.8069 56.3755 79.4301 56.177 80.0256C56.0228 80.4881 56.0492 80.9262 56.0901 81.2121C56.1333 81.5143 56.2141 81.7856 56.277 81.9743L56.3261 82.1216L56.4043 82.2558L56.4884 82.4Z" fill="#302F30" stroke="white" stroke-width="3"/>
</g>
<defs>
<filter id="filter0_f_312_1075" x="11.5" y="30.5" width="85" height="46.1007" filterUnits="userSpaceOnUse" color-interpolation-filters="sRGB">
<feFlood flood-opacity="0" result="BackgroundImageFix"/>
<feBlend mode="normal" in="SourceGraphic" in2="BackgroundImageFix" result="shape"/>
<feGaussianBlur stdDeviation="3.5" result="effect1_foregroundBlur_312_1075"/>
</filter>
<clipPath id="clip0_312_1075">
<rect width="100" height="103" fill="white" transform="translate(0 0.5)"/>
</clipPath>
</defs>
</svg>
