<svg width="106" height="108" viewBox="0 0 106 108" fill="none" xmlns="http://www.w3.org/2000/svg">
<g clip-path="url(#clip0_312_1207)">
<path d="M31.5415 9.42676C33.3268 12.5511 34.4427 16.1963 34.4427 20.0646C34.4427 31.8182 24.9207 41.3402 13.1671 41.3402C12.2 41.3402 11.3073 41.2658 10.4146 41.117C14.1342 47.5146 20.9781 51.8292 28.789 51.8292C40.5427 51.8292 50.0646 42.3072 50.0646 30.5536C50.0646 19.6926 42.0305 10.7658 31.5415 9.42676Z" fill="#302F30"/>
<path d="M15.7612 51.1108L15.7603 51.1117C12.7172 54.2676 11 58.3591 11 62.7V62.9V62.9244L11.0006 62.9488C11.1126 67.5423 12.9106 71.7533 16.211 74.8394C19.2961 77.9108 23.4992 79.6 27.9 79.6H83.6C92.5864 79.6 100 72.3227 100 63.3C100 56.23 95.4681 50.0618 89.0335 47.8354C86.4768 36.1911 75.9526 27.5 63.7 27.5C54.4299 27.5 46.0102 32.3893 41.4313 40.1938C40.5454 39.988 39.6662 39.9 38.8 39.9C34.3287 39.9 30.3727 42.2859 28.3647 46.0016C28.2209 46 28.0815 46 27.9457 46H27.9C23.2669 46 18.9446 47.8137 15.7612 51.1108Z" fill="#F7F5F6" stroke="#302F30" stroke-width="4"/>
<g opacity="0.6">
<path style="mix-blend-mode:multiply" fill-rule="evenodd" clip-rule="evenodd" d="M87.3 49.4C85.4 38.1 75.4 29.5 63.7 29.5C54.6 29.5 46.4 34.6 42.4 42.6C41.2 42.1 40 41.9 38.8 41.9C34.6 41.9 31 44.4 29.6 48.1C29 48 28.5 48 27.9 48C23.8 48 20 49.6 17.2 52.5C14.5 55.3 13 58.9 13 62.7V62.9C13.1 67 14.7 70.7 17.6 73.4C20.3 76.1 24 77.6 27.9 77.6H83.6C91.5 77.6 98 71.2 98 63.3C98 56.7 93.5 51 87.3 49.4Z" fill="white"/>
</g>
<g style="mix-blend-mode:multiply" opacity="0.3" filter="url(#filter0_f_312_1207)">
<path d="M35.5 70.5C37.2867 70.5 60.3482 69.2276 61.98 68.5C64.2101 67.5057 59.5895 61.5283 61.98 61.0307C63.0594 60.806 64.6465 60.1032 64.6465 60.1032C64.6465 60.1032 68.9994 58.5007 69.75 58.5007C70.5006 58.5007 70.1244 55.5374 69.8901 53.6913L69.75 52.3707C69.75 51.5007 67.158 49.6968 66.75 47.5007C66.4663 45.9736 67.1738 43.916 67.0258 43.533C67.0258 43.533 66.9751 43.5044 66.99 43.5007C67.0045 43.497 67.0163 43.5084 67.0258 43.533C67.1384 43.5858 67.9481 43.8602 67.9481 43.8602C69.8959 44.5203 72.9771 45.5993 75.75 47.5007C77.4084 48.6378 79.6911 50.8144 79.6911 50.8144C79.6911 50.8144 81.3358 52.0864 81.75 52.5007C82.75 53.5007 85.75 56.5007 87.75 56.5007H92.75L95 58.0907L95.5 61.3007C95.5 69.2007 89 75.6007 81.1 75.6007H24.5C24.5 75.6007 29 70.5 35.5 70.5Z" fill="white"/>
</g>
<path d="M36.4884 95.4H36.4H36.3066L36.2139 95.4115C34.8336 95.5841 33.5 96.6835 33.5 98.3C33.5 99.7586 34.7034 101.2 36.4 101.2H36.5884L36.5218 101.314C36.0258 102.096 36.0807 102.986 36.277 103.574C36.4662 104.142 36.8505 104.736 37.4679 105.148C38.2125 105.644 39.0679 105.662 39.7386 105.463C40.3843 105.272 41.0417 104.828 41.4147 104.123L41.4734 104.022L41.5779 104.209C42.0633 105.14 43.0978 105.7 44.1 105.7C44.6399 105.7 45.1859 105.484 45.4708 105.342L45.5543 105.3L45.6321 105.248C46.6587 104.564 47.5356 102.925 46.5853 101.425L46.4592 101.2H46.7C48.1586 101.2 49.6 99.9965 49.6 98.3C49.6 96.4629 48.0032 95.5 46.7 95.5H46.4592L46.5865 95.2725C47.3817 94.005 47.0393 92.0874 45.4712 91.3571C44.098 90.6198 42.417 91.0298 41.6015 92.4491L41.5 92.623L41.3985 92.449C40.6264 91.1059 38.9299 90.543 37.5481 91.4003C36.7903 91.8069 36.3755 92.4301 36.177 93.0256C36.0228 93.4881 36.0492 93.9262 36.0901 94.2121C36.1333 94.5143 36.2141 94.7856 36.277 94.9743L36.3261 95.1216L36.4043 95.2558L36.4884 95.4Z" fill="#302F30" stroke="white" stroke-width="3"/>
<path d="M67.8714 98.662L67.9468 98.6968L68.0257 98.7231C68.3672 98.8369 68.9528 99 69.5 99C71.0151 99 72.518 98.2142 73.1828 96.5817L76.6742 88.6013L76.6878 88.5702L76.7 88.5385C77.464 86.552 76.6952 84.2919 74.6286 83.3381L74.5841 83.3176L74.5385 83.3C72.552 82.536 70.2919 83.3048 69.3381 85.3714L69.3318 85.3851L69.3258 85.3988L65.8258 93.3988L65.8122 93.4299L65.8 93.4616C65.036 95.448 65.8048 97.7081 67.8714 98.662Z" fill="#302F30" stroke="white" stroke-width="3"/>
</g>
<defs>
<filter id="filter0_f_312_1207" x="17.5" y="36.5" width="85" height="46.1007" filterUnits="userSpaceOnUse" color-interpolation-filters="sRGB">
<feFlood flood-opacity="0" result="BackgroundImageFix"/>
<feBlend mode="normal" in="SourceGraphic" in2="BackgroundImageFix" result="shape"/>
<feGaussianBlur stdDeviation="3.5" result="effect1_foregroundBlur_312_1207"/>
</filter>
<clipPath id="clip0_312_1207">
<rect width="106" height="107" fill="white" transform="translate(0 0.5)"/>
</clipPath>
</defs>
</svg>
