<svg width="100" height="103" viewBox="0 0 100 103" fill="none" xmlns="http://www.w3.org/2000/svg">
<g clip-path="url(#clip0_312_1216)">
<mask id="mask0_312_1216" style="mask-type:luminance" maskUnits="userSpaceOnUse" x="0" y="0" width="100" height="101">
<path d="M100 0.5H0V100.5H100V0.5Z" fill="white"/>
</mask>
<g mask="url(#mask0_312_1216)">
<path fill-rule="evenodd" clip-rule="evenodd" d="M52.3146 19.0169L54.072 16.5601L42.716 17.7841L43.872 6.36012L34.624 13.0921L30 2.62012L25.376 13.0921L16.06 6.36012L17.284 17.7161L5.86 16.5601L12.592 25.8081L2.12 30.5001L12.592 35.1241L5.86 44.4401L6.4302 44.3787C6.79888 43.9377 7.18901 43.5111 7.6 43.1001C11.1 39.5001 15.7 37.4001 20.7 37.1001C23.4 33.2001 27.9 30.9001 32.8 30.9001H33.9C38.2631 24.7594 44.9113 20.4466 52.3146 19.0169Z" fill="#FCFC6B" stroke="#302F30" stroke-width="3"/>
</g>
<path fill-rule="evenodd" clip-rule="evenodd" d="M14.867 38.3308C16.7147 37.6384 18.6745 37.2215 20.7 37.1C23.4 33.2 27.9 30.9 32.8 30.9H33.9C36.6679 27.0044 40.3553 23.8445 44.5718 21.6896C39.7966 13.8271 29.5494 11.165 21.4904 15.7337C13.6195 20.2995 10.7654 30.3348 14.867 38.3308Z" fill="#FEFEB5"/>
<path fill-rule="evenodd" clip-rule="evenodd" d="M17.5653 37.5338C18.5875 37.3093 19.6347 37.1637 20.7 37.0998C23.4 33.1998 27.9 30.8998 32.8 30.8998H33.9C36.1324 27.7578 38.9631 25.0944 42.187 23.0509C38.1607 16.4887 29.5536 14.2403 22.8585 18.1234C16.0937 22.047 13.7042 30.7496 17.5653 37.5338Z" fill="#FCFC6B"/>
<path d="M9.7612 45.1108L9.76031 45.1117C6.71717 48.2676 5 52.3591 5 56.7V56.9V56.9244L5.00059 56.9488C5.11263 61.5423 6.91058 65.7533 10.211 68.8394C13.2961 71.9108 17.4992 73.6 21.9 73.6H77.6C86.5864 73.6 94 66.3227 94 57.3C94 50.23 89.4681 44.0618 83.0335 41.8354C80.4768 30.1911 69.9526 21.5 57.7 21.5C48.4299 21.5 40.0102 26.3893 35.4313 34.1938C34.5454 33.988 33.6662 33.9 32.8 33.9C28.3287 33.9 24.3727 36.2859 22.3647 40.0016C22.2209 40 22.0815 40 21.9457 40H21.9C17.2669 40 12.9446 41.8137 9.7612 45.1108Z" fill="#E3DCE2" stroke="#302F30" stroke-width="4"/>
<g opacity="0.6">
<path style="mix-blend-mode:multiply" fill-rule="evenodd" clip-rule="evenodd" d="M81.3 43.4C79.4 32.1 69.4 23.5 57.7 23.5C48.6 23.5 40.4 28.6 36.4 36.6C35.2 36.1 34 35.9 32.8 35.9C28.6 35.9 25 38.4 23.6 42.1C23 42 22.5 42 21.9 42C17.8 42 14 43.6 11.2 46.5C8.5 49.3 7 52.9 7 56.7V56.9C7.1 61 8.7 64.7 11.6 67.4C14.3 70.1 18 71.6 21.9 71.6H77.6C85.5 71.6 92 65.2 92 57.3C92 50.7 87.5 45 81.3 43.4Z" fill="white"/>
</g>
<g style="mix-blend-mode:multiply" opacity="0.3" filter="url(#filter0_f_312_1216)">
<path d="M29.5 64.5C31.2867 64.5 54.3482 63.2276 55.98 62.5C58.2101 61.5057 53.5895 55.5283 55.98 55.0307C57.0594 54.806 58.6465 54.1032 58.6465 54.1032C58.6465 54.1032 62.9994 52.5007 63.75 52.5007C64.5006 52.5007 64.1244 49.5374 63.8901 47.6913L63.75 46.3707C63.75 45.5007 61.158 43.6968 60.75 41.5007C60.4663 39.9736 61.1738 37.916 61.0258 37.533C61.0258 37.533 60.9751 37.5044 60.99 37.5007C61.0045 37.497 61.0163 37.5084 61.0258 37.533C61.1384 37.5858 61.9481 37.8602 61.9481 37.8602C63.8959 38.5203 66.9771 39.5993 69.75 41.5007C71.4084 42.6378 73.6911 44.8144 73.6911 44.8144C73.6911 44.8144 75.3358 46.0864 75.75 46.5007C76.75 47.5007 79.75 50.5007 81.75 50.5007H86.75L89 52.0907L89.5 55.3007C89.5 63.2007 83 69.6007 75.1 69.6007H18.5C18.5 69.6007 23 64.5 29.5 64.5Z" fill="white"/>
</g>
<path d="M16.4884 80.4H16.4H16.3066L16.2139 80.4115C14.8336 80.5841 13.5 81.6835 13.5 83.3C13.5 84.7586 14.7034 86.2 16.4 86.2H16.5884L16.5218 86.3143C16.0258 87.0957 16.0807 87.9856 16.277 88.5743C16.4662 89.1421 16.8505 89.7364 17.4679 90.148C18.2125 90.6444 19.0679 90.6619 19.7386 90.4632C20.3843 90.2718 21.0417 89.8282 21.4147 89.1231L21.4734 89.0225L21.5779 89.2091C22.0633 90.1395 23.0978 90.7 24.1 90.7C24.6399 90.7 25.1859 90.4841 25.4708 90.3416L25.5543 90.2998L25.6321 90.248C26.6587 89.5636 27.5356 87.9246 26.5853 86.4252L26.4592 86.2H26.7C28.1586 86.2 29.6 84.9965 29.6 83.3C29.6 81.4629 28.0032 80.5 26.7 80.5H26.4592L26.5865 80.2725C27.3817 79.005 27.0393 77.0874 25.4712 76.3571C24.098 75.6198 22.417 76.0298 21.6015 77.4491L21.5 77.623L21.3985 77.449C20.6264 76.1059 18.9299 75.543 17.5481 76.4003C16.7903 76.8069 16.3755 77.4301 16.177 78.0256C16.0228 78.4881 16.0492 78.9262 16.0901 79.2121C16.1333 79.5143 16.2141 79.7856 16.277 79.9743L16.3261 80.1216L16.4043 80.2558L16.4884 80.4Z" fill="#302F30" stroke="white" stroke-width="3"/>
<path d="M59.4884 89.4H59.4H59.3066L59.2139 89.4115C57.8336 89.5841 56.5 90.6835 56.5 92.3C56.5 93.7586 57.7034 95.2 59.4 95.2H59.5884L59.5218 95.3143C59.0258 96.0957 59.0807 96.9856 59.277 97.5743C59.4662 98.1421 59.8505 98.7364 60.4679 99.148C61.2125 99.6444 62.0679 99.6619 62.7386 99.4632C63.3843 99.2718 64.0417 98.8282 64.4147 98.1231L64.4734 98.0225L64.5779 98.2091C65.0633 99.1395 66.0978 99.7 67.1 99.7C67.6399 99.7 68.1859 99.4841 68.4708 99.3416L68.5543 99.2998L68.6321 99.248C69.6587 98.5636 70.5356 96.9246 69.5853 95.4252L69.4592 95.2H69.7C71.1586 95.2 72.6 93.9965 72.6 92.3C72.6 90.4629 71.0032 89.5 69.7 89.5H69.4592L69.5865 89.2725C70.3817 88.005 70.0393 86.0874 68.4712 85.3571C67.098 84.6198 65.417 85.0298 64.6015 86.4491L64.5 86.623L64.3985 86.449C63.6264 85.1059 61.9299 84.543 60.5481 85.4003C59.7903 85.8069 59.3755 86.4301 59.177 87.0256C59.0228 87.4881 59.0492 87.9262 59.0901 88.2121C59.1333 88.5143 59.2141 88.7856 59.277 88.9743L59.3261 89.1216L59.4043 89.2558L59.4884 89.4Z" fill="#302F30" stroke="white" stroke-width="3"/>
<path d="M33.8714 100.662L33.9468 100.697L34.0257 100.723C34.3672 100.837 34.9528 101 35.5 101C37.0151 101 38.518 100.214 39.1828 98.5817L42.6742 90.6013L42.6878 90.5702L42.7 90.5385C43.464 88.552 42.6952 86.2919 40.6286 85.3381L40.5841 85.3176L40.5385 85.3C38.552 84.536 36.2919 85.3048 35.3381 87.3714L35.3318 87.3851L35.3258 87.3988L31.8258 95.3988L31.8122 95.4299L31.8 95.4616C31.036 97.448 31.8048 99.7081 33.8714 100.662Z" fill="#302F30" stroke="white" stroke-width="3"/>
<path d="M48.8714 92.662L48.9468 92.6968L49.0257 92.7231C49.3672 92.8369 49.9528 93 50.5 93C52.0151 93 53.518 92.2142 54.1828 90.5817L57.6742 82.6013L57.6878 82.5702L57.7 82.5385C58.464 80.552 57.6952 78.2919 55.6286 77.3381L55.5841 77.3176L55.5385 77.3C53.552 76.536 51.2919 77.3048 50.3381 79.3714L50.3318 79.3851L50.3258 79.3988L46.8258 87.3988L46.8122 87.4299L46.8 87.4616C46.036 89.448 46.8048 91.7081 48.8714 92.662Z" fill="#302F30" stroke="white" stroke-width="3"/>
<path d="M76.8714 92.662L76.9468 92.6968L77.0257 92.7231C77.3672 92.8369 77.9528 93 78.5 93C80.0151 93 81.518 92.2142 82.1828 90.5817L85.6742 82.6013L85.6878 82.5702L85.7 82.5385C86.464 80.552 85.6952 78.2919 83.6286 77.3381L83.5841 77.3176L83.5385 77.3C81.552 76.536 79.2919 77.3048 78.3381 79.3714L78.3318 79.3851L78.3258 79.3988L74.8258 87.3988L74.8122 87.4299L74.8 87.4616C74.036 89.448 74.8048 91.7081 76.8714 92.662Z" fill="#302F30" stroke="white" stroke-width="3"/>
</g>
<defs>
<filter id="filter0_f_312_1216" x="11.5" y="30.5" width="85" height="46.1007" filterUnits="userSpaceOnUse" color-interpolation-filters="sRGB">
<feFlood flood-opacity="0" result="BackgroundImageFix"/>
<feBlend mode="normal" in="SourceGraphic" in2="BackgroundImageFix" result="shape"/>
<feGaussianBlur stdDeviation="3.5" result="effect1_foregroundBlur_312_1216"/>
</filter>
<clipPath id="clip0_312_1216">
<rect width="100" height="102" fill="white" transform="translate(0 0.5)"/>
</clipPath>
</defs>
</svg>
