<svg width="104" height="103" viewBox="0 0 104 103" fill="none" xmlns="http://www.w3.org/2000/svg">
<g clip-path="url(#clip0_312_1234)">
<mask id="mask0_312_1234" style="mask-type:alpha" maskUnits="userSpaceOnUse" x="-4" y="21" width="82" height="42">
<path d="M78 21.5H-4V62.5H78V21.5Z" fill="#C4C4C4"/>
</mask>
<g mask="url(#mask0_312_1234)">
<path d="M51.408 26.1921L61.88 21.5001L51.408 16.8761L58.072 7.56012L46.716 8.78412L47.872 -2.63988L38.624 4.09212L34 -6.37988L29.376 4.09212L20.06 -2.63988L21.284 8.71612L9.85999 7.56012L16.592 16.8081L6.12 21.5001L16.592 26.1241L9.85999 35.4401L21.216 34.2161L20.06 45.6401L29.308 38.9081L34 49.3801L38.624 38.9081L47.94 45.5721L46.716 34.2161L58.14 35.3721L51.408 26.1921Z" fill="#FCFC6B" stroke="#302F30" stroke-width="3"/>
<path d="M19.2328 30.0059C23.926 38.1035 34.3327 40.8935 42.4948 36.2663C50.657 31.639 53.3777 21.1598 48.7525 12.9941C44.0593 4.89646 33.6525 2.10651 25.4904 6.73373C17.3963 11.429 14.6076 21.9083 19.2328 30.0059Z" fill="#FEFEB5"/>
<path d="M21.6236 28.6358C25.5668 35.4344 34.3369 37.8139 41.1355 33.8707C47.934 29.9275 50.3135 21.1574 46.3704 14.3588C42.4272 7.5602 33.6571 5.18071 26.8585 9.12388C20.0599 13.0671 17.6804 21.8372 21.6236 28.6358Z" fill="#FCFC6B"/>
</g>
<path d="M5.5 20H62.5" stroke="#302F30" stroke-width="3" stroke-linecap="round"/>
<path d="M13.7612 45.1108L13.7603 45.1117C10.7172 48.2676 9 52.3591 9 56.7V56.9V56.9244L9.00059 56.9488C9.11263 61.5423 10.9106 65.7533 14.211 68.8394C17.2961 71.9108 21.4992 73.6 25.9 73.6H81.6C90.5864 73.6 98 66.3227 98 57.3C98 50.23 93.4681 44.0618 87.0335 41.8354C84.4768 30.1911 73.9526 21.5 61.7 21.5C52.4299 21.5 44.0102 26.3893 39.4313 34.1938C38.5454 33.988 37.6662 33.9 36.8 33.9C32.3287 33.9 28.3727 36.2859 26.3647 40.0016C26.2209 40 26.0815 40 25.9457 40H25.9C21.2669 40 16.9446 41.8137 13.7612 45.1108Z" fill="#E3DCE2" stroke="#302F30" stroke-width="4"/>
<g opacity="0.6">
<path style="mix-blend-mode:multiply" fill-rule="evenodd" clip-rule="evenodd" d="M85.3 43.4C83.4 32.1 73.4 23.5 61.7 23.5C52.6 23.5 44.4 28.6 40.4 36.6C39.2 36.1 38 35.9 36.8 35.9C32.6 35.9 29 38.4 27.6 42.1C27 42 26.5 42 25.9 42C21.8 42 18 43.6 15.2 46.5C12.5 49.3 11 52.9 11 56.7V56.9C11.1 61 12.7 64.7 15.6 67.4C18.3 70.1 22 71.6 25.9 71.6H81.6C89.5 71.6 96 65.2 96 57.3C96 50.7 91.5 45 85.3 43.4Z" fill="white"/>
</g>
<g style="mix-blend-mode:multiply" opacity="0.3" filter="url(#filter0_f_312_1234)">
<path d="M33.5 64.5C35.2867 64.5 58.3482 63.2276 59.98 62.5C62.2101 61.5057 57.5895 55.5283 59.98 55.0307C61.0594 54.806 62.6465 54.1032 62.6465 54.1032C62.6465 54.1032 66.9994 52.5007 67.75 52.5007C68.5006 52.5007 68.1244 49.5374 67.8901 47.6913L67.75 46.3707C67.75 45.5007 65.158 43.6968 64.75 41.5007C64.4663 39.9736 65.1738 37.916 65.0258 37.533C65.0258 37.533 64.9751 37.5044 64.99 37.5007C65.0045 37.497 65.0163 37.5084 65.0258 37.533C65.1384 37.5858 65.9481 37.8602 65.9481 37.8602C67.8959 38.5203 70.9771 39.5993 73.75 41.5007C75.4084 42.6378 77.6911 44.8144 77.6911 44.8144C77.6911 44.8144 79.3358 46.0864 79.75 46.5007C80.75 47.5007 83.75 50.5007 85.75 50.5007H90.75L93 52.0907L93.5 55.3007C93.5 63.2007 87 69.6007 79.1 69.6007H22.5C22.5 69.6007 27 64.5 33.5 64.5Z" fill="white"/>
</g>
<path d="M20.4884 80.4H20.4H20.3066L20.2139 80.4115C18.8336 80.5841 17.5 81.6835 17.5 83.3C17.5 84.7586 18.7034 86.2 20.4 86.2H20.5884L20.5218 86.3143C20.0258 87.0957 20.0807 87.9856 20.277 88.5743C20.4662 89.1421 20.8505 89.7364 21.4679 90.148C22.2125 90.6444 23.0679 90.6619 23.7386 90.4632C24.3843 90.2718 25.0417 89.8282 25.4147 89.1231L25.4734 89.0225L25.5779 89.2091C26.0633 90.1395 27.0978 90.7 28.1 90.7C28.6399 90.7 29.1859 90.4841 29.4708 90.3416L29.5543 90.2998L29.6321 90.248C30.6587 89.5636 31.5356 87.9246 30.5853 86.4252L30.4592 86.2H30.7C32.1586 86.2 33.6 84.9965 33.6 83.3C33.6 81.4629 32.0032 80.5 30.7 80.5H30.4592L30.5865 80.2725C31.3817 79.005 31.0393 77.0874 29.4712 76.3571C28.098 75.6198 26.417 76.0298 25.6015 77.4491L25.5 77.623L25.3985 77.449C24.6264 76.1059 22.9299 75.543 21.5481 76.4003C20.7903 76.8069 20.3755 77.4301 20.177 78.0256C20.0228 78.4881 20.0492 78.9262 20.0901 79.2121C20.1333 79.5143 20.2141 79.7856 20.277 79.9743L20.3261 80.1216L20.4043 80.2558L20.4884 80.4Z" fill="#302F30" stroke="white" stroke-width="3"/>
<path d="M63.4884 89.4H63.4H63.3066L63.2139 89.4115C61.8336 89.5841 60.5 90.6835 60.5 92.3C60.5 93.7586 61.7034 95.2 63.4 95.2H63.5884L63.5218 95.3143C63.0258 96.0957 63.0807 96.9856 63.277 97.5743C63.4662 98.1421 63.8505 98.7364 64.4679 99.148C65.2125 99.6444 66.0679 99.6619 66.7386 99.4632C67.3843 99.2718 68.0417 98.8282 68.4147 98.1231L68.4734 98.0225L68.5779 98.2091C69.0633 99.1395 70.0978 99.7 71.1 99.7C71.6399 99.7 72.1859 99.4841 72.4708 99.3416L72.5543 99.2998L72.6321 99.248C73.6587 98.5636 74.5356 96.9246 73.5853 95.4252L73.4592 95.2H73.7C75.1586 95.2 76.6 93.9965 76.6 92.3C76.6 90.4629 75.0032 89.5 73.7 89.5H73.4592L73.5865 89.2725C74.3817 88.005 74.0393 86.0874 72.4712 85.3571C71.098 84.6198 69.417 85.0298 68.6015 86.4491L68.5 86.623L68.3985 86.449C67.6264 85.1059 65.9299 84.543 64.5481 85.4003C63.7903 85.8069 63.3755 86.4301 63.177 87.0256C63.0228 87.4881 63.0492 87.9262 63.0901 88.2121C63.1333 88.5143 63.2141 88.7856 63.277 88.9743L63.3261 89.1216L63.4043 89.2558L63.4884 89.4Z" fill="#302F30" stroke="white" stroke-width="3"/>
<path d="M37.8714 100.662L37.9468 100.697L38.0257 100.723C38.3672 100.837 38.9528 101 39.5 101C41.0151 101 42.518 100.214 43.1828 98.5817L46.6742 90.6013L46.6878 90.5702L46.7 90.5385C47.464 88.552 46.6952 86.2919 44.6286 85.3381L44.5841 85.3176L44.5385 85.3C42.552 84.536 40.2919 85.3048 39.3381 87.3714L39.3318 87.3851L39.3258 87.3988L35.8258 95.3988L35.8122 95.4299L35.8 95.4616C35.036 97.448 35.8048 99.7081 37.8714 100.662Z" fill="#302F30" stroke="white" stroke-width="3"/>
<path d="M52.8714 92.662L52.9468 92.6968L53.0257 92.7231C53.3672 92.8369 53.9528 93 54.5 93C56.0151 93 57.518 92.2142 58.1828 90.5817L61.6742 82.6013L61.6878 82.5702L61.7 82.5385C62.464 80.552 61.6952 78.2919 59.6286 77.3381L59.5841 77.3176L59.5385 77.3C57.552 76.536 55.2919 77.3048 54.3381 79.3714L54.3318 79.3851L54.3258 79.3988L50.8258 87.3988L50.8122 87.4299L50.8 87.4616C50.036 89.448 50.8048 91.7081 52.8714 92.662Z" fill="#302F30" stroke="white" stroke-width="3"/>
<path d="M80.8714 92.662L80.9468 92.6968L81.0257 92.7231C81.3672 92.8369 81.9528 93 82.5 93C84.0151 93 85.518 92.2142 86.1828 90.5817L89.6742 82.6013L89.6878 82.5702L89.7 82.5385C90.464 80.552 89.6952 78.2919 87.6286 77.3381L87.5841 77.3176L87.5385 77.3C85.552 76.536 83.2919 77.3048 82.3381 79.3714L82.3318 79.3851L82.3258 79.3988L78.8258 87.3988L78.8122 87.4299L78.8 87.4616C78.036 89.448 78.8048 91.7081 80.8714 92.662Z" fill="#302F30" stroke="white" stroke-width="3"/>
</g>
<defs>
<filter id="filter0_f_312_1234" x="15.5" y="30.5" width="85" height="46.1007" filterUnits="userSpaceOnUse" color-interpolation-filters="sRGB">
<feFlood flood-opacity="0" result="BackgroundImageFix"/>
<feBlend mode="normal" in="SourceGraphic" in2="BackgroundImageFix" result="shape"/>
<feGaussianBlur stdDeviation="3.5" result="effect1_foregroundBlur_312_1234"/>
</filter>
<clipPath id="clip0_312_1234">
<rect width="104" height="102" fill="white" transform="translate(0 0.5)"/>
</clipPath>
</defs>
</svg>
