<svg width="106" height="109" viewBox="0 0 106 109" fill="none" xmlns="http://www.w3.org/2000/svg">
<g clip-path="url(#clip0_312_1253)">
<path d="M31.5415 9.42676C33.3268 12.5511 34.4427 16.1963 34.4427 20.0646C34.4427 31.8182 24.9207 41.3402 13.1671 41.3402C12.2 41.3402 11.3073 41.2658 10.4146 41.117C14.1342 47.5146 20.9781 51.8292 28.789 51.8292C40.5427 51.8292 50.0646 42.3072 50.0646 30.5536C50.0646 19.6926 42.0305 10.7658 31.5415 9.42676Z" fill="#302F30"/>
<path d="M15.7612 51.1108L15.7603 51.1117C12.7172 54.2676 11 58.3591 11 62.7V62.9V62.9244L11.0006 62.9488C11.1126 67.5423 12.9106 71.7533 16.211 74.8394C19.2961 77.9108 23.4992 79.6 27.9 79.6H83.6C92.5864 79.6 100 72.3227 100 63.3C100 56.23 95.4681 50.0618 89.0335 47.8354C86.4768 36.1911 75.9526 27.5 63.7 27.5C54.4299 27.5 46.0102 32.3893 41.4313 40.1938C40.5454 39.988 39.6662 39.9 38.8 39.9C34.3287 39.9 30.3727 42.2859 28.3647 46.0016C28.2209 46 28.0815 46 27.9457 46H27.9C23.2669 46 18.9446 47.8137 15.7612 51.1108Z" fill="#E3DCE2" stroke="#302F30" stroke-width="4"/>
<g opacity="0.6">
<path style="mix-blend-mode:multiply" fill-rule="evenodd" clip-rule="evenodd" d="M87.3 49.4C85.4 38.1 75.4 29.5 63.7 29.5C54.6 29.5 46.4 34.6 42.4 42.6C41.2 42.1 40 41.9 38.8 41.9C34.6 41.9 31 44.4 29.6 48.1C29 48 28.5 48 27.9 48C23.8 48 20 49.6 17.2 52.5C14.5 55.3 13 58.9 13 62.7V62.9C13.1 67 14.7 70.7 17.6 73.4C20.3 76.1 24 77.6 27.9 77.6H83.6C91.5 77.6 98 71.2 98 63.3C98 56.7 93.5 51 87.3 49.4Z" fill="white"/>
</g>
<g style="mix-blend-mode:multiply" opacity="0.3" filter="url(#filter0_f_312_1253)">
<path d="M35.5 70.5C37.2867 70.5 60.3482 69.2276 61.98 68.5C64.2101 67.5057 59.5895 61.5283 61.98 61.0307C63.0594 60.806 64.6465 60.1032 64.6465 60.1032C64.6465 60.1032 68.9994 58.5007 69.75 58.5007C70.5006 58.5007 70.1244 55.5374 69.8901 53.6913L69.75 52.3707C69.75 51.5007 67.158 49.6968 66.75 47.5007C66.4663 45.9736 67.1738 43.916 67.0258 43.533C67.0258 43.533 66.9751 43.5044 66.99 43.5007C67.0045 43.497 67.0163 43.5084 67.0258 43.533C67.1384 43.5858 67.9481 43.8602 67.9481 43.8602C69.8959 44.5203 72.9771 45.5993 75.75 47.5007C77.4084 48.6378 79.6911 50.8144 79.6911 50.8144C79.6911 50.8144 81.3358 52.0864 81.75 52.5007C82.75 53.5007 85.75 56.5007 87.75 56.5007H92.75L95 58.0907L95.5 61.3007C95.5 69.2007 89 75.6007 81.1 75.6007H24.5C24.5 75.6007 29 70.5 35.5 70.5Z" fill="white"/>
</g>
<path d="M22.4884 86.4H22.4H22.3066L22.2139 86.4115C20.8336 86.5841 19.5 87.6835 19.5 89.3C19.5 90.7586 20.7034 92.2 22.4 92.2H22.5884L22.5218 92.3143C22.0258 93.0957 22.0807 93.9856 22.277 94.5743C22.4662 95.1421 22.8505 95.7364 23.4679 96.148C24.2125 96.6444 25.0679 96.6619 25.7386 96.4632C26.3843 96.2718 27.0417 95.8282 27.4147 95.1231L27.4734 95.0225L27.5779 95.2091C28.0633 96.1395 29.0978 96.7 30.1 96.7C30.6399 96.7 31.1859 96.4841 31.4708 96.3416L31.5543 96.2998L31.6321 96.248C32.6587 95.5636 33.5356 93.9246 32.5853 92.4252L32.4592 92.2H32.7C34.1586 92.2 35.6 90.9965 35.6 89.3C35.6 87.4629 34.0032 86.5 32.7 86.5H32.4592L32.5865 86.2725C33.3817 85.005 33.0393 83.0874 31.4712 82.3571C30.098 81.6198 28.417 82.0298 27.6015 83.4491L27.5 83.623L27.3985 83.449C26.6264 82.1059 24.9299 81.543 23.5481 82.4003C22.7903 82.8069 22.3755 83.4301 22.177 84.0256C22.0228 84.4881 22.0492 84.9262 22.0901 85.2121C22.1333 85.5143 22.2141 85.7856 22.277 85.9743L22.3261 86.1216L22.4043 86.2558L22.4884 86.4Z" fill="#302F30" stroke="white" stroke-width="3"/>
<path d="M65.4884 95.4H65.4H65.3066L65.2139 95.4115C63.8336 95.5841 62.5 96.6835 62.5 98.3C62.5 99.7586 63.7034 101.2 65.4 101.2H65.5884L65.5218 101.314C65.0258 102.096 65.0807 102.986 65.277 103.574C65.4662 104.142 65.8505 104.736 66.4679 105.148C67.2125 105.644 68.0679 105.662 68.7386 105.463C69.3843 105.272 70.0417 104.828 70.4147 104.123L70.4734 104.022L70.5779 104.209C71.0633 105.14 72.0978 105.7 73.1 105.7C73.6399 105.7 74.1859 105.484 74.4708 105.342L74.5543 105.3L74.6321 105.248C75.6587 104.564 76.5356 102.925 75.5853 101.425L75.4592 101.2H75.7C77.1586 101.2 78.6 99.9965 78.6 98.3C78.6 96.4629 77.0032 95.5 75.7 95.5H75.4592L75.5865 95.2725C76.3817 94.005 76.0393 92.0874 74.4712 91.3571C73.098 90.6198 71.417 91.0298 70.6015 92.4491L70.5 92.623L70.3985 92.449C69.6264 91.1059 67.9299 90.543 66.5481 91.4003C65.7903 91.8069 65.3755 92.4301 65.177 93.0256C65.0228 93.4881 65.0492 93.9262 65.0901 94.2121C65.1333 94.5143 65.2141 94.7856 65.277 94.9743L65.3261 95.1216L65.4043 95.2558L65.4884 95.4Z" fill="#302F30" stroke="white" stroke-width="3"/>
<path d="M39.8714 106.662L39.9468 106.697L40.0257 106.723C40.3672 106.837 40.9528 107 41.5 107C43.0151 107 44.518 106.214 45.1828 104.582L48.6742 96.6013L48.6878 96.5702L48.7 96.5385C49.464 94.552 48.6952 92.2919 46.6286 91.3381L46.5841 91.3176L46.5385 91.3C44.552 90.536 42.2919 91.3048 41.3381 93.3714L41.3318 93.3851L41.3258 93.3988L37.8258 101.399L37.8122 101.43L37.8 101.462C37.036 103.448 37.8048 105.708 39.8714 106.662Z" fill="#302F30" stroke="white" stroke-width="3"/>
<path d="M54.8714 98.662L54.9468 98.6968L55.0257 98.7231C55.3672 98.8369 55.9528 99 56.5 99C58.0151 99 59.518 98.2142 60.1828 96.5817L63.6742 88.6013L63.6878 88.5702L63.7 88.5385C64.464 86.552 63.6952 84.2919 61.6286 83.3381L61.5841 83.3176L61.5385 83.3C59.552 82.536 57.2919 83.3048 56.3381 85.3714L56.3318 85.3851L56.3258 85.3988L52.8258 93.3988L52.8122 93.4299L52.8 93.4616C52.036 95.448 52.8048 97.7081 54.8714 98.662Z" fill="#302F30" stroke="white" stroke-width="3"/>
<path d="M82.8714 98.662L82.9468 98.6968L83.0257 98.7231C83.3672 98.8369 83.9528 99 84.5 99C86.0151 99 87.518 98.2142 88.1828 96.5817L91.6742 88.6013L91.6878 88.5702L91.7 88.5385C92.464 86.552 91.6952 84.2919 89.6286 83.3381L89.5841 83.3176L89.5385 83.3C87.552 82.536 85.2919 83.3048 84.3381 85.3714L84.3318 85.3851L84.3258 85.3988L80.8258 93.3988L80.8122 93.4299L80.8 93.4616C80.036 95.448 80.8048 97.7081 82.8714 98.662Z" fill="#302F30" stroke="white" stroke-width="3"/>
</g>
<defs>
<filter id="filter0_f_312_1253" x="17.5" y="36.5" width="85" height="46.1007" filterUnits="userSpaceOnUse" color-interpolation-filters="sRGB">
<feFlood flood-opacity="0" result="BackgroundImageFix"/>
<feBlend mode="normal" in="SourceGraphic" in2="BackgroundImageFix" result="shape"/>
<feGaussianBlur stdDeviation="3.5" result="effect1_foregroundBlur_312_1253"/>
</filter>
<clipPath id="clip0_312_1253">
<rect width="106" height="108" fill="white" transform="translate(0 0.5)"/>
</clipPath>
</defs>
</svg>
