<svg width="100" height="104" viewBox="0 0 100 104" fill="none" xmlns="http://www.w3.org/2000/svg">
<g clip-path="url(#clip0_312_1265)">
<mask id="mask0_312_1265" style="mask-type:luminance" maskUnits="userSpaceOnUse" x="0" y="0" width="100" height="101">
<path d="M100 0.5H0V100.5H100V0.5Z" fill="white"/>
</mask>
<g mask="url(#mask0_312_1265)">
<path fill-rule="evenodd" clip-rule="evenodd" d="M52.3146 19.0169L54.072 16.5601L42.716 17.7841L43.872 6.36012L34.624 13.0921L30 2.62012L25.376 13.0921L16.06 6.36012L17.284 17.7161L5.86 16.5601L12.592 25.8081L2.12 30.5001L12.592 35.1241L5.86 44.4401L6.4302 44.3787C6.79888 43.9377 7.18901 43.5111 7.6 43.1001C11.1 39.5001 15.7 37.4001 20.7 37.1001C23.4 33.2001 27.9 30.9001 32.8 30.9001H33.9C38.2631 24.7594 44.9113 20.4466 52.3146 19.0169Z" fill="#FCFC6B" stroke="#302F30" stroke-width="3"/>
</g>
<path fill-rule="evenodd" clip-rule="evenodd" d="M14.867 38.3308C16.7147 37.6384 18.6745 37.2215 20.7 37.1C23.4 33.2 27.9 30.9 32.8 30.9H33.9C36.6679 27.0044 40.3553 23.8445 44.5718 21.6896C39.7966 13.8271 29.5494 11.165 21.4904 15.7337C13.6195 20.2995 10.7654 30.3348 14.867 38.3308Z" fill="#FEFEB5"/>
<path fill-rule="evenodd" clip-rule="evenodd" d="M17.5653 37.5338C18.5875 37.3093 19.6347 37.1637 20.7 37.0998C23.4 33.1998 27.9 30.8998 32.8 30.8998H33.9C36.1324 27.7578 38.9631 25.0944 42.187 23.0509C38.1607 16.4887 29.5536 14.2403 22.8585 18.1234C16.0937 22.047 13.7042 30.7496 17.5653 37.5338Z" fill="#FCFC6B"/>
<path d="M9.7612 45.1108L9.76031 45.1117C6.71717 48.2676 5 52.3591 5 56.7V56.9V56.9244L5.00059 56.9488C5.11263 61.5423 6.91058 65.7533 10.211 68.8394C13.2961 71.9108 17.4992 73.6 21.9 73.6H77.6C86.5864 73.6 94 66.3227 94 57.3C94 50.23 89.4681 44.0618 83.0335 41.8354C80.4768 30.1911 69.9526 21.5 57.7 21.5C48.4299 21.5 40.0102 26.3893 35.4313 34.1938C34.5454 33.988 33.6662 33.9 32.8 33.9C28.3287 33.9 24.3727 36.2859 22.3647 40.0016C22.2209 40 22.0815 40 21.9457 40H21.9C17.2669 40 12.9446 41.8137 9.7612 45.1108Z" fill="#F7F5F6" stroke="#302F30" stroke-width="4"/>
<g opacity="0.6">
<path style="mix-blend-mode:multiply" fill-rule="evenodd" clip-rule="evenodd" d="M81.3 43.4C79.4 32.1 69.4 23.5 57.7 23.5C48.6 23.5 40.4 28.6 36.4 36.6C35.2 36.1 34 35.9 32.8 35.9C28.6 35.9 25 38.4 23.6 42.1C23 42 22.5 42 21.9 42C17.8 42 14 43.6 11.2 46.5C8.5 49.3 7 52.9 7 56.7V56.9C7.1 61 8.7 64.7 11.6 67.4C14.3 70.1 18 71.6 21.9 71.6H77.6C85.5 71.6 92 65.2 92 57.3C92 50.7 87.5 45 81.3 43.4Z" fill="white"/>
</g>
<g style="mix-blend-mode:multiply" opacity="0.3" filter="url(#filter0_f_312_1265)">
<path d="M29.5 64.5C31.2867 64.5 54.3482 63.2276 55.98 62.5C58.2101 61.5057 53.5895 55.5283 55.98 55.0307C57.0594 54.806 58.6465 54.1032 58.6465 54.1032C58.6465 54.1032 62.9994 52.5007 63.75 52.5007C64.5006 52.5007 64.1244 49.5374 63.8901 47.6913L63.75 46.3707C63.75 45.5007 61.158 43.6968 60.75 41.5007C60.4663 39.9736 61.1738 37.916 61.0258 37.533C61.0258 37.533 60.9751 37.5044 60.99 37.5007C61.0045 37.497 61.0163 37.5084 61.0258 37.533C61.1384 37.5858 61.9481 37.8602 61.9481 37.8602C63.8959 38.5203 66.9771 39.5993 69.75 41.5007C71.4084 42.6378 73.6911 44.8144 73.6911 44.8144C73.6911 44.8144 75.3358 46.0864 75.75 46.5007C76.75 47.5007 79.75 50.5007 81.75 50.5007H86.75L89 52.0907L89.5 55.3007C89.5 63.2007 83 69.6007 75.1 69.6007H18.5C18.5 69.6007 23 64.5 29.5 64.5Z" fill="white"/>
</g>
<path d="M30.4884 91.4H30.4H30.3066L30.2139 91.4115C28.8336 91.5841 27.5 92.6835 27.5 94.3C27.5 95.7586 28.7034 97.2 30.4 97.2H30.5884L30.5218 97.3143C30.0258 98.0957 30.0807 98.9856 30.277 99.5743C30.4662 100.142 30.8505 100.736 31.4679 101.148C32.2125 101.644 33.0679 101.662 33.7386 101.463C34.3843 101.272 35.0417 100.828 35.4147 100.123L35.4734 100.022L35.5779 100.209C36.0633 101.14 37.0978 101.7 38.1 101.7C38.6399 101.7 39.1859 101.484 39.4708 101.342L39.5543 101.3L39.6321 101.248C40.6587 100.564 41.5356 98.9246 40.5853 97.4252L40.4592 97.2H40.7C42.1586 97.2 43.6 95.9965 43.6 94.3C43.6 92.4629 42.0032 91.5 40.7 91.5H40.4592L40.5865 91.2725C41.3817 90.005 41.0393 88.0874 39.4712 87.3571C38.098 86.6198 36.417 87.0298 35.6015 88.4491L35.5 88.623L35.3985 88.449C34.6264 87.1059 32.9299 86.543 31.5481 87.4003C30.7903 87.8069 30.3755 88.4301 30.177 89.0256C30.0228 89.4881 30.0492 89.9262 30.0901 90.2121C30.1333 90.5143 30.2141 90.7856 30.277 90.9743L30.3261 91.1216L30.4043 91.2558L30.4884 91.4Z" fill="#302F30" stroke="white" stroke-width="3"/>
<path d="M59.4884 82.4H59.4H59.3066L59.2139 82.4115C57.8336 82.5841 56.5 83.6835 56.5 85.3C56.5 86.7586 57.7034 88.2 59.4 88.2H59.5884L59.5218 88.3143C59.0258 89.0957 59.0807 89.9856 59.277 90.5743C59.4662 91.1421 59.8505 91.7364 60.4679 92.148C61.2125 92.6444 62.0679 92.6619 62.7386 92.4632C63.3843 92.2718 64.0417 91.8282 64.4147 91.1231L64.4734 91.0225L64.5779 91.2091C65.0633 92.1395 66.0978 92.7 67.1 92.7C67.6399 92.7 68.1859 92.4841 68.4708 92.3416L68.5543 92.2998L68.6321 92.248C69.6587 91.5636 70.5356 89.9246 69.5853 88.4252L69.4592 88.2H69.7C71.1586 88.2 72.6 86.9965 72.6 85.3C72.6 83.4629 71.0032 82.5 69.7 82.5H69.4592L69.5865 82.2725C70.3817 81.005 70.0393 79.0874 68.4712 78.3571C67.098 77.6198 65.417 78.0298 64.6015 79.4491L64.5 79.623L64.3985 79.449C63.6264 78.1059 61.9299 77.543 60.5481 78.4003C59.7903 78.8069 59.3755 79.4301 59.177 80.0256C59.0228 80.4881 59.0492 80.9262 59.0901 81.2121C59.1333 81.5143 59.2141 81.7856 59.277 81.9743L59.3261 82.1216L59.4043 82.2558L59.4884 82.4Z" fill="#302F30" stroke="white" stroke-width="3"/>
</g>
<defs>
<filter id="filter0_f_312_1265" x="11.5" y="30.5" width="85" height="46.1007" filterUnits="userSpaceOnUse" color-interpolation-filters="sRGB">
<feFlood flood-opacity="0" result="BackgroundImageFix"/>
<feBlend mode="normal" in="SourceGraphic" in2="BackgroundImageFix" result="shape"/>
<feGaussianBlur stdDeviation="3.5" result="effect1_foregroundBlur_312_1265"/>
</filter>
<clipPath id="clip0_312_1265">
<rect width="100" height="103" fill="white" transform="translate(0 0.5)"/>
</clipPath>
</defs>
</svg>
