<svg width="104" height="104" viewBox="0 0 104 104" fill="none" xmlns="http://www.w3.org/2000/svg">
<g clip-path="url(#clip0_312_1280)">
<mask id="mask0_312_1280" style="mask-type:alpha" maskUnits="userSpaceOnUse" x="-4" y="21" width="82" height="42">
<path d="M78 21.5H-4V62.5H78V21.5Z" fill="#C4C4C4"/>
</mask>
<g mask="url(#mask0_312_1280)">
<path d="M51.408 26.1921L61.88 21.5001L51.408 16.8761L58.072 7.56012L46.716 8.78412L47.872 -2.63988L38.624 4.09212L34 -6.37988L29.376 4.09212L20.06 -2.63988L21.284 8.71612L9.85999 7.56012L16.592 16.8081L6.12 21.5001L16.592 26.1241L9.85999 35.4401L21.216 34.2161L20.06 45.6401L29.308 38.9081L34 49.3801L38.624 38.9081L47.94 45.5721L46.716 34.2161L58.14 35.3721L51.408 26.1921Z" fill="#FCFC6B" stroke="#302F30" stroke-width="3"/>
<path d="M19.2328 30.0059C23.926 38.1035 34.3327 40.8935 42.4948 36.2663C50.657 31.639 53.3777 21.1598 48.7525 12.9941C44.0593 4.89646 33.6525 2.10651 25.4904 6.73373C17.3963 11.429 14.6076 21.9083 19.2328 30.0059Z" fill="#FEFEB5"/>
<path d="M21.6236 28.6358C25.5668 35.4344 34.3369 37.8139 41.1355 33.8707C47.934 29.9275 50.3135 21.1574 46.3704 14.3588C42.4272 7.5602 33.6571 5.18071 26.8585 9.12388C20.0599 13.0671 17.6804 21.8372 21.6236 28.6358Z" fill="#FCFC6B"/>
</g>
<path d="M5.5 20H62.5" stroke="#302F30" stroke-width="3" stroke-linecap="round"/>
<path d="M13.7612 45.1108L13.7603 45.1117C10.7172 48.2676 9 52.3591 9 56.7V56.9V56.9244L9.00059 56.9488C9.11263 61.5423 10.9106 65.7533 14.211 68.8394C17.2961 71.9108 21.4992 73.6 25.9 73.6H81.6C90.5864 73.6 98 66.3227 98 57.3C98 50.23 93.4681 44.0618 87.0335 41.8354C84.4768 30.1911 73.9526 21.5 61.7 21.5C52.4299 21.5 44.0102 26.3893 39.4313 34.1938C38.5454 33.988 37.6662 33.9 36.8 33.9C32.3287 33.9 28.3727 36.2859 26.3647 40.0016C26.2209 40 26.0815 40 25.9457 40H25.9C21.2669 40 16.9446 41.8137 13.7612 45.1108Z" fill="#F7F5F6" stroke="#302F30" stroke-width="4"/>
<g opacity="0.6">
<path style="mix-blend-mode:multiply" fill-rule="evenodd" clip-rule="evenodd" d="M85.3 43.4C83.4 32.1 73.4 23.5 61.7 23.5C52.6 23.5 44.4 28.6 40.4 36.6C39.2 36.1 38 35.9 36.8 35.9C32.6 35.9 29 38.4 27.6 42.1C27 42 26.5 42 25.9 42C21.8 42 18 43.6 15.2 46.5C12.5 49.3 11 52.9 11 56.7V56.9C11.1 61 12.7 64.7 15.6 67.4C18.3 70.1 22 71.6 25.9 71.6H81.6C89.5 71.6 96 65.2 96 57.3C96 50.7 91.5 45 85.3 43.4Z" fill="white"/>
</g>
<g style="mix-blend-mode:multiply" opacity="0.3" filter="url(#filter0_f_312_1280)">
<path d="M33.5 64.5C35.2867 64.5 58.3482 63.2276 59.98 62.5C62.2101 61.5057 57.5895 55.5283 59.98 55.0307C61.0594 54.806 62.6465 54.1032 62.6465 54.1032C62.6465 54.1032 66.9994 52.5007 67.75 52.5007C68.5006 52.5007 68.1244 49.5374 67.8901 47.6913L67.75 46.3707C67.75 45.5007 65.158 43.6968 64.75 41.5007C64.4663 39.9736 65.1738 37.916 65.0258 37.533C65.0258 37.533 64.9751 37.5044 64.99 37.5007C65.0045 37.497 65.0163 37.5084 65.0258 37.533C65.1384 37.5858 65.9481 37.8602 65.9481 37.8602C67.8959 38.5203 70.9771 39.5993 73.75 41.5007C75.4084 42.6378 77.6911 44.8144 77.6911 44.8144C77.6911 44.8144 79.3358 46.0864 79.75 46.5007C80.75 47.5007 83.75 50.5007 85.75 50.5007H90.75L93 52.0907L93.5 55.3007C93.5 63.2007 87 69.6007 79.1 69.6007H22.5C22.5 69.6007 27 64.5 33.5 64.5Z" fill="white"/>
</g>
<path d="M34.4884 91.4H34.4H34.3066L34.2139 91.4115C32.8336 91.5841 31.5 92.6835 31.5 94.3C31.5 95.7586 32.7034 97.2 34.4 97.2H34.5884L34.5218 97.3143C34.0258 98.0957 34.0807 98.9856 34.277 99.5743C34.4662 100.142 34.8505 100.736 35.4679 101.148C36.2125 101.644 37.0679 101.662 37.7386 101.463C38.3843 101.272 39.0417 100.828 39.4147 100.123L39.4734 100.022L39.5779 100.209C40.0633 101.14 41.0978 101.7 42.1 101.7C42.6399 101.7 43.1859 101.484 43.4708 101.342L43.5543 101.3L43.6321 101.248C44.6587 100.564 45.5356 98.9246 44.5853 97.4252L44.4592 97.2H44.7C46.1586 97.2 47.6 95.9965 47.6 94.3C47.6 92.4629 46.0032 91.5 44.7 91.5H44.4592L44.5865 91.2725C45.3817 90.005 45.0393 88.0874 43.4712 87.3571C42.098 86.6198 40.417 87.0298 39.6015 88.4491L39.5 88.623L39.3985 88.449C38.6264 87.1059 36.9299 86.543 35.5481 87.4003C34.7903 87.8069 34.3755 88.4301 34.177 89.0256C34.0228 89.4881 34.0492 89.9262 34.0901 90.2121C34.1333 90.5143 34.2141 90.7856 34.277 90.9743L34.3261 91.1216L34.4043 91.2558L34.4884 91.4Z" fill="#302F30" stroke="white" stroke-width="3"/>
<path d="M63.4884 82.4H63.4H63.3066L63.2139 82.4115C61.8336 82.5841 60.5 83.6835 60.5 85.3C60.5 86.7586 61.7034 88.2 63.4 88.2H63.5884L63.5218 88.3143C63.0258 89.0957 63.0807 89.9856 63.277 90.5743C63.4662 91.1421 63.8505 91.7364 64.4679 92.148C65.2125 92.6444 66.0679 92.6619 66.7386 92.4632C67.3843 92.2718 68.0417 91.8282 68.4147 91.1231L68.4734 91.0225L68.5779 91.2091C69.0633 92.1395 70.0978 92.7 71.1 92.7C71.6399 92.7 72.1859 92.4841 72.4708 92.3416L72.5543 92.2998L72.6321 92.248C73.6587 91.5636 74.5356 89.9246 73.5853 88.4252L73.4592 88.2H73.7C75.1586 88.2 76.6 86.9965 76.6 85.3C76.6 83.4629 75.0032 82.5 73.7 82.5H73.4592L73.5865 82.2725C74.3817 81.005 74.0393 79.0874 72.4712 78.3571C71.098 77.6198 69.417 78.0298 68.6015 79.4491L68.5 79.623L68.3985 79.449C67.6264 78.1059 65.9299 77.543 64.5481 78.4003C63.7903 78.8069 63.3755 79.4301 63.177 80.0256C63.0228 80.4881 63.0492 80.9262 63.0901 81.2121C63.1333 81.5143 63.2141 81.7856 63.277 81.9743L63.3261 82.1216L63.4043 82.2558L63.4884 82.4Z" fill="#302F30" stroke="white" stroke-width="3"/>
</g>
<defs>
<filter id="filter0_f_312_1280" x="15.5" y="30.5" width="85" height="46.1007" filterUnits="userSpaceOnUse" color-interpolation-filters="sRGB">
<feFlood flood-opacity="0" result="BackgroundImageFix"/>
<feBlend mode="normal" in="SourceGraphic" in2="BackgroundImageFix" result="shape"/>
<feGaussianBlur stdDeviation="3.5" result="effect1_foregroundBlur_312_1280"/>
</filter>
<clipPath id="clip0_312_1280">
<rect width="104" height="103" fill="white" transform="translate(0 0.5)"/>
</clipPath>
</defs>
</svg>
