<svg width="106" height="110" viewBox="0 0 106 110" fill="none" xmlns="http://www.w3.org/2000/svg">
<g clip-path="url(#clip0_312_1296)">
<path d="M31.5415 9.42676C33.3268 12.5511 34.4427 16.1963 34.4427 20.0646C34.4427 31.8182 24.9207 41.3402 13.1671 41.3402C12.2 41.3402 11.3073 41.2658 10.4146 41.117C14.1342 47.5146 20.9781 51.8292 28.789 51.8292C40.5427 51.8292 50.0646 42.3072 50.0646 30.5536C50.0646 19.6926 42.0305 10.7658 31.5415 9.42676Z" fill="#302F30"/>
<path d="M15.7612 51.1108L15.7603 51.1117C12.7172 54.2676 11 58.3591 11 62.7V62.9V62.9244L11.0006 62.9488C11.1126 67.5423 12.9106 71.7533 16.211 74.8394C19.2961 77.9108 23.4992 79.6 27.9 79.6H83.6C92.5864 79.6 100 72.3227 100 63.3C100 56.23 95.4681 50.0618 89.0335 47.8354C86.4768 36.1911 75.9526 27.5 63.7 27.5C54.4299 27.5 46.0102 32.3893 41.4313 40.1938C40.5454 39.988 39.6662 39.9 38.8 39.9C34.3287 39.9 30.3727 42.2859 28.3647 46.0016C28.2209 46 28.0815 46 27.9457 46H27.9C23.2669 46 18.9446 47.8137 15.7612 51.1108Z" fill="#F7F5F6" stroke="#302F30" stroke-width="4"/>
<g opacity="0.6">
<path style="mix-blend-mode:multiply" fill-rule="evenodd" clip-rule="evenodd" d="M87.3 49.4C85.4 38.1 75.4 29.5 63.7 29.5C54.6 29.5 46.4 34.6 42.4 42.6C41.2 42.1 40 41.9 38.8 41.9C34.6 41.9 31 44.4 29.6 48.1C29 48 28.5 48 27.9 48C23.8 48 20 49.6 17.2 52.5C14.5 55.3 13 58.9 13 62.7V62.9C13.1 67 14.7 70.7 17.6 73.4C20.3 76.1 24 77.6 27.9 77.6H83.6C91.5 77.6 98 71.2 98 63.3C98 56.7 93.5 51 87.3 49.4Z" fill="white"/>
</g>
<g style="mix-blend-mode:multiply" opacity="0.3" filter="url(#filter0_f_312_1296)">
<path d="M35.5 70.5C37.2867 70.5 60.3482 69.2276 61.98 68.5C64.2101 67.5057 59.5895 61.5283 61.98 61.0307C63.0594 60.806 64.6465 60.1032 64.6465 60.1032C64.6465 60.1032 68.9994 58.5007 69.75 58.5007C70.5006 58.5007 70.1244 55.5374 69.8901 53.6913L69.75 52.3707C69.75 51.5007 67.158 49.6968 66.75 47.5007C66.4663 45.9736 67.1738 43.916 67.0258 43.533C67.0258 43.533 66.9751 43.5044 66.99 43.5007C67.0045 43.497 67.0163 43.5084 67.0258 43.533C67.1384 43.5858 67.9481 43.8602 67.9481 43.8602C69.8959 44.5203 72.9771 45.5993 75.75 47.5007C77.4084 48.6378 79.6911 50.8144 79.6911 50.8144C79.6911 50.8144 81.3358 52.0864 81.75 52.5007C82.75 53.5007 85.75 56.5007 87.75 56.5007H92.75L95 58.0907L95.5 61.3007C95.5 69.2007 89 75.6007 81.1 75.6007H24.5C24.5 75.6007 29 70.5 35.5 70.5Z" fill="white"/>
</g>
<path d="M36.4884 97.4H36.4H36.3066L36.2139 97.4115C34.8336 97.5841 33.5 98.6835 33.5 100.3C33.5 101.759 34.7034 103.2 36.4 103.2H36.5884L36.5218 103.314C36.0258 104.096 36.0807 104.986 36.277 105.574C36.4662 106.142 36.8505 106.736 37.4679 107.148C38.2125 107.644 39.0679 107.662 39.7386 107.463C40.3843 107.272 41.0417 106.828 41.4147 106.123L41.4734 106.022L41.5779 106.209C42.0633 107.14 43.0978 107.7 44.1 107.7C44.6399 107.7 45.1859 107.484 45.4708 107.342L45.5543 107.3L45.6321 107.248C46.6587 106.564 47.5356 104.925 46.5853 103.425L46.4592 103.2H46.7C48.1586 103.2 49.6 101.997 49.6 100.3C49.6 98.4629 48.0032 97.5 46.7 97.5H46.4592L46.5865 97.2725C47.3817 96.005 47.0393 94.0874 45.4712 93.3571C44.098 92.6198 42.417 93.0298 41.6015 94.4491L41.5 94.623L41.3985 94.449C40.6264 93.1059 38.9299 92.543 37.5481 93.4003C36.7903 93.8069 36.3755 94.4301 36.177 95.0256C36.0228 95.4881 36.0492 95.9262 36.0901 96.2121C36.1333 96.5143 36.2141 96.7856 36.277 96.9743L36.3261 97.1216L36.4043 97.2558L36.4884 97.4Z" fill="#302F30" stroke="white" stroke-width="3"/>
<path d="M65.4884 88.4H65.4H65.3066L65.2139 88.4115C63.8336 88.5841 62.5 89.6835 62.5 91.3C62.5 92.7586 63.7034 94.2 65.4 94.2H65.5884L65.5218 94.3143C65.0258 95.0957 65.0807 95.9856 65.277 96.5743C65.4662 97.1421 65.8505 97.7364 66.4679 98.148C67.2125 98.6444 68.0679 98.6619 68.7386 98.4632C69.3843 98.2718 70.0417 97.8282 70.4147 97.1231L70.4734 97.0225L70.5779 97.2091C71.0633 98.1395 72.0978 98.7 73.1 98.7C73.6399 98.7 74.1859 98.4841 74.4708 98.3416L74.5543 98.2998L74.6321 98.248C75.6587 97.5636 76.5356 95.9246 75.5853 94.4252L75.4592 94.2H75.7C77.1586 94.2 78.6 92.9965 78.6 91.3C78.6 89.4629 77.0032 88.5 75.7 88.5H75.4592L75.5865 88.2725C76.3817 87.005 76.0393 85.0874 74.4712 84.3571C73.098 83.6198 71.417 84.0298 70.6015 85.4491L70.5 85.623L70.3985 85.449C69.6264 84.1059 67.9299 83.543 66.5481 84.4003C65.7903 84.8069 65.3755 85.4301 65.177 86.0256C65.0228 86.4881 65.0492 86.9262 65.0901 87.2121C65.1333 87.5143 65.2141 87.7856 65.277 87.9743L65.3261 88.1216L65.4043 88.2558L65.4884 88.4Z" fill="#302F30" stroke="white" stroke-width="3"/>
</g>
<defs>
<filter id="filter0_f_312_1296" x="17.5" y="36.5" width="85" height="46.1007" filterUnits="userSpaceOnUse" color-interpolation-filters="sRGB">
<feFlood flood-opacity="0" result="BackgroundImageFix"/>
<feBlend mode="normal" in="SourceGraphic" in2="BackgroundImageFix" result="shape"/>
<feGaussianBlur stdDeviation="3.5" result="effect1_foregroundBlur_312_1296"/>
</filter>
<clipPath id="clip0_312_1296">
<rect width="106" height="109" fill="white" transform="translate(0 0.5)"/>
</clipPath>
</defs>
</svg>
