<svg width="104" height="104" viewBox="0 0 104 104" fill="none" xmlns="http://www.w3.org/2000/svg">
<g clip-path="url(#clip0_312_1323)">
<mask id="mask0_312_1323" style="mask-type:alpha" maskUnits="userSpaceOnUse" x="-4" y="21" width="82" height="42">
<path d="M78 21.5H-4V62.5H78V21.5Z" fill="#C4C4C4"/>
</mask>
<g mask="url(#mask0_312_1323)">
<path d="M51.408 26.1921L61.88 21.5001L51.408 16.8761L58.072 7.56012L46.716 8.78412L47.872 -2.63988L38.624 4.09212L34 -6.37988L29.376 4.09212L20.06 -2.63988L21.284 8.71612L9.85999 7.56012L16.592 16.8081L6.12 21.5001L16.592 26.1241L9.85999 35.4401L21.216 34.2161L20.06 45.6401L29.308 38.9081L34 49.3801L38.624 38.9081L47.94 45.5721L46.716 34.2161L58.14 35.3721L51.408 26.1921Z" fill="#FCFC6B" stroke="#302F30" stroke-width="3"/>
<path d="M19.2328 30.0059C23.926 38.1035 34.3327 40.8935 42.4948 36.2663C50.657 31.639 53.3777 21.1598 48.7525 12.9941C44.0593 4.89646 33.6525 2.10651 25.4904 6.73373C17.3963 11.429 14.6076 21.9083 19.2328 30.0059Z" fill="#FEFEB5"/>
<path d="M21.6236 28.6358C25.5668 35.4344 34.3369 37.8139 41.1355 33.8707C47.934 29.9275 50.3135 21.1574 46.3704 14.3588C42.4272 7.5602 33.6571 5.18071 26.8585 9.12388C20.0599 13.0671 17.6804 21.8372 21.6236 28.6358Z" fill="#FCFC6B"/>
</g>
<path d="M5.5 20H62.5" stroke="#302F30" stroke-width="3" stroke-linecap="round"/>
<path d="M13.7612 45.1108L13.7603 45.1117C10.7172 48.2676 9 52.3591 9 56.7V56.9V56.9244L9.00059 56.9488C9.11263 61.5423 10.9106 65.7533 14.211 68.8394C17.2961 71.9108 21.4992 73.6 25.9 73.6H81.6C90.5864 73.6 98 66.3227 98 57.3C98 50.23 93.4681 44.0618 87.0335 41.8354C84.4768 30.1911 73.9526 21.5 61.7 21.5C52.4299 21.5 44.0102 26.3893 39.4313 34.1938C38.5454 33.988 37.6662 33.9 36.8 33.9C32.3287 33.9 28.3727 36.2859 26.3647 40.0016C26.2209 40 26.0815 40 25.9457 40H25.9C21.2669 40 16.9446 41.8137 13.7612 45.1108Z" fill="#E3DCE2" stroke="#302F30" stroke-width="4"/>
<g opacity="0.6">
<path style="mix-blend-mode:multiply" fill-rule="evenodd" clip-rule="evenodd" d="M85.3 43.4C83.4 32.1 73.4 23.5 61.7 23.5C52.6 23.5 44.4 28.6 40.4 36.6C39.2 36.1 38 35.9 36.8 35.9C32.6 35.9 29 38.4 27.6 42.1C27 42 26.5 42 25.9 42C21.8 42 18 43.6 15.2 46.5C12.5 49.3 11 52.9 11 56.7V56.9C11.1 61 12.7 64.7 15.6 67.4C18.3 70.1 22 71.6 25.9 71.6H81.6C89.5 71.6 96 65.2 96 57.3C96 50.7 91.5 45 85.3 43.4Z" fill="white"/>
</g>
<g style="mix-blend-mode:multiply" opacity="0.3" filter="url(#filter0_f_312_1323)">
<path d="M33.5 64.5C35.2867 64.5 58.3482 63.2276 59.98 62.5C62.2101 61.5057 57.5895 55.5283 59.98 55.0307C61.0594 54.806 62.6465 54.1032 62.6465 54.1032C62.6465 54.1032 66.9994 52.5007 67.75 52.5007C68.5006 52.5007 68.1244 49.5374 67.8901 47.6913L67.75 46.3707C67.75 45.5007 65.158 43.6968 64.75 41.5007C64.4663 39.9736 65.1738 37.916 65.0258 37.533C65.0258 37.533 64.9751 37.5044 64.99 37.5007C65.0045 37.497 65.0163 37.5084 65.0258 37.533C65.1384 37.5858 65.9481 37.8602 65.9481 37.8602C67.8959 38.5203 70.9771 39.5993 73.75 41.5007C75.4084 42.6378 77.6911 44.8144 77.6911 44.8144C77.6911 44.8144 79.3358 46.0864 79.75 46.5007C80.75 47.5007 83.75 50.5007 85.75 50.5007H90.75L93 52.0907L93.5 55.3007C93.5 63.2007 87 69.6007 79.1 69.6007H22.5C22.5 69.6007 27 64.5 33.5 64.5Z" fill="white"/>
</g>
<path d="M48.4884 82.4H48.4H48.3066L48.2139 82.4115C46.8336 82.5841 45.5 83.6835 45.5 85.3C45.5 86.7586 46.7034 88.2 48.4 88.2H48.5884L48.5218 88.3143C48.0258 89.0957 48.0807 89.9856 48.277 90.5743C48.4662 91.1421 48.8505 91.7364 49.4679 92.148C50.2125 92.6444 51.0679 92.6619 51.7386 92.4632C52.3843 92.2718 53.0417 91.8282 53.4147 91.1231L53.4734 91.0225L53.5779 91.2091C54.0633 92.1395 55.0978 92.7 56.1 92.7C56.6399 92.7 57.1859 92.4841 57.4708 92.3416L57.5543 92.2998L57.6321 92.248C58.6587 91.5636 59.5356 89.9246 58.5853 88.4252L58.4592 88.2H58.7C60.1586 88.2 61.6 86.9965 61.6 85.3C61.6 83.4629 60.0032 82.5 58.7 82.5H58.4592L58.5865 82.2725C59.3817 81.005 59.0393 79.0874 57.4712 78.3571C56.098 77.6198 54.417 78.0298 53.6015 79.4491L53.5 79.623L53.3985 79.449C52.6264 78.1059 50.9299 77.543 49.5481 78.4003C48.7903 78.8069 48.3755 79.4301 48.177 80.0256C48.0228 80.4881 48.0492 80.9262 48.0901 81.2121C48.1333 81.5143 48.2141 81.7856 48.277 81.9743L48.3261 82.1216L48.4043 82.2558L48.4884 82.4Z" fill="#302F30" stroke="white" stroke-width="3"/>
<path d="M76.4884 82.4H76.4H76.3066L76.2139 82.4115C74.8336 82.5841 73.5 83.6835 73.5 85.3C73.5 86.7586 74.7034 88.2 76.4 88.2H76.5884L76.5218 88.3143C76.0258 89.0957 76.0807 89.9856 76.277 90.5743C76.4662 91.1421 76.8505 91.7364 77.4679 92.148C78.2125 92.6444 79.0679 92.6619 79.7386 92.4632C80.3843 92.2718 81.0417 91.8282 81.4147 91.1231L81.4734 91.0225L81.5779 91.2091C82.0633 92.1395 83.0978 92.7 84.1 92.7C84.6399 92.7 85.1859 92.4841 85.4708 92.3416L85.5543 92.2998L85.6321 92.248C86.6587 91.5636 87.5356 89.9246 86.5853 88.4252L86.4592 88.2H86.7C88.1586 88.2 89.6 86.9965 89.6 85.3C89.6 83.4629 88.0032 82.5 86.7 82.5H86.4592L86.5865 82.2725C87.3817 81.005 87.0393 79.0874 85.4712 78.3571C84.098 77.6198 82.417 78.0298 81.6015 79.4491L81.5 79.623L81.3985 79.449C80.6264 78.1059 78.9299 77.543 77.5481 78.4003C76.7903 78.8069 76.3755 79.4301 76.177 80.0256C76.0228 80.4881 76.0492 80.9262 76.0901 81.2121C76.1333 81.5143 76.2141 81.7856 76.277 81.9743L76.3261 82.1216L76.4043 82.2558L76.4884 82.4Z" fill="#302F30" stroke="white" stroke-width="3"/>
<path d="M62.4884 91.4H62.4H62.3066L62.2139 91.4115C60.8336 91.5841 59.5 92.6835 59.5 94.3C59.5 95.7586 60.7034 97.2 62.4 97.2H62.5884L62.5218 97.3143C62.0258 98.0957 62.0807 98.9856 62.277 99.5743C62.4662 100.142 62.8505 100.736 63.4679 101.148C64.2125 101.644 65.0679 101.662 65.7386 101.463C66.3843 101.272 67.0417 100.828 67.4147 100.123L67.4734 100.022L67.5779 100.209C68.0633 101.14 69.0978 101.7 70.1 101.7C70.6399 101.7 71.1859 101.484 71.4708 101.342L71.5543 101.3L71.6321 101.248C72.6587 100.564 73.5356 98.9246 72.5853 97.4252L72.4592 97.2H72.7C74.1586 97.2 75.6 95.9965 75.6 94.3C75.6 92.4629 74.0032 91.5 72.7 91.5H72.4592L72.5865 91.2725C73.3817 90.005 73.0393 88.0874 71.4712 87.3571C70.098 86.6198 68.417 87.0298 67.6015 88.4491L67.5 88.623L67.3985 88.449C66.6264 87.1059 64.9299 86.543 63.5481 87.4003C62.7903 87.8069 62.3755 88.4301 62.177 89.0256C62.0228 89.4881 62.0492 89.9262 62.0901 90.2121C62.1333 90.5143 62.2141 90.7856 62.277 90.9743L62.3261 91.1216L62.4043 91.2558L62.4884 91.4Z" fill="#302F30" stroke="white" stroke-width="3"/>
<path d="M34.4884 91.4H34.4H34.3066L34.2139 91.4115C32.8336 91.5841 31.5 92.6835 31.5 94.3C31.5 95.7586 32.7034 97.2 34.4 97.2H34.5884L34.5218 97.3143C34.0258 98.0957 34.0807 98.9856 34.277 99.5743C34.4662 100.142 34.8505 100.736 35.4679 101.148C36.2125 101.644 37.0679 101.662 37.7386 101.463C38.3843 101.272 39.0417 100.828 39.4147 100.123L39.4734 100.022L39.5779 100.209C40.0633 101.14 41.0978 101.7 42.1 101.7C42.6399 101.7 43.1859 101.484 43.4708 101.342L43.5543 101.3L43.6321 101.248C44.6587 100.564 45.5356 98.9246 44.5853 97.4252L44.4592 97.2H44.7C46.1586 97.2 47.6 95.9965 47.6 94.3C47.6 92.4629 46.0032 91.5 44.7 91.5H44.4592L44.5865 91.2725C45.3817 90.005 45.0393 88.0874 43.4712 87.3571C42.098 86.6198 40.417 87.0298 39.6015 88.4491L39.5 88.623L39.3985 88.449C38.6264 87.1059 36.9299 86.543 35.5481 87.4003C34.7903 87.8069 34.3755 88.4301 34.177 89.0256C34.0228 89.4881 34.0492 89.9262 34.0901 90.2121C34.1333 90.5143 34.2141 90.7856 34.277 90.9743L34.3261 91.1216L34.4043 91.2558L34.4884 91.4Z" fill="#302F30" stroke="white" stroke-width="3"/>
<path d="M20.4884 82.4H20.4H20.3066L20.2139 82.4115C18.8336 82.5841 17.5 83.6835 17.5 85.3C17.5 86.7586 18.7034 88.2 20.4 88.2H20.5884L20.5218 88.3143C20.0258 89.0957 20.0807 89.9856 20.277 90.5743C20.4662 91.1421 20.8505 91.7364 21.4679 92.148C22.2125 92.6444 23.0679 92.6619 23.7386 92.4632C24.3843 92.2718 25.0417 91.8282 25.4147 91.1231L25.4734 91.0225L25.5779 91.2091C26.0633 92.1395 27.0978 92.7 28.1 92.7C28.6399 92.7 29.1859 92.4841 29.4708 92.3416L29.5543 92.2998L29.6321 92.248C30.6587 91.5636 31.5356 89.9246 30.5853 88.4252L30.4592 88.2H30.7C32.1586 88.2 33.6 86.9965 33.6 85.3C33.6 83.4629 32.0032 82.5 30.7 82.5H30.4592L30.5865 82.2725C31.3817 81.005 31.0393 79.0874 29.4712 78.3571C28.098 77.6198 26.417 78.0298 25.6015 79.4491L25.5 79.623L25.3985 79.449C24.6264 78.1059 22.9299 77.543 21.5481 78.4003C20.7903 78.8069 20.3755 79.4301 20.177 80.0256C20.0228 80.4881 20.0492 80.9262 20.0901 81.2121C20.1333 81.5143 20.2141 81.7856 20.277 81.9743L20.3261 82.1216L20.4043 82.2558L20.4884 82.4Z" fill="#302F30" stroke="white" stroke-width="3"/>
</g>
<defs>
<filter id="filter0_f_312_1323" x="15.5" y="30.5" width="85" height="46.1007" filterUnits="userSpaceOnUse" color-interpolation-filters="sRGB">
<feFlood flood-opacity="0" result="BackgroundImageFix"/>
<feBlend mode="normal" in="SourceGraphic" in2="BackgroundImageFix" result="shape"/>
<feGaussianBlur stdDeviation="3.5" result="effect1_foregroundBlur_312_1323"/>
</filter>
<clipPath id="clip0_312_1323">
<rect width="104" height="103" fill="white" transform="translate(0 0.5)"/>
</clipPath>
</defs>
</svg>
