<svg width="106" height="110" viewBox="0 0 106 110" fill="none" xmlns="http://www.w3.org/2000/svg">
<g clip-path="url(#clip0_312_1342)">
<path d="M31.5415 9.42676C33.3268 12.5511 34.4427 16.1963 34.4427 20.0646C34.4427 31.8182 24.9207 41.3402 13.1671 41.3402C12.2 41.3402 11.3073 41.2658 10.4146 41.117C14.1342 47.5146 20.9781 51.8292 28.789 51.8292C40.5427 51.8292 50.0646 42.3072 50.0646 30.5536C50.0646 19.6926 42.0305 10.7658 31.5415 9.42676Z" fill="#302F30"/>
<path d="M15.7612 51.1108L15.7603 51.1117C12.7172 54.2676 11 58.3591 11 62.7V62.9V62.9244L11.0006 62.9488C11.1126 67.5423 12.9106 71.7533 16.211 74.8394C19.2961 77.9108 23.4992 79.6 27.9 79.6H83.6C92.5864 79.6 100 72.3227 100 63.3C100 56.23 95.4681 50.0618 89.0335 47.8354C86.4768 36.1911 75.9526 27.5 63.7 27.5C54.4299 27.5 46.0102 32.3893 41.4313 40.1938C40.5454 39.988 39.6662 39.9 38.8 39.9C34.3287 39.9 30.3727 42.2859 28.3647 46.0016C28.2209 46 28.0815 46 27.9457 46H27.9C23.2669 46 18.9446 47.8137 15.7612 51.1108Z" fill="#E3DCE2" stroke="#302F30" stroke-width="4"/>
<g opacity="0.6">
<path style="mix-blend-mode:multiply" fill-rule="evenodd" clip-rule="evenodd" d="M87.3 49.4C85.4 38.1 75.4 29.5 63.7 29.5C54.6 29.5 46.4 34.6 42.4 42.6C41.2 42.1 40 41.9 38.8 41.9C34.6 41.9 31 44.4 29.6 48.1C29 48 28.5 48 27.9 48C23.8 48 20 49.6 17.2 52.5C14.5 55.3 13 58.9 13 62.7V62.9C13.1 67 14.7 70.7 17.6 73.4C20.3 76.1 24 77.6 27.9 77.6H83.6C91.5 77.6 98 71.2 98 63.3C98 56.7 93.5 51 87.3 49.4Z" fill="white"/>
</g>
<g style="mix-blend-mode:multiply" opacity="0.3" filter="url(#filter0_f_312_1342)">
<path d="M35.5 70.5C37.2867 70.5 60.3482 69.2276 61.98 68.5C64.2101 67.5057 59.5895 61.5283 61.98 61.0307C63.0594 60.806 64.6465 60.1032 64.6465 60.1032C64.6465 60.1032 68.9994 58.5007 69.75 58.5007C70.5006 58.5007 70.1244 55.5374 69.8901 53.6913L69.75 52.3707C69.75 51.5007 67.158 49.6968 66.75 47.5007C66.4663 45.9736 67.1738 43.916 67.0258 43.533C67.0258 43.533 66.9751 43.5044 66.99 43.5007C67.0045 43.497 67.0163 43.5084 67.0258 43.533C67.1384 43.5858 67.9481 43.8602 67.9481 43.8602C69.8959 44.5203 72.9771 45.5993 75.75 47.5007C77.4084 48.6378 79.6911 50.8144 79.6911 50.8144C79.6911 50.8144 81.3358 52.0864 81.75 52.5007C82.75 53.5007 85.75 56.5007 87.75 56.5007H92.75L95 58.0907L95.5 61.3007C95.5 69.2007 89 75.6007 81.1 75.6007H24.5C24.5 75.6007 29 70.5 35.5 70.5Z" fill="white"/>
</g>
<path d="M50.4884 88.4H50.4H50.3066L50.2139 88.4115C48.8336 88.5841 47.5 89.6835 47.5 91.3C47.5 92.7586 48.7034 94.2 50.4 94.2H50.5884L50.5218 94.3143C50.0258 95.0957 50.0807 95.9856 50.277 96.5743C50.4662 97.1421 50.8505 97.7364 51.4679 98.148C52.2125 98.6444 53.0679 98.6619 53.7386 98.4632C54.3843 98.2718 55.0417 97.8282 55.4147 97.1231L55.4734 97.0225L55.5779 97.2091C56.0633 98.1395 57.0978 98.7 58.1 98.7C58.6399 98.7 59.1859 98.4841 59.4708 98.3416L59.5543 98.2998L59.6321 98.248C60.6587 97.5636 61.5356 95.9246 60.5853 94.4252L60.4592 94.2H60.7C62.1586 94.2 63.6 92.9965 63.6 91.3C63.6 89.4629 62.0032 88.5 60.7 88.5H60.4592L60.5865 88.2725C61.3817 87.005 61.0393 85.0874 59.4712 84.3571C58.098 83.6198 56.417 84.0298 55.6015 85.4491L55.5 85.623L55.3985 85.449C54.6264 84.1059 52.9299 83.543 51.5481 84.4003C50.7903 84.8069 50.3755 85.4301 50.177 86.0256C50.0228 86.4881 50.0492 86.9262 50.0901 87.2121C50.1333 87.5143 50.2141 87.7856 50.277 87.9743L50.3261 88.1216L50.4043 88.2558L50.4884 88.4Z" fill="#302F30" stroke="white" stroke-width="3"/>
<path d="M78.4884 88.4H78.4H78.3066L78.2139 88.4115C76.8336 88.5841 75.5 89.6835 75.5 91.3C75.5 92.7586 76.7034 94.2 78.4 94.2H78.5884L78.5218 94.3143C78.0258 95.0957 78.0807 95.9856 78.277 96.5743C78.4662 97.1421 78.8505 97.7364 79.4679 98.148C80.2125 98.6444 81.0679 98.6619 81.7386 98.4632C82.3843 98.2718 83.0417 97.8282 83.4147 97.1231L83.4734 97.0225L83.5779 97.2091C84.0633 98.1395 85.0978 98.7 86.1 98.7C86.6399 98.7 87.1859 98.4841 87.4708 98.3416L87.5543 98.2998L87.6321 98.248C88.6587 97.5636 89.5356 95.9246 88.5853 94.4252L88.4592 94.2H88.7C90.1586 94.2 91.6 92.9965 91.6 91.3C91.6 89.4629 90.0032 88.5 88.7 88.5H88.4592L88.5865 88.2725C89.3817 87.005 89.0393 85.0874 87.4712 84.3571C86.098 83.6198 84.417 84.0298 83.6015 85.4491L83.5 85.623L83.3985 85.449C82.6264 84.1059 80.9299 83.543 79.5481 84.4003C78.7903 84.8069 78.3755 85.4301 78.177 86.0256C78.0228 86.4881 78.0492 86.9262 78.0901 87.2121C78.1333 87.5143 78.2141 87.7856 78.277 87.9743L78.3261 88.1216L78.4043 88.2558L78.4884 88.4Z" fill="#302F30" stroke="white" stroke-width="3"/>
<path d="M64.4884 97.4H64.4H64.3066L64.2139 97.4115C62.8336 97.5841 61.5 98.6835 61.5 100.3C61.5 101.759 62.7034 103.2 64.4 103.2H64.5884L64.5218 103.314C64.0258 104.096 64.0807 104.986 64.277 105.574C64.4662 106.142 64.8505 106.736 65.4679 107.148C66.2125 107.644 67.0679 107.662 67.7386 107.463C68.3843 107.272 69.0417 106.828 69.4147 106.123L69.4734 106.022L69.5779 106.209C70.0633 107.14 71.0978 107.7 72.1 107.7C72.6399 107.7 73.1859 107.484 73.4708 107.342L73.5543 107.3L73.6321 107.248C74.6587 106.564 75.5356 104.925 74.5853 103.425L74.4592 103.2H74.7C76.1586 103.2 77.6 101.997 77.6 100.3C77.6 98.4629 76.0032 97.5 74.7 97.5H74.4592L74.5865 97.2725C75.3817 96.005 75.0393 94.0874 73.4712 93.3571C72.098 92.6198 70.417 93.0298 69.6015 94.4491L69.5 94.623L69.3985 94.449C68.6264 93.1059 66.9299 92.543 65.5481 93.4003C64.7903 93.8069 64.3755 94.4301 64.177 95.0256C64.0228 95.4881 64.0492 95.9262 64.0901 96.2121C64.1333 96.5143 64.2141 96.7856 64.277 96.9743L64.3261 97.1216L64.4043 97.2558L64.4884 97.4Z" fill="#302F30" stroke="white" stroke-width="3"/>
<path d="M36.4884 97.4H36.4H36.3066L36.2139 97.4115C34.8336 97.5841 33.5 98.6835 33.5 100.3C33.5 101.759 34.7034 103.2 36.4 103.2H36.5884L36.5218 103.314C36.0258 104.096 36.0807 104.986 36.277 105.574C36.4662 106.142 36.8505 106.736 37.4679 107.148C38.2125 107.644 39.0679 107.662 39.7386 107.463C40.3843 107.272 41.0417 106.828 41.4147 106.123L41.4734 106.022L41.5779 106.209C42.0633 107.14 43.0978 107.7 44.1 107.7C44.6399 107.7 45.1859 107.484 45.4708 107.342L45.5543 107.3L45.6321 107.248C46.6587 106.564 47.5356 104.925 46.5853 103.425L46.4592 103.2H46.7C48.1586 103.2 49.6 101.997 49.6 100.3C49.6 98.4629 48.0032 97.5 46.7 97.5H46.4592L46.5865 97.2725C47.3817 96.005 47.0393 94.0874 45.4712 93.3571C44.098 92.6198 42.417 93.0298 41.6015 94.4491L41.5 94.623L41.3985 94.449C40.6264 93.1059 38.9299 92.543 37.5481 93.4003C36.7903 93.8069 36.3755 94.4301 36.177 95.0256C36.0228 95.4881 36.0492 95.9262 36.0901 96.2121C36.1333 96.5143 36.2141 96.7856 36.277 96.9743L36.3261 97.1216L36.4043 97.2558L36.4884 97.4Z" fill="#302F30" stroke="white" stroke-width="3"/>
<path d="M22.4884 88.4H22.4H22.3066L22.2139 88.4115C20.8336 88.5841 19.5 89.6835 19.5 91.3C19.5 92.7586 20.7034 94.2 22.4 94.2H22.5884L22.5218 94.3143C22.0258 95.0957 22.0807 95.9856 22.277 96.5743C22.4662 97.1421 22.8505 97.7364 23.4679 98.148C24.2125 98.6444 25.0679 98.6619 25.7386 98.4632C26.3843 98.2718 27.0417 97.8282 27.4147 97.1231L27.4734 97.0225L27.5779 97.2091C28.0633 98.1395 29.0978 98.7 30.1 98.7C30.6399 98.7 31.1859 98.4841 31.4708 98.3416L31.5543 98.2998L31.6321 98.248C32.6587 97.5636 33.5356 95.9246 32.5853 94.4252L32.4592 94.2H32.7C34.1586 94.2 35.6 92.9965 35.6 91.3C35.6 89.4629 34.0032 88.5 32.7 88.5H32.4592L32.5865 88.2725C33.3817 87.005 33.0393 85.0874 31.4712 84.3571C30.098 83.6198 28.417 84.0298 27.6015 85.4491L27.5 85.623L27.3985 85.449C26.6264 84.1059 24.9299 83.543 23.5481 84.4003C22.7903 84.8069 22.3755 85.4301 22.177 86.0256C22.0228 86.4881 22.0492 86.9262 22.0901 87.2121C22.1333 87.5143 22.2141 87.7856 22.277 87.9743L22.3261 88.1216L22.4043 88.2558L22.4884 88.4Z" fill="#302F30" stroke="white" stroke-width="3"/>
</g>
<defs>
<filter id="filter0_f_312_1342" x="17.5" y="36.5" width="85" height="46.1007" filterUnits="userSpaceOnUse" color-interpolation-filters="sRGB">
<feFlood flood-opacity="0" result="BackgroundImageFix"/>
<feBlend mode="normal" in="SourceGraphic" in2="BackgroundImageFix" result="shape"/>
<feGaussianBlur stdDeviation="3.5" result="effect1_foregroundBlur_312_1342"/>
</filter>
<clipPath id="clip0_312_1342">
<rect width="106" height="109" fill="white" transform="translate(0 0.5)"/>
</clipPath>
</defs>
</svg>
