<svg width="100" height="102" viewBox="0 0 100 102" fill="none" xmlns="http://www.w3.org/2000/svg">
<g clip-path="url(#clip0_312_1362)">
<path d="M9.7612 45.1108L9.76031 45.1117C6.71717 48.2676 5 52.3591 5 56.7V56.9V56.9244L5.00059 56.9488C5.11263 61.5423 6.91058 65.7533 10.211 68.8394C13.2961 71.9108 17.4992 73.6 21.9 73.6H77.6C86.5864 73.6 94 66.3227 94 57.3C94 50.23 89.4681 44.0618 83.0335 41.8354C80.4768 30.1911 69.9526 21.5 57.7 21.5C48.4299 21.5 40.0102 26.3893 35.4313 34.1938C34.5454 33.988 33.6662 33.9 32.8 33.9C28.3287 33.9 24.3727 36.2859 22.3647 40.0016C22.2209 40 22.0815 40 21.9457 40H21.9C17.2669 40 12.9446 41.8137 9.7612 45.1108Z" fill="#F7F5F6" stroke="#302F30" stroke-width="4"/>
<g opacity="0.6">
<path style="mix-blend-mode:multiply" fill-rule="evenodd" clip-rule="evenodd" d="M81.3 43.4C79.4 32.1 69.4 23.5 57.7 23.5C48.6 23.5 40.4 28.6 36.4 36.6C35.2 36.1 34 35.9 32.8 35.9C28.6 35.9 25 38.4 23.6 42.1C23 42 22.5 42 21.9 42C17.8 42 14 43.6 11.2 46.5C8.5 49.3 7 52.9 7 56.7V56.9C7.1 61 8.7 64.7 11.6 67.4C14.3 70.1 18 71.6 21.9 71.6H77.6C85.5 71.6 92 65.2 92 57.3C92 50.7 87.5 45 81.3 43.4Z" fill="white"/>
</g>
<g style="mix-blend-mode:multiply" opacity="0.3" filter="url(#filter0_f_312_1362)">
<path d="M29.5 64.5C31.2867 64.5 54.3482 63.2276 55.98 62.5C58.2101 61.5057 53.5895 55.5283 55.98 55.0307C57.0594 54.806 58.6465 54.1032 58.6465 54.1032C58.6465 54.1032 62.9994 52.5007 63.75 52.5007C64.5006 52.5007 64.1244 49.5374 63.8901 47.6913L63.75 46.3707C63.75 45.5007 61.158 43.6968 60.75 41.5007C60.4663 39.9736 61.1738 37.916 61.0258 37.533C61.0258 37.533 60.9751 37.5044 60.99 37.5007C61.0045 37.497 61.0163 37.5084 61.0258 37.533C61.1384 37.5858 61.9481 37.8602 61.9481 37.8602C63.8959 38.5203 66.9771 39.5993 69.75 41.5007C71.4084 42.6378 73.6911 44.8144 73.6911 44.8144C73.6911 44.8144 75.3358 46.0864 75.75 46.5007C76.75 47.5007 79.75 50.5007 81.75 50.5007H86.75L89 52.0907L89.5 55.3007C89.5 63.2007 83 69.6007 75.1 69.6007H18.5C18.5 69.6007 23 64.5 29.5 64.5Z" fill="white"/>
</g>
<path d="M30.4884 89.4H30.4H30.3066L30.2139 89.4115C28.8336 89.5841 27.5 90.6835 27.5 92.3C27.5 93.7586 28.7034 95.2 30.4 95.2H30.5884L30.5218 95.3143C30.0258 96.0957 30.0807 96.9856 30.277 97.5743C30.4662 98.1421 30.8505 98.7364 31.4679 99.148C32.2125 99.6444 33.0679 99.6619 33.7386 99.4632C34.3843 99.2718 35.0417 98.8282 35.4147 98.1231L35.4734 98.0225L35.5779 98.2091C36.0633 99.1395 37.0978 99.7 38.1 99.7C38.6399 99.7 39.1859 99.4841 39.4708 99.3416L39.5543 99.2998L39.6321 99.248C40.6587 98.5636 41.5356 96.9246 40.5853 95.4252L40.4592 95.2H40.7C42.1586 95.2 43.6 93.9965 43.6 92.3C43.6 90.4629 42.0032 89.5 40.7 89.5H40.4592L40.5865 89.2725C41.3817 88.005 41.0393 86.0874 39.4712 85.3571C38.098 84.6198 36.417 85.0298 35.6015 86.4491L35.5 86.623L35.3985 86.449C34.6264 85.1059 32.9299 84.543 31.5481 85.4003C30.7903 85.8069 30.3755 86.4301 30.177 87.0256C30.0228 87.4881 30.0492 87.9262 30.0901 88.2121C30.1333 88.5143 30.2141 88.7856 30.277 88.9743L30.3261 89.1216L30.4043 89.2558L30.4884 89.4Z" fill="#302F30" stroke="white" stroke-width="3"/>
<path d="M61.8714 92.662L61.9468 92.6968L62.0257 92.7231C62.3672 92.8369 62.9528 93 63.5 93C65.0151 93 66.518 92.2142 67.1828 90.5817L70.6742 82.6013L70.6878 82.5702L70.7 82.5385C71.464 80.552 70.6952 78.2919 68.6286 77.3381L68.5841 77.3176L68.5385 77.3C66.552 76.536 64.2919 77.3048 63.3381 79.3714L63.3318 79.3851L63.3258 79.3988L59.8258 87.3988L59.8122 87.4299L59.8 87.4616C59.036 89.448 59.8048 91.7081 61.8714 92.662Z" fill="#302F30" stroke="white" stroke-width="3"/>
</g>
<defs>
<filter id="filter0_f_312_1362" x="11.5" y="30.5" width="85" height="46.1007" filterUnits="userSpaceOnUse" color-interpolation-filters="sRGB">
<feFlood flood-opacity="0" result="BackgroundImageFix"/>
<feBlend mode="normal" in="SourceGraphic" in2="BackgroundImageFix" result="shape"/>
<feGaussianBlur stdDeviation="3.5" result="effect1_foregroundBlur_312_1362"/>
</filter>
<clipPath id="clip0_312_1362">
<rect width="100" height="101" fill="white" transform="translate(0 0.5)"/>
</clipPath>
</defs>
</svg>
